<?xml version="1.0" encoding="utf-8"?>
<!-- Generator: Adobe Illustrator 24.0.1, SVG Export Plug-In . SVG Version: 6.00 Build 0)  -->
<svg version="1.1" id="Camada_1" xmlns="http://www.w3.org/2000/svg" xmlns:xlink="http://www.w3.org/1999/xlink" x="0px" y="0px"
	 viewBox="0 0 1080 1920" style="enable-background:new 0 0 1080 1920;" xml:space="preserve">
<style type="text/css">
	.st0{fill-rule:evenodd;clip-rule:evenodd;fill:#F7F7F7;}
	.st1{fill:#F7F7F7;stroke:#FFFFFF;stroke-width:2;stroke-miterlimit:10;}
	.st2{fill-rule:evenodd;clip-rule:evenodd;fill:#CF141A;}
	.st3{fill-rule:evenodd;clip-rule:evenodd;fill:#D01E1D;}
	.st4{fill-rule:evenodd;clip-rule:evenodd;fill:#CE1417;}
</style>
<g>
	<path class="st0" d="M17.1,58.6c2.9,0,9,0.4,11.4-0.9c2.4-1.2,2.9-4,1.5-6.4c-0.4-0.7-0.7-0.9-1.4-1.3c-2.2-1.3-7-1-9.7-1
		c-3.6,0-7.7,1-8.4,4.1C9.7,56.8,13.5,58.6,17.1,58.6L17.1,58.6z M17.1,58.6"/>
	<path class="st0" d="M186.7-29.1c-3.1-6.2-9.6-5.2-16.1-5.4C156.6-35,142.4-35,128.2-35c-6.5,0-13.2-0.5-17.5,3.7
		c-1.3,1.3-3.5,4.5-4.3,6.3c-5.4,0.8-10.6-0.4-15.8,1.2c-6.4,1.9-7.2,5.8-10.2,6.9c-6.6,2.4-26.8-3.9-28.9,3.4
		c-1.8,6.1,6.2,6,10.7,6c2.9,0,5.5-0.2,8.3-0.3c2.9-0.1,5.3,0,8.1,0c3.7,0,12.5,1.6,9.3,6.2C85.3,2.1,78.2,1,73.6,1L22.4,1
		C19.7,1,17,1.3,15.8,3c-1.4,1.9-0.2,4.8,1.1,5.9c4.5,4.1,55.6-1.6,60,2.3c0.8,0.7,1,2.2,0.8,3.1c-0.3,0.5-1.1,0.9-1.9,1.3
		c-4.4,2-14.6,0.8-19.3,0.7l-59.6,0c-2.3,0-5.9-0.4-7.3,1.7c-0.6,0.8-0.4,1.6-0.8,2.1v2.3c0.6,1.1-0.3,0.7,1.3,1.6
		c2,1.1,4.3,1.4,6.5,1.7c2.7,0.3,28.2-0.3,32.7-0.3c14.6,0,29.6-0.3,44.2,0c5.1,0.1,11.2,0,16.3,0.6c1.9,0.2,2.6,0.6,3.5,2
		c2.1,3.4-1.6,5.2-4.4,5.7C86,34.2,81.6,34,78.3,34l-33.2-0.1c-3.6,0-7.4,0.2-10.8,0.1c-3.5,0-7.1,0.3-7.7,3.5
		c-0.7,3.7,2.4,5.4,5.5,5.7c5.2,0.4,15.9,0,21.8,0l22-0.3c3.4-0.1,7.6-0.1,7.4,3.8c-0.1,2-0.5,2-3,2.6c-4.2,1.1-11.3,0.7-15.5,0.3
		c-3.5-0.3-7.2-0.5-10.8-0.5c-3.2,0-7.5,0.1-9.3,1.9c-2.4,2.2-2,5.5,1.1,6.9c2.7,1.2,6.5,1,9.9,0.9l10.8-0.2c2.8-0.3,8.1-0.4,10.8,0
		c4.8,0.8,3.8,4.7,3.8,6.8c-2.8,0.8-1.3,0.9-5.8,1.6c-5.6,0.8-14.8,0.1-20.8,0.1c-9.6,0-19.4-0.1-28.8-0.1c-2.8,0-5.7,0-7.7,1.4
		c-1.1,0.8-1.3,2.5-1.2,4c0.3,4.1,6.3,4.3,10.5,3.8c2-0.2,5.1-0.1,7.2-0.1l7.2-0.1c4.7,0.2,9.5,0.1,14.3,0.1
		c0.8,0.1,1.2,4.2,4.7,6.1c2.5,1.3,6.1,1.4,9.5,1.4c3.9,0,18.1-0.5,20.9,0.4c0.5,2.1-0.3,5.4,1,9.8c0.8,3,2.2,4.7,4.7,5.9
		c4.4,2,14.4,1.2,20,1.2c11.8,0,31.3,0.9,42.2,0c3.8-0.3,5.7-0.7,8.4-2.5c6.7-4.5,6.9-16.5,7.9-24.3c1.6-12.5,3.5-25.1,5.1-37.6
		c1.6-12.5,3.3-25.4,5.2-37.8c0.5-3.1,1.1-6.2,1.6-9.2C188.2-16.3,189.4-23.7,186.7-29.1z M182.6-10.8c-3.3,23.5-6.8,47.5-9.8,71
		c-1,7.9-1.9,16-3,23.9c-0.5,3.9-1.6,7.6-3.7,9.7c-2.7,2.7-6.1,2.6-10.8,2.7c-13.4,0.2-26.9,0.2-40.4,0.1c-4,0-9.2,0.2-13-0.4
		c-4.4-0.7-6.2-2.5-6.3-7.4c-0.1-3.7,0.9-8.4,1.4-12c1.1-7.9,2.2-15.7,3.3-23.6c2.1-15.8,4.2-31.7,6.4-47.5
		c1.1-7.9,2.1-15.8,3.3-23.7c1.6-10.4,3.3-12.2,14.3-12.6c4.3-0.2,8.8,0,13.2,0.1c6.8,0,35.8-0.3,40.1,0.3c4.5,0.6,6.3,2.4,6.4,7.2
		C183.9-19,183.1-14.6,182.6-10.8z"/>
	<path class="st0" d="M102.3,80.7c4.7,0.3,10.5,0,15.3,0c14.7,0,30.1-0.1,44.8,0c0.5,0,1.5,0.1,1.8-0.2c0.3-0.4,10.5-76.7,12.5-91.1
		c0.2-1.7,0.8-4.5,0.8-6.2l-61.5-0.1c-0.4,0.2-0.2,0-0.4,0.4l-10,72.8c-0.6,4-1.1,8.1-1.7,12.2L102.3,80.7z M102.3,80.7"/>
	<path class="st0" d="M140.4,25.9c2.2,0,4-1.9,4.1-4.2C142.5,21.8,140.9,23.8,140.4,25.9L140.4,25.9z M140.4,25.9"/>
	<path class="st1" d="M142.1,20.1c2-2.1,4.4-1.8,4.4-1.8s0.1,2.2-1.9,4.1c-2.1,2-4.2,1.4-4.2,1.4S140.3,22,142.1,20.1z M142.9,44.7
		c-1.5-0.2-2.6-1.4-4.2-1.6c-1.7-0.2-3.4,0.7-4.5,0.5c-3.1-0.4-6.1-7.5-5.5-12.8c0.6-5.3,4.3-7.6,7.3-7.2c2,0.2,3.4,1.6,4.4,1.7
		c0.9,0.1,2.7-0.9,4.9-0.6c3.7,0.5,4.8,3.3,4.8,3.3s-3,1.1-3.5,4.7c-0.5,4,2.9,5.8,2.9,5.8S146.3,45.1,142.9,44.7z"/>
	<path class="st0" d="M318,58.6c2.9,0,9,0.4,11.4-0.9c2.4-1.2,2.9-4,1.5-6.4c-0.4-0.7-0.7-0.9-1.4-1.3c-2.2-1.3-7-1-9.7-1
		c-3.6,0-7.7,1-8.4,4.1C310.6,56.8,314.5,58.6,318,58.6L318,58.6z M318,58.6"/>
	<path class="st0" d="M487.7-29.1c-3.1-6.2-9.6-5.2-16.1-5.4C457.5-35,443.4-35,429.2-35c-6.5,0-13.2-0.5-17.5,3.7
		c-1.3,1.3-3.5,4.5-4.3,6.3c-5.4,0.8-10.6-0.4-15.8,1.2c-6.4,1.9-7.2,5.8-10.2,6.9c-6.6,2.4-26.8-3.9-28.9,3.4
		c-1.8,6.1,6.2,6,10.7,6c2.9,0,5.5-0.2,8.3-0.3c2.9-0.1,5.3,0,8.1,0c3.7,0,12.5,1.6,9.3,6.2c-2.5,3.6-9.7,2.5-14.2,2.5l-51.2,0
		c-2.6,0-5.4,0.2-6.6,1.9c-1.4,1.9-0.2,4.8,1.1,5.9c4.5,4.1,55.6-1.6,60,2.3c0.8,0.7,1,2.2,0.8,3.1c-0.3,0.5-1.1,0.9-1.9,1.3
		c-4.4,2-14.6,0.8-19.3,0.7l-59.6,0c-2.3,0-5.9-0.4-7.3,1.7c-0.6,0.8-0.4,1.6-0.8,2.1v2.3c0.6,1.1-0.3,0.7,1.3,1.6
		c2,1.1,4.3,1.4,6.5,1.7c2.7,0.3,28.2-0.3,32.7-0.3c14.6,0,29.6-0.3,44.2,0c5.1,0.1,11.2,0,16.3,0.6c1.9,0.2,2.6,0.6,3.5,2
		c2.1,3.4-1.6,5.2-4.4,5.7c-2.9,0.6-7.3,0.3-10.7,0.3l-33.2-0.1c-3.6,0-7.4,0.2-10.8,0.1c-3.5,0-7.1,0.3-7.7,3.5
		c-0.7,3.7,2.4,5.4,5.5,5.7c5.2,0.4,15.9,0,21.8,0l22-0.3c3.4-0.1,7.6-0.1,7.4,3.8c-0.1,2-0.5,2-3,2.6c-4.2,1.1-11.3,0.7-15.5,0.3
		c-3.5-0.3-7.2-0.5-10.8-0.5c-3.2,0-7.5,0.1-9.3,1.9c-2.4,2.2-2,5.5,1.1,6.9c2.7,1.2,6.5,1,9.9,0.9l10.8-0.2c2.8-0.3,8.1-0.4,10.8,0
		c4.8,0.8,3.8,4.7,3.8,6.8c-2.8,0.8-1.3,0.9-5.8,1.6c-5.6,0.8-14.8,0.1-20.8,0.1c-9.6,0-19.4-0.1-28.8-0.1c-2.8,0-5.7,0-7.7,1.4
		c-1.1,0.8-1.3,2.5-1.2,4c0.3,4.1,6.3,4.3,10.5,3.8c2-0.2,5.1-0.1,7.2-0.1l7.2-0.1c4.7,0.2,9.5,0.1,14.3,0.1
		c0.8,0.1,1.2,4.2,4.7,6.1c2.5,1.3,6.1,1.4,9.5,1.4c3.9,0,18.1-0.5,20.9,0.4c0.5,2.1-0.3,5.4,1,9.8c0.8,3,2.2,4.7,4.7,5.9
		c4.4,2,14.4,1.2,20,1.2c11.8,0,31.3,0.9,42.2,0c3.8-0.3,5.7-0.7,8.4-2.5c6.7-4.5,6.9-16.5,7.9-24.3c1.6-12.5,3.5-25.1,5.1-37.6
		c1.6-12.5,3.3-25.4,5.2-37.8c0.5-3.1,1.1-6.2,1.6-9.2C489.2-16.3,490.4-23.7,487.7-29.1z M483.5-10.8c-3.3,23.5-6.8,47.5-9.8,71
		c-1,7.9-1.9,16-3,23.9c-0.5,3.9-1.6,7.6-3.7,9.7c-2.7,2.7-6.1,2.6-10.8,2.7c-13.4,0.2-26.9,0.2-40.4,0.1c-4,0-9.2,0.2-13-0.4
		c-4.4-0.7-6.2-2.5-6.3-7.4c-0.1-3.7,0.9-8.4,1.4-12c1.1-7.9,2.2-15.7,3.3-23.6c2.1-15.8,4.2-31.7,6.4-47.5
		c1.1-7.9,2.1-15.8,3.3-23.7c1.6-10.4,3.3-12.2,14.3-12.6c4.3-0.2,8.8,0,13.2,0.1c6.8,0,35.8-0.3,40.1,0.3c4.5,0.6,6.3,2.4,6.4,7.2
		C484.9-19,484-14.6,483.5-10.8z"/>
	<path class="st0" d="M403.2,80.7c4.7,0.3,10.5,0,15.3,0c14.7,0,30.1-0.1,44.8,0c0.5,0,1.5,0.1,1.8-0.2c0.3-0.4,10.5-76.7,12.5-91.1
		c0.2-1.7,0.8-4.5,0.8-6.2l-61.5-0.1c-0.4,0.2-0.2,0-0.4,0.4l-10,72.8c-0.6,4-1.1,8.1-1.7,12.2L403.2,80.7z M403.2,80.7"/>
	<path class="st0" d="M441.4,25.9c2.2,0,4-1.9,4.1-4.2C443.5,21.8,441.8,23.8,441.4,25.9L441.4,25.9z M441.4,25.9"/>
	<path class="st1" d="M443,20.1c2-2.1,4.4-1.8,4.4-1.8s0.1,2.2-1.9,4.1c-2.1,2-4.2,1.4-4.2,1.4S441.2,22,443,20.1z M443.9,44.7
		c-1.5-0.2-2.6-1.4-4.2-1.6c-1.7-0.2-3.4,0.7-4.5,0.5c-3.1-0.4-6.1-7.5-5.5-12.8c0.6-5.3,4.3-7.6,7.3-7.2c2,0.2,3.4,1.6,4.4,1.7
		c0.9,0.1,2.7-0.9,4.9-0.6c3.7,0.5,4.8,3.3,4.8,3.3s-3,1.1-3.5,4.7c-0.5,4,2.9,5.8,2.9,5.8S447.2,45.1,443.9,44.7z"/>
	<path class="st0" d="M618.9,58.6c2.9,0,9,0.4,11.4-0.9c2.4-1.2,2.9-4,1.5-6.4c-0.4-0.7-0.7-0.9-1.4-1.3c-2.2-1.3-7-1-9.7-1
		c-3.6,0-7.7,1-8.4,4.1C611.6,56.8,615.4,58.6,618.9,58.6L618.9,58.6z M618.9,58.6"/>
	<path class="st0" d="M788.6-29.1c-3.1-6.2-9.6-5.2-16.1-5.4C758.4-35,744.3-35,730.1-35c-6.5,0-13.2-0.5-17.5,3.7
		c-1.3,1.3-3.5,4.5-4.3,6.3c-5.4,0.8-10.6-0.4-15.8,1.2c-6.4,1.9-7.2,5.8-10.2,6.9c-6.6,2.4-26.8-3.9-28.9,3.4
		c-1.8,6.1,6.2,6,10.7,6c2.9,0,5.5-0.2,8.3-0.3c2.9-0.1,5.3,0,8.1,0c3.7,0,12.5,1.6,9.3,6.2C687.2,2.1,680,1,675.5,1l-51.2,0
		c-2.6,0-5.4,0.2-6.6,1.9c-1.4,1.9-0.2,4.8,1.1,5.9c4.5,4.1,55.6-1.6,60,2.3c0.8,0.7,1,2.2,0.8,3.1c-0.3,0.5-1.1,0.9-1.9,1.3
		c-4.4,2-14.6,0.8-19.3,0.7l-59.6,0c-2.3,0-5.9-0.4-7.3,1.7c-0.6,0.8-0.4,1.6-0.8,2.1v2.3c0.6,1.1-0.3,0.7,1.3,1.6
		c2,1.1,4.3,1.4,6.5,1.7c2.7,0.3,28.2-0.3,32.7-0.3c14.6,0,29.6-0.3,44.2,0c5.1,0.1,11.2,0,16.3,0.6c1.9,0.2,2.6,0.6,3.5,2
		c2.1,3.4-1.6,5.2-4.4,5.7c-2.9,0.6-7.3,0.3-10.7,0.3L647,33.8c-3.6,0-7.4,0.2-10.8,0.1c-3.5,0-7.1,0.3-7.7,3.5
		c-0.7,3.7,2.4,5.4,5.5,5.7c5.2,0.4,15.9,0,21.8,0l22-0.3c3.4-0.1,7.6-0.1,7.4,3.8c-0.1,2-0.5,2-3,2.6c-4.2,1.1-11.3,0.7-15.5,0.3
		c-3.5-0.3-7.2-0.5-10.8-0.5c-3.2,0-7.5,0.1-9.3,1.9c-2.4,2.2-2,5.5,1.1,6.9c2.7,1.2,6.5,1,9.9,0.9l10.8-0.2c2.8-0.3,8.1-0.4,10.8,0
		c4.8,0.8,3.8,4.7,3.8,6.8c-2.8,0.8-1.3,0.9-5.8,1.6c-5.6,0.8-14.8,0.1-20.8,0.1c-9.6,0-19.4-0.1-28.8-0.1c-2.8,0-5.7,0-7.7,1.4
		c-1.1,0.8-1.3,2.5-1.2,4c0.3,4.1,6.3,4.3,10.5,3.8c2-0.2,5.1-0.1,7.2-0.1l7.2-0.1c4.7,0.2,9.5,0.1,14.3,0.1
		c0.8,0.1,1.2,4.2,4.7,6.1c2.5,1.3,6.1,1.4,9.5,1.4c3.9,0,18.1-0.5,20.9,0.4c0.5,2.1-0.3,5.4,1,9.8c0.8,3,2.2,4.7,4.7,5.9
		c4.4,2,14.4,1.2,20,1.2c11.8,0,31.3,0.9,42.2,0c3.8-0.3,5.7-0.7,8.4-2.5c6.7-4.5,6.9-16.5,7.9-24.3c1.6-12.5,3.5-25.1,5.1-37.6
		c1.6-12.5,3.3-25.4,5.2-37.8c0.5-3.1,1.1-6.2,1.6-9.2C790.1-16.3,791.3-23.7,788.6-29.1z M784.5-10.8c-3.3,23.5-6.8,47.5-9.8,71
		c-1,7.9-1.9,16-3,23.9c-0.5,3.9-1.6,7.6-3.7,9.7c-2.7,2.7-6.1,2.6-10.8,2.7c-13.4,0.2-26.9,0.2-40.4,0.1c-4,0-9.2,0.2-13-0.4
		c-4.4-0.7-6.2-2.5-6.3-7.4c-0.1-3.7,0.9-8.4,1.4-12c1.1-7.9,2.2-15.7,3.3-23.6c2.1-15.8,4.2-31.7,6.4-47.5
		c1.1-7.9,2.1-15.8,3.3-23.7c1.6-10.4,3.3-12.2,14.3-12.6c4.3-0.2,8.8,0,13.2,0.1c6.8,0,35.8-0.3,40.1,0.3c4.5,0.6,6.3,2.4,6.4,7.2
		C785.8-19,785-14.6,784.5-10.8z"/>
	<path class="st0" d="M704.2,80.7c4.7,0.3,10.5,0,15.3,0c14.7,0,30.1-0.1,44.8,0c0.5,0,1.5,0.1,1.8-0.2c0.3-0.4,10.5-76.7,12.5-91.1
		c0.2-1.7,0.8-4.5,0.8-6.2l-61.5-0.1c-0.4,0.2-0.2,0-0.4,0.4l-10,72.8c-0.6,4-1.1,8.1-1.7,12.2L704.2,80.7z M704.2,80.7"/>
	<path class="st0" d="M742.3,25.9c2.2,0,4-1.9,4.1-4.2C744.4,21.8,742.8,23.8,742.3,25.9L742.3,25.9z M742.3,25.9"/>
	<path class="st1" d="M744,20.1c2-2.1,4.4-1.8,4.4-1.8s0.1,2.2-1.9,4.1c-2.1,2-4.2,1.4-4.2,1.4S742.2,22,744,20.1z M744.8,44.7
		c-1.5-0.2-2.6-1.4-4.2-1.6c-1.7-0.2-3.4,0.7-4.5,0.5c-3.1-0.4-6.1-7.5-5.5-12.8c0.6-5.3,4.3-7.6,7.3-7.2c2,0.2,3.4,1.6,4.4,1.7
		c0.9,0.1,2.7-0.9,4.9-0.6c3.7,0.5,4.8,3.3,4.8,3.3s-3,1.1-3.5,4.7c-0.5,4,2.9,5.8,2.9,5.8S748.2,45.1,744.8,44.7z"/>
	<path class="st0" d="M919.9,58.6c2.9,0,9,0.4,11.4-0.9c2.4-1.2,2.9-4,1.5-6.4c-0.4-0.7-0.7-0.9-1.4-1.3c-2.2-1.3-7-1-9.7-1
		c-3.6,0-7.7,1-8.4,4.1C912.5,56.8,916.4,58.6,919.9,58.6L919.9,58.6z M919.9,58.6"/>
	<path class="st0" d="M1089.6-29.1c-3.1-6.2-9.6-5.2-16.1-5.4c-14.1-0.4-28.2-0.4-42.4-0.4c-6.5,0-13.2-0.5-17.5,3.7
		c-1.3,1.3-3.5,4.5-4.3,6.3c-5.4,0.8-10.6-0.4-15.8,1.2c-6.4,1.9-7.2,5.8-10.2,6.9c-6.6,2.4-26.8-3.9-28.9,3.4
		c-1.8,6.1,6.2,6,10.7,6c2.9,0,5.5-0.2,8.3-0.3c2.9-0.1,5.3,0,8.1,0c3.7,0,12.5,1.6,9.3,6.2C988.1,2.1,981,1,976.4,1l-51.2,0
		c-2.6,0-5.4,0.2-6.6,1.9c-1.4,1.9-0.2,4.8,1.1,5.9c4.5,4.1,55.6-1.6,60,2.3c0.8,0.7,1,2.2,0.8,3.1c-0.3,0.5-1.1,0.9-1.9,1.3
		c-4.4,2-14.6,0.8-19.3,0.7l-59.6,0c-2.3,0-5.9-0.4-7.3,1.7c-0.6,0.8-0.4,1.6-0.8,2.1v2.3c0.6,1.1-0.3,0.7,1.3,1.6
		c2,1.1,4.3,1.4,6.5,1.7c2.7,0.3,28.2-0.3,32.7-0.3c14.6,0,29.6-0.3,44.2,0c5.1,0.1,11.2,0,16.3,0.6c1.9,0.2,2.6,0.6,3.5,2
		c2.1,3.4-1.6,5.2-4.4,5.7c-2.9,0.6-7.3,0.3-10.7,0.3L948,33.8c-3.6,0-7.4,0.2-10.8,0.1c-3.5,0-7.1,0.3-7.7,3.5
		c-0.7,3.7,2.4,5.4,5.5,5.7c5.2,0.4,15.9,0,21.8,0l22-0.3c3.4-0.1,7.6-0.1,7.4,3.8c-0.1,2-0.5,2-3,2.6c-4.2,1.1-11.3,0.7-15.5,0.3
		c-3.5-0.3-7.2-0.5-10.8-0.5c-3.2,0-7.5,0.1-9.3,1.9c-2.4,2.2-2,5.5,1.1,6.9c2.7,1.2,6.5,1,9.9,0.9l10.8-0.2c2.8-0.3,8.1-0.4,10.8,0
		c4.8,0.8,3.8,4.7,3.8,6.8c-2.8,0.8-1.3,0.9-5.8,1.6c-5.6,0.8-14.8,0.1-20.8,0.1c-9.6,0-19.4-0.1-28.8-0.1c-2.8,0-5.7,0-7.7,1.4
		c-1.1,0.8-1.3,2.5-1.2,4c0.3,4.1,6.3,4.3,10.5,3.8c2-0.2,5.1-0.1,7.2-0.1l7.2-0.1c4.7,0.2,9.5,0.1,14.3,0.1
		c0.8,0.1,1.2,4.2,4.7,6.1c2.5,1.3,6.1,1.4,9.5,1.4c3.9,0,18.1-0.5,20.9,0.4c0.5,2.1-0.3,5.4,1,9.8c0.8,3,2.2,4.7,4.7,5.9
		c4.4,2,14.4,1.2,20,1.2c11.8,0,31.3,0.9,42.2,0c3.8-0.3,5.7-0.7,8.4-2.5c6.7-4.5,6.9-16.5,7.9-24.3c1.6-12.5,3.5-25.1,5.1-37.6
		c1.6-12.5,3.3-25.4,5.2-37.8c0.5-3.1,1.1-6.2,1.6-9.2C1091-16.3,1092.3-23.7,1089.6-29.1z M1085.4-10.8c-3.3,23.5-6.8,47.5-9.8,71
		c-1,7.9-1.9,16-3,23.9c-0.5,3.9-1.6,7.6-3.7,9.7c-2.7,2.7-6.1,2.6-10.8,2.7c-13.4,0.2-26.9,0.2-40.4,0.1c-4,0-9.2,0.2-13-0.4
		c-4.4-0.7-6.2-2.5-6.3-7.4c-0.1-3.7,0.9-8.4,1.4-12c1.1-7.9,2.2-15.7,3.3-23.6c2.1-15.8,4.2-31.7,6.4-47.5
		c1.1-7.9,2.1-15.8,3.3-23.7c1.6-10.4,3.3-12.2,14.3-12.6c4.3-0.2,8.8,0,13.2,0.1c6.8,0,35.8-0.3,40.1,0.3c4.5,0.6,6.3,2.4,6.4,7.2
		C1086.7-19,1085.9-14.6,1085.4-10.8z"/>
	<path class="st0" d="M1005.1,80.7c4.7,0.3,10.5,0,15.3,0c14.7,0,30.1-0.1,44.8,0c0.5,0,1.5,0.1,1.8-0.2
		c0.3-0.4,10.5-76.7,12.5-91.1c0.2-1.7,0.8-4.5,0.8-6.2l-61.5-0.1c-0.4,0.2-0.2,0-0.4,0.4l-10,72.8c-0.6,4-1.1,8.1-1.7,12.2
		L1005.1,80.7z M1005.1,80.7"/>
	<path class="st0" d="M1043.3,25.9c2.2,0,4-1.9,4.1-4.2C1045.3,21.8,1043.7,23.8,1043.3,25.9L1043.3,25.9z M1043.3,25.9"/>
	<path class="st1" d="M1044.9,20.1c2-2.1,4.4-1.8,4.4-1.8s0.1,2.2-1.9,4.1c-2.1,2-4.2,1.4-4.2,1.4S1043.1,22,1044.9,20.1z
		 M1045.8,44.7c-1.5-0.2-2.6-1.4-4.2-1.6c-1.7-0.2-3.4,0.7-4.5,0.5c-3.1-0.4-6.1-7.5-5.5-12.8c0.6-5.3,4.3-7.6,7.3-7.2
		c2,0.2,3.4,1.6,4.4,1.7c0.9,0.1,2.7-0.9,4.9-0.6c3.7,0.5,4.8,3.3,4.8,3.3s-3,1.1-3.5,4.7c-0.5,4,2.9,5.8,2.9,5.8
		S1049.1,45.1,1045.8,44.7z"/>
	<path class="st0" d="M17.1,358.4c2.9,0,9,0.4,11.4-0.9c2.4-1.2,2.9-4,1.5-6.4c-0.4-0.7-0.7-0.9-1.4-1.3c-2.2-1.3-7-1-9.7-1
		c-3.6,0-7.7,1-8.4,4.1C9.7,356.6,13.5,358.4,17.1,358.4L17.1,358.4z M17.1,358.4"/>
	<path class="st0" d="M30.8,282.9c-2.6,0.5-7.8,1.9-6.8,5.6c0.9,3.1,7.9,5.9,13.1,2.6C42.4,287.7,36.1,281.9,30.8,282.9L30.8,282.9z
		 M30.8,282.9"/>
	<path class="st0" d="M186.7,270.6c-3.1-6.2-9.6-5.2-16.1-5.4c-14.1-0.4-28.2-0.4-42.4-0.4c-6.5,0-13.2-0.5-17.5,3.7
		c-1.3,1.3-3.5,4.5-4.3,6.3c-5.4,0.8-10.6-0.4-15.8,1.2c-6.4,1.9-7.2,5.8-10.2,6.9c-6.6,2.4-26.8-3.9-28.9,3.4
		c-1.8,6.1,6.2,6,10.7,6c2.9,0,5.5-0.2,8.3-0.3c2.9-0.1,5.3,0,8.1,0c3.7,0,12.5,1.6,9.3,6.2c-2.5,3.6-9.7,2.5-14.2,2.5l-51.2,0
		c-2.6,0-5.4,0.2-6.6,1.9c-1.4,1.9-0.2,4.8,1.1,5.9c4.5,4.1,55.6-1.6,60,2.3c0.8,0.7,1,2.2,0.8,3.1c-0.3,0.5-1.1,0.9-1.9,1.3
		c-4.4,2-14.6,0.8-19.3,0.7l-59.6,0c-2.3,0-5.9-0.4-7.3,1.7c-0.6,0.8-0.4,1.6-0.8,2.1v2.3c0.6,1.1-0.3,0.7,1.3,1.6
		c2,1.1,4.3,1.4,6.5,1.7c2.7,0.3,28.2-0.3,32.7-0.3c14.6,0,29.6-0.3,44.2,0c5.1,0.1,11.2,0,16.3,0.6c1.9,0.2,2.6,0.6,3.5,2
		c2.1,3.4-1.6,5.2-4.4,5.7c-2.9,0.6-7.3,0.3-10.7,0.3l-33.2-0.1c-3.6,0-7.4,0.2-10.8,0.1c-3.5,0-7.1,0.3-7.7,3.5
		c-0.7,3.7,2.4,5.4,5.5,5.7c5.2,0.4,15.9,0,21.8,0l22-0.3c3.4-0.1,7.6-0.1,7.4,3.8c-0.1,2-0.5,2-3,2.6c-4.2,1.1-11.3,0.7-15.5,0.3
		c-3.5-0.3-7.2-0.5-10.8-0.5c-3.2,0-7.5,0.1-9.3,1.9c-2.4,2.2-2,5.5,1.1,6.9c2.7,1.2,6.5,1,9.9,0.9l10.8-0.2c2.8-0.3,8.1-0.4,10.8,0
		c4.8,0.8,3.8,4.7,3.8,6.8c-2.8,0.8-1.3,0.9-5.8,1.6c-5.6,0.8-14.8,0.1-20.8,0.1c-9.6,0-19.4-0.1-28.8-0.1c-2.8,0-5.7,0-7.7,1.4
		c-1.1,0.8-1.3,2.5-1.2,4c0.3,4.1,6.3,4.3,10.5,3.8c2-0.2,5.1-0.1,7.2-0.1l7.2-0.1c4.7,0.2,9.5,0.1,14.3,0.1
		c0.8,0.1,1.2,4.2,4.7,6.1c2.5,1.3,6.1,1.4,9.5,1.4c3.9,0,18.1-0.5,20.9,0.4c0.5,2.1-0.3,5.4,1,9.8c0.8,3,2.2,4.7,4.7,5.9
		c4.4,2,14.4,1.2,20,1.2c11.8,0,31.3,0.9,42.2,0c3.8-0.3,5.7-0.7,8.4-2.5c6.7-4.5,6.9-16.5,7.9-24.3c1.6-12.5,3.5-25.1,5.1-37.6
		c1.6-12.5,3.3-25.4,5.2-37.8c0.5-3.1,1.1-6.2,1.6-9.2C188.2,283.4,189.4,276.1,186.7,270.6z M182.6,289c-3.3,23.5-6.8,47.5-9.8,71
		c-1,7.9-1.9,16-3,23.9c-0.5,3.9-1.6,7.6-3.7,9.7c-2.7,2.7-6.1,2.6-10.8,2.7c-13.4,0.2-26.9,0.2-40.4,0.1c-4,0-9.2,0.2-13-0.4
		c-4.4-0.7-6.2-2.5-6.3-7.4c-0.1-3.7,0.9-8.4,1.4-12c1.1-7.9,2.2-15.7,3.3-23.6c2.1-15.8,4.2-31.7,6.4-47.5
		c1.1-7.9,2.1-15.8,3.3-23.7c1.6-10.4,3.3-12.2,14.3-12.6c4.3-0.2,8.8,0,13.2,0.1c6.8,0,35.8-0.3,40.1,0.3c4.5,0.6,6.3,2.4,6.4,7.2
		C183.9,280.7,183.1,285.2,182.6,289z"/>
	<path class="st0" d="M102.3,380.4c4.7,0.3,10.5,0,15.3,0c14.7,0,30.1-0.1,44.8,0c0.5,0,1.5,0.1,1.8-0.2
		c0.3-0.4,10.5-76.7,12.5-91.1c0.2-1.7,0.8-4.5,0.8-6.2l-61.5-0.1c-0.4,0.2-0.2,0-0.4,0.4l-10,72.8c-0.6,4-1.1,8.1-1.7,12.2
		L102.3,380.4z M102.3,380.4"/>
	<path class="st0" d="M157.3,276c-3.6-1.3-11.5-0.8-15.7-0.7c-1.5,0-4.7-0.5-4.2,1.5c0.3,1.2,3.8,0.9,4.8,0.9l11.4,0
		C155.7,277.8,157,278.1,157.3,276L157.3,276z M157.3,276"/>
	<path class="st0" d="M140.4,325.7c2.2,0,4-1.9,4.1-4.2C142.5,321.6,140.9,323.6,140.4,325.7L140.4,325.7z M140.4,325.7"/>
	<path class="st1" d="M142.1,319.9c2-2.1,4.4-1.8,4.4-1.8s0.1,2.2-1.9,4.1c-2.1,2-4.2,1.4-4.2,1.4S140.3,321.7,142.1,319.9z
		 M142.9,344.4c-1.5-0.2-2.6-1.4-4.2-1.6c-1.7-0.2-3.4,0.7-4.5,0.5c-3.1-0.4-6.1-7.5-5.5-12.8c0.6-5.3,4.3-7.6,7.3-7.2
		c2,0.2,3.4,1.6,4.4,1.7c0.9,0.1,2.7-0.9,4.9-0.6c3.7,0.5,4.8,3.3,4.8,3.3s-3,1.1-3.5,4.7c-0.5,4,2.9,5.8,2.9,5.8
		S146.3,344.8,142.9,344.4z"/>
	<path class="st0" d="M318,358.4c2.9,0,9,0.4,11.4-0.9c2.4-1.2,2.9-4,1.5-6.4c-0.4-0.7-0.7-0.9-1.4-1.3c-2.2-1.3-7-1-9.7-1
		c-3.6,0-7.7,1-8.4,4.1C310.6,356.6,314.5,358.4,318,358.4L318,358.4z M318,358.4"/>
	<path class="st0" d="M331.8,282.9c-2.6,0.5-7.8,1.9-6.8,5.6c0.9,3.1,7.9,5.9,13.1,2.6C343.3,287.7,337.1,281.9,331.8,282.9
		L331.8,282.9z M331.8,282.9"/>
	<path class="st0" d="M487.7,270.6c-3.1-6.2-9.6-5.2-16.1-5.4c-14.1-0.4-28.2-0.4-42.4-0.4c-6.5,0-13.2-0.5-17.5,3.7
		c-1.3,1.3-3.5,4.5-4.3,6.3c-5.4,0.8-10.6-0.4-15.8,1.2c-6.4,1.9-7.2,5.8-10.2,6.9c-6.6,2.4-26.8-3.9-28.9,3.4
		c-1.8,6.1,6.2,6,10.7,6c2.9,0,5.5-0.2,8.3-0.3c2.9-0.1,5.3,0,8.1,0c3.7,0,12.5,1.6,9.3,6.2c-2.5,3.6-9.7,2.5-14.2,2.5l-51.2,0
		c-2.6,0-5.4,0.2-6.6,1.9c-1.4,1.9-0.2,4.8,1.1,5.9c4.5,4.1,55.6-1.6,60,2.3c0.8,0.7,1,2.2,0.8,3.1c-0.3,0.5-1.1,0.9-1.9,1.3
		c-4.4,2-14.6,0.8-19.3,0.7l-59.6,0c-2.3,0-5.9-0.4-7.3,1.7c-0.6,0.8-0.4,1.6-0.8,2.1v2.3c0.6,1.1-0.3,0.7,1.3,1.6
		c2,1.1,4.3,1.4,6.5,1.7c2.7,0.3,28.2-0.3,32.7-0.3c14.6,0,29.6-0.3,44.2,0c5.1,0.1,11.2,0,16.3,0.6c1.9,0.2,2.6,0.6,3.5,2
		c2.1,3.4-1.6,5.2-4.4,5.7c-2.9,0.6-7.3,0.3-10.7,0.3l-33.2-0.1c-3.6,0-7.4,0.2-10.8,0.1c-3.5,0-7.1,0.3-7.7,3.5
		c-0.7,3.7,2.4,5.4,5.5,5.7c5.2,0.4,15.9,0,21.8,0l22-0.3c3.4-0.1,7.6-0.1,7.4,3.8c-0.1,2-0.5,2-3,2.6c-4.2,1.1-11.3,0.7-15.5,0.3
		c-3.5-0.3-7.2-0.5-10.8-0.5c-3.2,0-7.5,0.1-9.3,1.9c-2.4,2.2-2,5.5,1.1,6.9c2.7,1.2,6.5,1,9.9,0.9l10.8-0.2c2.8-0.3,8.1-0.4,10.8,0
		c4.8,0.8,3.8,4.7,3.8,6.8c-2.8,0.8-1.3,0.9-5.8,1.6c-5.6,0.8-14.8,0.1-20.8,0.1c-9.6,0-19.4-0.1-28.8-0.1c-2.8,0-5.7,0-7.7,1.4
		c-1.1,0.8-1.3,2.5-1.2,4c0.3,4.1,6.3,4.3,10.5,3.8c2-0.2,5.1-0.1,7.2-0.1l7.2-0.1c4.7,0.2,9.5,0.1,14.3,0.1
		c0.8,0.1,1.2,4.2,4.7,6.1c2.5,1.3,6.1,1.4,9.5,1.4c3.9,0,18.1-0.5,20.9,0.4c0.5,2.1-0.3,5.4,1,9.8c0.8,3,2.2,4.7,4.7,5.9
		c4.4,2,14.4,1.2,20,1.2c11.8,0,31.3,0.9,42.2,0c3.8-0.3,5.7-0.7,8.4-2.5c6.7-4.5,6.9-16.5,7.9-24.3c1.6-12.5,3.5-25.1,5.1-37.6
		c1.6-12.5,3.3-25.4,5.2-37.8c0.5-3.1,1.1-6.2,1.6-9.2C489.2,283.4,490.4,276.1,487.7,270.6z M483.5,289c-3.3,23.5-6.8,47.5-9.8,71
		c-1,7.9-1.9,16-3,23.9c-0.5,3.9-1.6,7.6-3.7,9.7c-2.7,2.7-6.1,2.6-10.8,2.7c-13.4,0.2-26.9,0.2-40.4,0.1c-4,0-9.2,0.2-13-0.4
		c-4.4-0.7-6.2-2.5-6.3-7.4c-0.1-3.7,0.9-8.4,1.4-12c1.1-7.9,2.2-15.7,3.3-23.6c2.1-15.8,4.2-31.7,6.4-47.5
		c1.1-7.9,2.1-15.8,3.3-23.7c1.6-10.4,3.3-12.2,14.3-12.6c4.3-0.2,8.8,0,13.2,0.1c6.8,0,35.8-0.3,40.1,0.3c4.5,0.6,6.3,2.4,6.4,7.2
		C484.9,280.7,484,285.2,483.5,289z"/>
	<path class="st0" d="M403.2,380.4c4.7,0.3,10.5,0,15.3,0c14.7,0,30.1-0.1,44.8,0c0.5,0,1.5,0.1,1.8-0.2
		c0.3-0.4,10.5-76.7,12.5-91.1c0.2-1.7,0.8-4.5,0.8-6.2l-61.5-0.1c-0.4,0.2-0.2,0-0.4,0.4l-10,72.8c-0.6,4-1.1,8.1-1.7,12.2
		L403.2,380.4z M403.2,380.4"/>
	<path class="st0" d="M458.3,276c-3.6-1.3-11.5-0.8-15.7-0.7c-1.5,0-4.7-0.5-4.2,1.5c0.3,1.2,3.8,0.9,4.8,0.9l11.4,0
		C456.6,277.8,457.9,278.1,458.3,276L458.3,276z M458.3,276"/>
	<path class="st0" d="M441.4,325.7c2.2,0,4-1.9,4.1-4.2C443.5,321.6,441.8,323.6,441.4,325.7L441.4,325.7z M441.4,325.7"/>
	<path class="st1" d="M443,319.9c2-2.1,4.4-1.8,4.4-1.8s0.1,2.2-1.9,4.1c-2.1,2-4.2,1.4-4.2,1.4S441.2,321.7,443,319.9z
		 M443.9,344.4c-1.5-0.2-2.6-1.4-4.2-1.6c-1.7-0.2-3.4,0.7-4.5,0.5c-3.1-0.4-6.1-7.5-5.5-12.8c0.6-5.3,4.3-7.6,7.3-7.2
		c2,0.2,3.4,1.6,4.4,1.7c0.9,0.1,2.7-0.9,4.9-0.6c3.7,0.5,4.8,3.3,4.8,3.3s-3,1.1-3.5,4.7c-0.5,4,2.9,5.8,2.9,5.8
		S447.2,344.8,443.9,344.4z"/>
	<path class="st0" d="M618.9,358.4c2.9,0,9,0.4,11.4-0.9c2.4-1.2,2.9-4,1.5-6.4c-0.4-0.7-0.7-0.9-1.4-1.3c-2.2-1.3-7-1-9.7-1
		c-3.6,0-7.7,1-8.4,4.1C611.6,356.6,615.4,358.4,618.9,358.4L618.9,358.4z M618.9,358.4"/>
	<path class="st0" d="M632.7,282.9c-2.6,0.5-7.8,1.9-6.8,5.6c0.9,3.1,7.9,5.9,13.1,2.6C644.3,287.7,638,281.9,632.7,282.9
		L632.7,282.9z M632.7,282.9"/>
	<path class="st0" d="M788.6,270.6c-3.1-6.2-9.6-5.2-16.1-5.4c-14.1-0.4-28.2-0.4-42.4-0.4c-6.5,0-13.2-0.5-17.5,3.7
		c-1.3,1.3-3.5,4.5-4.3,6.3c-5.4,0.8-10.6-0.4-15.8,1.2c-6.4,1.9-7.2,5.8-10.2,6.9c-6.6,2.4-26.8-3.9-28.9,3.4
		c-1.8,6.1,6.2,6,10.7,6c2.9,0,5.5-0.2,8.3-0.3c2.9-0.1,5.3,0,8.1,0c3.7,0,12.5,1.6,9.3,6.2c-2.5,3.6-9.7,2.5-14.2,2.5l-51.2,0
		c-2.6,0-5.4,0.2-6.6,1.9c-1.4,1.9-0.2,4.8,1.1,5.9c4.5,4.1,55.6-1.6,60,2.3c0.8,0.7,1,2.2,0.8,3.1c-0.3,0.5-1.1,0.9-1.9,1.3
		c-4.4,2-14.6,0.8-19.3,0.7l-59.6,0c-2.3,0-5.9-0.4-7.3,1.7c-0.6,0.8-0.4,1.6-0.8,2.1v2.3c0.6,1.1-0.3,0.7,1.3,1.6
		c2,1.1,4.3,1.4,6.5,1.7c2.7,0.3,28.2-0.3,32.7-0.3c14.6,0,29.6-0.3,44.2,0c5.1,0.1,11.2,0,16.3,0.6c1.9,0.2,2.6,0.6,3.5,2
		c2.1,3.4-1.6,5.2-4.4,5.7c-2.9,0.6-7.3,0.3-10.7,0.3l-33.2-0.1c-3.6,0-7.4,0.2-10.8,0.1c-3.5,0-7.1,0.3-7.7,3.5
		c-0.7,3.7,2.4,5.4,5.5,5.7c5.2,0.4,15.9,0,21.8,0l22-0.3c3.4-0.1,7.6-0.1,7.4,3.8c-0.1,2-0.5,2-3,2.6c-4.2,1.1-11.3,0.7-15.5,0.3
		c-3.5-0.3-7.2-0.5-10.8-0.5c-3.2,0-7.5,0.1-9.3,1.9c-2.4,2.2-2,5.5,1.1,6.9c2.7,1.2,6.5,1,9.9,0.9l10.8-0.2c2.8-0.3,8.1-0.4,10.8,0
		c4.8,0.8,3.8,4.7,3.8,6.8c-2.8,0.8-1.3,0.9-5.8,1.6c-5.6,0.8-14.8,0.1-20.8,0.1c-9.6,0-19.4-0.1-28.8-0.1c-2.8,0-5.7,0-7.7,1.4
		c-1.1,0.8-1.3,2.5-1.2,4c0.3,4.1,6.3,4.3,10.5,3.8c2-0.2,5.1-0.1,7.2-0.1l7.2-0.1c4.7,0.2,9.5,0.1,14.3,0.1
		c0.8,0.1,1.2,4.2,4.7,6.1c2.5,1.3,6.1,1.4,9.5,1.4c3.9,0,18.1-0.5,20.9,0.4c0.5,2.1-0.3,5.4,1,9.8c0.8,3,2.2,4.7,4.7,5.9
		c4.4,2,14.4,1.2,20,1.2c11.8,0,31.3,0.9,42.2,0c3.8-0.3,5.7-0.7,8.4-2.5c6.7-4.5,6.9-16.5,7.9-24.3c1.6-12.5,3.5-25.1,5.1-37.6
		c1.6-12.5,3.3-25.4,5.2-37.8c0.5-3.1,1.1-6.2,1.6-9.2C790.1,283.4,791.3,276.1,788.6,270.6z M784.5,289c-3.3,23.5-6.8,47.5-9.8,71
		c-1,7.9-1.9,16-3,23.9c-0.5,3.9-1.6,7.6-3.7,9.7c-2.7,2.7-6.1,2.6-10.8,2.7c-13.4,0.2-26.9,0.2-40.4,0.1c-4,0-9.2,0.2-13-0.4
		c-4.4-0.7-6.2-2.5-6.3-7.4c-0.1-3.7,0.9-8.4,1.4-12c1.1-7.9,2.2-15.7,3.3-23.6c2.1-15.8,4.2-31.7,6.4-47.5
		c1.1-7.9,2.1-15.8,3.3-23.7c1.6-10.4,3.3-12.2,14.3-12.6c4.3-0.2,8.8,0,13.2,0.1c6.8,0,35.8-0.3,40.1,0.3c4.5,0.6,6.3,2.4,6.4,7.2
		C785.8,280.7,785,285.2,784.5,289z"/>
	<path class="st0" d="M704.2,380.4c4.7,0.3,10.5,0,15.3,0c14.7,0,30.1-0.1,44.8,0c0.5,0,1.5,0.1,1.8-0.2
		c0.3-0.4,10.5-76.7,12.5-91.1c0.2-1.7,0.8-4.5,0.8-6.2l-61.5-0.1c-0.4,0.2-0.2,0-0.4,0.4l-10,72.8c-0.6,4-1.1,8.1-1.7,12.2
		L704.2,380.4z M704.2,380.4"/>
	<path class="st0" d="M759.2,276c-3.6-1.3-11.5-0.8-15.7-0.7c-1.5,0-4.7-0.5-4.2,1.5c0.3,1.2,3.8,0.9,4.8,0.9l11.4,0
		C757.6,277.8,758.9,278.1,759.2,276L759.2,276z M759.2,276"/>
	<path class="st0" d="M742.3,325.7c2.2,0,4-1.9,4.1-4.2C744.4,321.6,742.8,323.6,742.3,325.7L742.3,325.7z M742.3,325.7"/>
	<path class="st1" d="M744,319.9c2-2.1,4.4-1.8,4.4-1.8s0.1,2.2-1.9,4.1c-2.1,2-4.2,1.4-4.2,1.4S742.2,321.7,744,319.9z
		 M744.8,344.4c-1.5-0.2-2.6-1.4-4.2-1.6c-1.7-0.2-3.4,0.7-4.5,0.5c-3.1-0.4-6.1-7.5-5.5-12.8c0.6-5.3,4.3-7.6,7.3-7.2
		c2,0.2,3.4,1.6,4.4,1.7c0.9,0.1,2.7-0.9,4.9-0.6c3.7,0.5,4.8,3.3,4.8,3.3s-3,1.1-3.5,4.7c-0.5,4,2.9,5.8,2.9,5.8
		S748.2,344.8,744.8,344.4z"/>
	<path class="st0" d="M919.9,358.4c2.9,0,9,0.4,11.4-0.9c2.4-1.2,2.9-4,1.5-6.4c-0.4-0.7-0.7-0.9-1.4-1.3c-2.2-1.3-7-1-9.7-1
		c-3.6,0-7.7,1-8.4,4.1C912.5,356.6,916.4,358.4,919.9,358.4L919.9,358.4z M919.9,358.4"/>
	<path class="st0" d="M933.7,282.9c-2.6,0.5-7.8,1.9-6.8,5.6c0.9,3.1,7.9,5.9,13.1,2.6C945.2,287.7,939,281.9,933.7,282.9
		L933.7,282.9z M933.7,282.9"/>
	<path class="st0" d="M1089.6,270.6c-3.1-6.2-9.6-5.2-16.1-5.4c-14.1-0.4-28.2-0.4-42.4-0.4c-6.5,0-13.2-0.5-17.5,3.7
		c-1.3,1.3-3.5,4.5-4.3,6.3c-5.4,0.8-10.6-0.4-15.8,1.2c-6.4,1.9-7.2,5.8-10.2,6.9c-6.6,2.4-26.8-3.9-28.9,3.4
		c-1.8,6.1,6.2,6,10.7,6c2.9,0,5.5-0.2,8.3-0.3c2.9-0.1,5.3,0,8.1,0c3.7,0,12.5,1.6,9.3,6.2c-2.5,3.6-9.7,2.5-14.2,2.5l-51.2,0
		c-2.6,0-5.4,0.2-6.6,1.9c-1.4,1.9-0.2,4.8,1.1,5.9c4.5,4.1,55.6-1.6,60,2.3c0.8,0.7,1,2.2,0.8,3.1c-0.3,0.5-1.1,0.9-1.9,1.3
		c-4.4,2-14.6,0.8-19.3,0.7l-59.6,0c-2.3,0-5.9-0.4-7.3,1.7c-0.6,0.8-0.4,1.6-0.8,2.1v2.3c0.6,1.1-0.3,0.7,1.3,1.6
		c2,1.1,4.3,1.4,6.5,1.7c2.7,0.3,28.2-0.3,32.7-0.3c14.6,0,29.6-0.3,44.2,0c5.1,0.1,11.2,0,16.3,0.6c1.9,0.2,2.6,0.6,3.5,2
		c2.1,3.4-1.6,5.2-4.4,5.7c-2.9,0.6-7.3,0.3-10.7,0.3l-33.2-0.1c-3.6,0-7.4,0.2-10.8,0.1c-3.5,0-7.1,0.3-7.7,3.5
		c-0.7,3.7,2.4,5.4,5.5,5.7c5.2,0.4,15.9,0,21.8,0l22-0.3c3.4-0.1,7.6-0.1,7.4,3.8c-0.1,2-0.5,2-3,2.6c-4.2,1.1-11.3,0.7-15.5,0.3
		c-3.5-0.3-7.2-0.5-10.8-0.5c-3.2,0-7.5,0.1-9.3,1.9c-2.4,2.2-2,5.5,1.1,6.9c2.7,1.2,6.5,1,9.9,0.9l10.8-0.2c2.8-0.3,8.1-0.4,10.8,0
		c4.8,0.8,3.8,4.7,3.8,6.8c-2.8,0.8-1.3,0.9-5.8,1.6c-5.6,0.8-14.8,0.1-20.8,0.1c-9.6,0-19.4-0.1-28.8-0.1c-2.8,0-5.7,0-7.7,1.4
		c-1.1,0.8-1.3,2.5-1.2,4c0.3,4.1,6.3,4.3,10.5,3.8c2-0.2,5.1-0.1,7.2-0.1l7.2-0.1c4.7,0.2,9.5,0.1,14.3,0.1
		c0.8,0.1,1.2,4.2,4.7,6.1c2.5,1.3,6.1,1.4,9.5,1.4c3.9,0,18.1-0.5,20.9,0.4c0.5,2.1-0.3,5.4,1,9.8c0.8,3,2.2,4.7,4.7,5.9
		c4.4,2,14.4,1.2,20,1.2c11.8,0,31.3,0.9,42.2,0c3.8-0.3,5.7-0.7,8.4-2.5c6.7-4.5,6.9-16.5,7.9-24.3c1.6-12.5,3.5-25.1,5.1-37.6
		c1.6-12.5,3.3-25.4,5.2-37.8c0.5-3.1,1.1-6.2,1.6-9.2C1091,283.4,1092.3,276.1,1089.6,270.6z M1085.4,289
		c-3.3,23.5-6.8,47.5-9.8,71c-1,7.9-1.9,16-3,23.9c-0.5,3.9-1.6,7.6-3.7,9.7c-2.7,2.7-6.1,2.6-10.8,2.7c-13.4,0.2-26.9,0.2-40.4,0.1
		c-4,0-9.2,0.2-13-0.4c-4.4-0.7-6.2-2.5-6.3-7.4c-0.1-3.7,0.9-8.4,1.4-12c1.1-7.9,2.2-15.7,3.3-23.6c2.1-15.8,4.2-31.7,6.4-47.5
		c1.1-7.9,2.1-15.8,3.3-23.7c1.6-10.4,3.3-12.2,14.3-12.6c4.3-0.2,8.8,0,13.2,0.1c6.8,0,35.8-0.3,40.1,0.3c4.5,0.6,6.3,2.4,6.4,7.2
		C1086.7,280.7,1085.9,285.2,1085.4,289z"/>
	<path class="st0" d="M1005.1,380.4c4.7,0.3,10.5,0,15.3,0c14.7,0,30.1-0.1,44.8,0c0.5,0,1.5,0.1,1.8-0.2
		c0.3-0.4,10.5-76.7,12.5-91.1c0.2-1.7,0.8-4.5,0.8-6.2l-61.5-0.1c-0.4,0.2-0.2,0-0.4,0.4l-10,72.8c-0.6,4-1.1,8.1-1.7,12.2
		L1005.1,380.4z M1005.1,380.4"/>
	<path class="st0" d="M1060.2,276c-3.6-1.3-11.5-0.8-15.7-0.7c-1.5,0-4.7-0.5-4.2,1.5c0.3,1.2,3.8,0.9,4.8,0.9l11.4,0
		C1058.5,277.8,1059.8,278.1,1060.2,276L1060.2,276z M1060.2,276"/>
	<path class="st0" d="M1043.3,325.7c2.2,0,4-1.9,4.1-4.2C1045.3,321.6,1043.7,323.6,1043.3,325.7L1043.3,325.7z M1043.3,325.7"/>
	<path class="st1" d="M1044.9,319.9c2-2.1,4.4-1.8,4.4-1.8s0.1,2.2-1.9,4.1c-2.1,2-4.2,1.4-4.2,1.4S1043.1,321.7,1044.9,319.9z
		 M1045.8,344.4c-1.5-0.2-2.6-1.4-4.2-1.6c-1.7-0.2-3.4,0.7-4.5,0.5c-3.1-0.4-6.1-7.5-5.5-12.8c0.6-5.3,4.3-7.6,7.3-7.2
		c2,0.2,3.4,1.6,4.4,1.7c0.9,0.1,2.7-0.9,4.9-0.6c3.7,0.5,4.8,3.3,4.8,3.3s-3,1.1-3.5,4.7c-0.5,4,2.9,5.8,2.9,5.8
		S1049.1,344.8,1045.8,344.4z"/>
	<path class="st0" d="M17.1,658.1c2.9,0,9,0.4,11.4-0.9c2.4-1.2,2.9-4,1.5-6.4c-0.4-0.7-0.7-0.9-1.4-1.3c-2.2-1.3-7-1-9.7-1
		c-3.6,0-7.7,1-8.4,4.1C9.7,656.4,13.5,658.1,17.1,658.1L17.1,658.1z M17.1,658.1"/>
	<path class="st0" d="M30.8,582.6c-2.6,0.5-7.8,1.9-6.8,5.6c0.9,3.1,7.9,5.9,13.1,2.6C42.4,587.5,36.1,581.7,30.8,582.6L30.8,582.6z
		 M30.8,582.6"/>
	<path class="st0" d="M186.7,570.4c-3.1-6.2-9.6-5.2-16.1-5.4c-14.1-0.4-28.2-0.4-42.4-0.4c-6.5,0-13.2-0.5-17.5,3.7
		c-1.3,1.3-3.5,4.5-4.3,6.3c-5.4,0.8-10.6-0.4-15.8,1.2c-6.4,1.9-7.2,5.8-10.2,6.9c-6.6,2.4-26.8-3.9-28.9,3.4
		c-1.8,6.1,6.2,6,10.7,6c2.9,0,5.5-0.2,8.3-0.3c2.9-0.1,5.3,0,8.1,0c3.7,0,12.5,1.6,9.3,6.2c-2.5,3.6-9.7,2.5-14.2,2.5l-51.2,0
		c-2.6,0-5.4,0.2-6.6,1.9c-1.4,1.9-0.2,4.8,1.1,5.9c4.5,4.1,55.6-1.6,60,2.3c0.8,0.7,1,2.2,0.8,3.1c-0.3,0.5-1.1,0.9-1.9,1.3
		c-4.4,2-14.6,0.8-19.3,0.7l-59.6,0c-2.3,0-5.9-0.4-7.3,1.7c-0.6,0.8-0.4,1.6-0.8,2.1v2.3c0.6,1.1-0.3,0.7,1.3,1.6
		c2,1.1,4.3,1.4,6.5,1.7c2.7,0.3,28.2-0.3,32.7-0.3c14.6,0,29.6-0.3,44.2,0c5.1,0.1,11.2,0,16.3,0.6c1.9,0.2,2.6,0.6,3.5,2
		c2.1,3.4-1.6,5.2-4.4,5.7c-2.9,0.6-7.3,0.3-10.7,0.3l-33.2-0.1c-3.6,0-7.4,0.2-10.8,0.1c-3.5,0-7.1,0.3-7.7,3.5
		c-0.7,3.7,2.4,5.4,5.5,5.7c5.2,0.4,15.9,0,21.8,0l22-0.3c3.4-0.1,7.6-0.1,7.4,3.8c-0.1,2-0.5,2-3,2.6c-4.2,1.1-11.3,0.7-15.5,0.3
		c-3.5-0.3-7.2-0.5-10.8-0.5c-3.2,0-7.5,0.1-9.3,1.9c-2.4,2.2-2,5.5,1.1,6.9c2.7,1.2,6.5,1,9.9,0.9l10.8-0.2c2.8-0.3,8.1-0.4,10.8,0
		c4.8,0.8,3.8,4.7,3.8,6.8c-2.8,0.8-1.3,0.9-5.8,1.6c-5.6,0.8-14.8,0.1-20.8,0.1c-9.6,0-19.4-0.1-28.8-0.1c-2.8,0-5.7,0-7.7,1.4
		c-1.1,0.8-1.3,2.5-1.2,4c0.3,4.1,6.3,4.3,10.5,3.8c2-0.2,5.1-0.1,7.2-0.1l7.2-0.1c4.7,0.2,9.5,0.1,14.3,0.1
		c0.8,0.1,1.2,4.2,4.7,6.1c2.5,1.3,6.1,1.4,9.5,1.4c3.9,0,18.1-0.5,20.9,0.4c0.5,2.1-0.3,5.4,1,9.8c0.8,3,2.2,4.7,4.7,5.9
		c4.4,2,14.4,1.2,20,1.2c11.8,0,31.3,0.9,42.2,0c3.8-0.3,5.7-0.7,8.4-2.5c6.7-4.5,6.9-16.5,7.9-24.3c1.6-12.5,3.5-25.1,5.1-37.6
		c1.6-12.5,3.3-25.4,5.2-37.8c0.5-3.1,1.1-6.2,1.6-9.2C188.2,583.2,189.4,575.8,186.7,570.4z M182.6,588.7
		c-3.3,23.5-6.8,47.5-9.8,71c-1,7.9-1.9,16-3,23.9c-0.5,3.9-1.6,7.6-3.7,9.7c-2.7,2.7-6.1,2.6-10.8,2.7c-13.4,0.2-26.9,0.2-40.4,0.1
		c-4,0-9.2,0.2-13-0.4c-4.4-0.7-6.2-2.5-6.3-7.4c-0.1-3.7,0.9-8.4,1.4-12c1.1-7.9,2.2-15.7,3.3-23.6c2.1-15.8,4.2-31.7,6.4-47.5
		c1.1-7.9,2.1-15.8,3.3-23.7c1.6-10.4,3.3-12.2,14.3-12.6c4.3-0.2,8.8,0,13.2,0.1c6.8,0,35.8-0.3,40.1,0.3c4.5,0.6,6.3,2.4,6.4,7.2
		C183.9,580.5,183.1,585,182.6,588.7z"/>
	<path class="st0" d="M102.3,680.2c4.7,0.3,10.5,0,15.3,0c14.7,0,30.1-0.1,44.8,0c0.5,0,1.5,0.1,1.8-0.2
		c0.3-0.4,10.5-76.7,12.5-91.1c0.2-1.7,0.8-4.5,0.8-6.2l-61.5-0.1c-0.4,0.2-0.2,0-0.4,0.4l-10,72.8c-0.6,4-1.1,8.1-1.7,12.2
		L102.3,680.2z M102.3,680.2"/>
	<path class="st0" d="M157.3,575.7c-3.6-1.3-11.5-0.8-15.7-0.7c-1.5,0-4.7-0.5-4.2,1.5c0.3,1.2,3.8,0.9,4.8,0.9l11.4,0
		C155.7,577.5,157,577.8,157.3,575.7L157.3,575.7z M157.3,575.7"/>
	<path class="st0" d="M140.4,625.4c2.2,0,4-1.9,4.1-4.2C142.5,621.4,140.9,623.3,140.4,625.4L140.4,625.4z M140.4,625.4"/>
	<path class="st1" d="M142.1,619.6c2-2.1,4.4-1.8,4.4-1.8s0.1,2.2-1.9,4.1c-2.1,2-4.2,1.4-4.2,1.4S140.3,621.5,142.1,619.6z
		 M142.9,644.2c-1.5-0.2-2.6-1.4-4.2-1.6c-1.7-0.2-3.4,0.7-4.5,0.5c-3.1-0.4-6.1-7.5-5.5-12.8c0.6-5.3,4.3-7.6,7.3-7.2
		c2,0.2,3.4,1.6,4.4,1.7c0.9,0.1,2.7-0.9,4.9-0.6c3.7,0.5,4.8,3.3,4.8,3.3s-3,1.1-3.5,4.7c-0.5,4,2.9,5.8,2.9,5.8
		S146.3,644.6,142.9,644.2z"/>
	<path class="st0" d="M318,658.1c2.9,0,9,0.4,11.4-0.9c2.4-1.2,2.9-4,1.5-6.4c-0.4-0.7-0.7-0.9-1.4-1.3c-2.2-1.3-7-1-9.7-1
		c-3.6,0-7.7,1-8.4,4.1C310.6,656.4,314.5,658.1,318,658.1L318,658.1z M318,658.1"/>
	<path class="st0" d="M331.8,582.6c-2.6,0.5-7.8,1.9-6.8,5.6c0.9,3.1,7.9,5.9,13.1,2.6C343.3,587.5,337.1,581.7,331.8,582.6
		L331.8,582.6z M331.8,582.6"/>
	<path class="st0" d="M487.7,570.4c-3.1-6.2-9.6-5.2-16.1-5.4c-14.1-0.4-28.2-0.4-42.4-0.4c-6.5,0-13.2-0.5-17.5,3.7
		c-1.3,1.3-3.5,4.5-4.3,6.3c-5.4,0.8-10.6-0.4-15.8,1.2c-6.4,1.9-7.2,5.8-10.2,6.9c-6.6,2.4-26.8-3.9-28.9,3.4
		c-1.8,6.1,6.2,6,10.7,6c2.9,0,5.5-0.2,8.3-0.3c2.9-0.1,5.3,0,8.1,0c3.7,0,12.5,1.6,9.3,6.2c-2.5,3.6-9.7,2.5-14.2,2.5l-51.2,0
		c-2.6,0-5.4,0.2-6.6,1.9c-1.4,1.9-0.2,4.8,1.1,5.9c4.5,4.1,55.6-1.6,60,2.3c0.8,0.7,1,2.2,0.8,3.1c-0.3,0.5-1.1,0.9-1.9,1.3
		c-4.4,2-14.6,0.8-19.3,0.7l-59.6,0c-2.3,0-5.9-0.4-7.3,1.7c-0.6,0.8-0.4,1.6-0.8,2.1v2.3c0.6,1.1-0.3,0.7,1.3,1.6
		c2,1.1,4.3,1.4,6.5,1.7c2.7,0.3,28.2-0.3,32.7-0.3c14.6,0,29.6-0.3,44.2,0c5.1,0.1,11.2,0,16.3,0.6c1.9,0.2,2.6,0.6,3.5,2
		c2.1,3.4-1.6,5.2-4.4,5.7c-2.9,0.6-7.3,0.3-10.7,0.3l-33.2-0.1c-3.6,0-7.4,0.2-10.8,0.1c-3.5,0-7.1,0.3-7.7,3.5
		c-0.7,3.7,2.4,5.4,5.5,5.7c5.2,0.4,15.9,0,21.8,0l22-0.3c3.4-0.1,7.6-0.1,7.4,3.8c-0.1,2-0.5,2-3,2.6c-4.2,1.1-11.3,0.7-15.5,0.3
		c-3.5-0.3-7.2-0.5-10.8-0.5c-3.2,0-7.5,0.1-9.3,1.9c-2.4,2.2-2,5.5,1.1,6.9c2.7,1.2,6.5,1,9.9,0.9l10.8-0.2c2.8-0.3,8.1-0.4,10.8,0
		c4.8,0.8,3.8,4.7,3.8,6.8c-2.8,0.8-1.3,0.9-5.8,1.6c-5.6,0.8-14.8,0.1-20.8,0.1c-9.6,0-19.4-0.1-28.8-0.1c-2.8,0-5.7,0-7.7,1.4
		c-1.1,0.8-1.3,2.5-1.2,4c0.3,4.1,6.3,4.3,10.5,3.8c2-0.2,5.1-0.1,7.2-0.1l7.2-0.1c4.7,0.2,9.5,0.1,14.3,0.1
		c0.8,0.1,1.2,4.2,4.7,6.1c2.5,1.3,6.1,1.4,9.5,1.4c3.9,0,18.1-0.5,20.9,0.4c0.5,2.1-0.3,5.4,1,9.8c0.8,3,2.2,4.7,4.7,5.9
		c4.4,2,14.4,1.2,20,1.2c11.8,0,31.3,0.9,42.2,0c3.8-0.3,5.7-0.7,8.4-2.5c6.7-4.5,6.9-16.5,7.9-24.3c1.6-12.5,3.5-25.1,5.1-37.6
		c1.6-12.5,3.3-25.4,5.2-37.8c0.5-3.1,1.1-6.2,1.6-9.2C489.2,583.2,490.4,575.8,487.7,570.4z M483.5,588.7
		c-3.3,23.5-6.8,47.5-9.8,71c-1,7.9-1.9,16-3,23.9c-0.5,3.9-1.6,7.6-3.7,9.7c-2.7,2.7-6.1,2.6-10.8,2.7c-13.4,0.2-26.9,0.2-40.4,0.1
		c-4,0-9.2,0.2-13-0.4c-4.4-0.7-6.2-2.5-6.3-7.4c-0.1-3.7,0.9-8.4,1.4-12c1.1-7.9,2.2-15.7,3.3-23.6c2.1-15.8,4.2-31.7,6.4-47.5
		c1.1-7.9,2.1-15.8,3.3-23.7c1.6-10.4,3.3-12.2,14.3-12.6c4.3-0.2,8.8,0,13.2,0.1c6.8,0,35.8-0.3,40.1,0.3c4.5,0.6,6.3,2.4,6.4,7.2
		C484.9,580.5,484,585,483.5,588.7z"/>
	<path class="st0" d="M403.2,680.2c4.7,0.3,10.5,0,15.3,0c14.7,0,30.1-0.1,44.8,0c0.5,0,1.5,0.1,1.8-0.2
		c0.3-0.4,10.5-76.7,12.5-91.1c0.2-1.7,0.8-4.5,0.8-6.2l-61.5-0.1c-0.4,0.2-0.2,0-0.4,0.4l-10,72.8c-0.6,4-1.1,8.1-1.7,12.2
		L403.2,680.2z M403.2,680.2"/>
	<path class="st0" d="M458.3,575.7c-3.6-1.3-11.5-0.8-15.7-0.7c-1.5,0-4.7-0.5-4.2,1.5c0.3,1.2,3.8,0.9,4.8,0.9l11.4,0
		C456.6,577.5,457.9,577.8,458.3,575.7L458.3,575.7z M458.3,575.7"/>
	<path class="st0" d="M441.4,625.4c2.2,0,4-1.9,4.1-4.2C443.5,621.4,441.8,623.3,441.4,625.4L441.4,625.4z M441.4,625.4"/>
	<path class="st1" d="M443,619.6c2-2.1,4.4-1.8,4.4-1.8s0.1,2.2-1.9,4.1c-2.1,2-4.2,1.4-4.2,1.4S441.2,621.5,443,619.6z
		 M443.9,644.2c-1.5-0.2-2.6-1.4-4.2-1.6c-1.7-0.2-3.4,0.7-4.5,0.5c-3.1-0.4-6.1-7.5-5.5-12.8c0.6-5.3,4.3-7.6,7.3-7.2
		c2,0.2,3.4,1.6,4.4,1.7c0.9,0.1,2.7-0.9,4.9-0.6c3.7,0.5,4.8,3.3,4.8,3.3s-3,1.1-3.5,4.7c-0.5,4,2.9,5.8,2.9,5.8
		S447.2,644.6,443.9,644.2z"/>
	<path class="st0" d="M618.9,658.1c2.9,0,9,0.4,11.4-0.9c2.4-1.2,2.9-4,1.5-6.4c-0.4-0.7-0.7-0.9-1.4-1.3c-2.2-1.3-7-1-9.7-1
		c-3.6,0-7.7,1-8.4,4.1C611.6,656.4,615.4,658.1,618.9,658.1L618.9,658.1z M618.9,658.1"/>
	<path class="st0" d="M632.7,582.6c-2.6,0.5-7.8,1.9-6.8,5.6c0.9,3.1,7.9,5.9,13.1,2.6C644.3,587.5,638,581.7,632.7,582.6
		L632.7,582.6z M632.7,582.6"/>
	<path class="st0" d="M788.6,570.4c-3.1-6.2-9.6-5.2-16.1-5.4c-14.1-0.4-28.2-0.4-42.4-0.4c-6.5,0-13.2-0.5-17.5,3.7
		c-1.3,1.3-3.5,4.5-4.3,6.3c-5.4,0.8-10.6-0.4-15.8,1.2c-6.4,1.9-7.2,5.8-10.2,6.9c-6.6,2.4-26.8-3.9-28.9,3.4
		c-1.8,6.1,6.2,6,10.7,6c2.9,0,5.5-0.2,8.3-0.3c2.9-0.1,5.3,0,8.1,0c3.7,0,12.5,1.6,9.3,6.2c-2.5,3.6-9.7,2.5-14.2,2.5l-51.2,0
		c-2.6,0-5.4,0.2-6.6,1.9c-1.4,1.9-0.2,4.8,1.1,5.9c4.5,4.1,55.6-1.6,60,2.3c0.8,0.7,1,2.2,0.8,3.1c-0.3,0.5-1.1,0.9-1.9,1.3
		c-4.4,2-14.6,0.8-19.3,0.7l-59.6,0c-2.3,0-5.9-0.4-7.3,1.7c-0.6,0.8-0.4,1.6-0.8,2.1v2.3c0.6,1.1-0.3,0.7,1.3,1.6
		c2,1.1,4.3,1.4,6.5,1.7c2.7,0.3,28.2-0.3,32.7-0.3c14.6,0,29.6-0.3,44.2,0c5.1,0.1,11.2,0,16.3,0.6c1.9,0.2,2.6,0.6,3.5,2
		c2.1,3.4-1.6,5.2-4.4,5.7c-2.9,0.6-7.3,0.3-10.7,0.3l-33.2-0.1c-3.6,0-7.4,0.2-10.8,0.1c-3.5,0-7.1,0.3-7.7,3.5
		c-0.7,3.7,2.4,5.4,5.5,5.7c5.2,0.4,15.9,0,21.8,0l22-0.3c3.4-0.1,7.6-0.1,7.4,3.8c-0.1,2-0.5,2-3,2.6c-4.2,1.1-11.3,0.7-15.5,0.3
		c-3.5-0.3-7.2-0.5-10.8-0.5c-3.2,0-7.5,0.1-9.3,1.9c-2.4,2.2-2,5.5,1.1,6.9c2.7,1.2,6.5,1,9.9,0.9l10.8-0.2c2.8-0.3,8.1-0.4,10.8,0
		c4.8,0.8,3.8,4.7,3.8,6.8c-2.8,0.8-1.3,0.9-5.8,1.6c-5.6,0.8-14.8,0.1-20.8,0.1c-9.6,0-19.4-0.1-28.8-0.1c-2.8,0-5.7,0-7.7,1.4
		c-1.1,0.8-1.3,2.5-1.2,4c0.3,4.1,6.3,4.3,10.5,3.8c2-0.2,5.1-0.1,7.2-0.1l7.2-0.1c4.7,0.2,9.5,0.1,14.3,0.1
		c0.8,0.1,1.2,4.2,4.7,6.1c2.5,1.3,6.1,1.4,9.5,1.4c3.9,0,18.1-0.5,20.9,0.4c0.5,2.1-0.3,5.4,1,9.8c0.8,3,2.2,4.7,4.7,5.9
		c4.4,2,14.4,1.2,20,1.2c11.8,0,31.3,0.9,42.2,0c3.8-0.3,5.7-0.7,8.4-2.5c6.7-4.5,6.9-16.5,7.9-24.3c1.6-12.5,3.5-25.1,5.1-37.6
		c1.6-12.5,3.3-25.4,5.2-37.8c0.5-3.1,1.1-6.2,1.6-9.2C790.1,583.2,791.3,575.8,788.6,570.4z M784.5,588.7
		c-3.3,23.5-6.8,47.5-9.8,71c-1,7.9-1.9,16-3,23.9c-0.5,3.9-1.6,7.6-3.7,9.7c-2.7,2.7-6.1,2.6-10.8,2.7c-13.4,0.2-26.9,0.2-40.4,0.1
		c-4,0-9.2,0.2-13-0.4c-4.4-0.7-6.2-2.5-6.3-7.4c-0.1-3.7,0.9-8.4,1.4-12c1.1-7.9,2.2-15.7,3.3-23.6c2.1-15.8,4.2-31.7,6.4-47.5
		c1.1-7.9,2.1-15.8,3.3-23.7c1.6-10.4,3.3-12.2,14.3-12.6c4.3-0.2,8.8,0,13.2,0.1c6.8,0,35.8-0.3,40.1,0.3c4.5,0.6,6.3,2.4,6.4,7.2
		C785.8,580.5,785,585,784.5,588.7z"/>
	<path class="st0" d="M704.2,680.2c4.7,0.3,10.5,0,15.3,0c14.7,0,30.1-0.1,44.8,0c0.5,0,1.5,0.1,1.8-0.2
		c0.3-0.4,10.5-76.7,12.5-91.1c0.2-1.7,0.8-4.5,0.8-6.2l-61.5-0.1c-0.4,0.2-0.2,0-0.4,0.4l-10,72.8c-0.6,4-1.1,8.1-1.7,12.2
		L704.2,680.2z M704.2,680.2"/>
	<path class="st0" d="M759.2,575.7c-3.6-1.3-11.5-0.8-15.7-0.7c-1.5,0-4.7-0.5-4.2,1.5c0.3,1.2,3.8,0.9,4.8,0.9l11.4,0
		C757.6,577.5,758.9,577.8,759.2,575.7L759.2,575.7z M759.2,575.7"/>
	<path class="st0" d="M742.3,625.4c2.2,0,4-1.9,4.1-4.2C744.4,621.4,742.8,623.3,742.3,625.4L742.3,625.4z M742.3,625.4"/>
	<path class="st1" d="M744,619.6c2-2.1,4.4-1.8,4.4-1.8s0.1,2.2-1.9,4.1c-2.1,2-4.2,1.4-4.2,1.4S742.2,621.5,744,619.6z
		 M744.8,644.2c-1.5-0.2-2.6-1.4-4.2-1.6c-1.7-0.2-3.4,0.7-4.5,0.5c-3.1-0.4-6.1-7.5-5.5-12.8c0.6-5.3,4.3-7.6,7.3-7.2
		c2,0.2,3.4,1.6,4.4,1.7c0.9,0.1,2.7-0.9,4.9-0.6c3.7,0.5,4.8,3.3,4.8,3.3s-3,1.1-3.5,4.7c-0.5,4,2.9,5.8,2.9,5.8
		S748.2,644.6,744.8,644.2z"/>
	<path class="st0" d="M919.9,658.1c2.9,0,9,0.4,11.4-0.9c2.4-1.2,2.9-4,1.5-6.4c-0.4-0.7-0.7-0.9-1.4-1.3c-2.2-1.3-7-1-9.7-1
		c-3.6,0-7.7,1-8.4,4.1C912.5,656.4,916.4,658.1,919.9,658.1L919.9,658.1z M919.9,658.1"/>
	<path class="st0" d="M933.7,582.6c-2.6,0.5-7.8,1.9-6.8,5.6c0.9,3.1,7.9,5.9,13.1,2.6C945.2,587.5,939,581.7,933.7,582.6
		L933.7,582.6z M933.7,582.6"/>
	<path class="st0" d="M1089.6,570.4c-3.1-6.2-9.6-5.2-16.1-5.4c-14.1-0.4-28.2-0.4-42.4-0.4c-6.5,0-13.2-0.5-17.5,3.7
		c-1.3,1.3-3.5,4.5-4.3,6.3c-5.4,0.8-10.6-0.4-15.8,1.2c-6.4,1.9-7.2,5.8-10.2,6.9c-6.6,2.4-26.8-3.9-28.9,3.4
		c-1.8,6.1,6.2,6,10.7,6c2.9,0,5.5-0.2,8.3-0.3c2.9-0.1,5.3,0,8.1,0c3.7,0,12.5,1.6,9.3,6.2c-2.5,3.6-9.7,2.5-14.2,2.5l-51.2,0
		c-2.6,0-5.4,0.2-6.6,1.9c-1.4,1.9-0.2,4.8,1.1,5.9c4.5,4.1,55.6-1.6,60,2.3c0.8,0.7,1,2.2,0.8,3.1c-0.3,0.5-1.1,0.9-1.9,1.3
		c-4.4,2-14.6,0.8-19.3,0.7l-59.6,0c-2.3,0-5.9-0.4-7.3,1.7c-0.6,0.8-0.4,1.6-0.8,2.1v2.3c0.6,1.1-0.3,0.7,1.3,1.6
		c2,1.1,4.3,1.4,6.5,1.7c2.7,0.3,28.2-0.3,32.7-0.3c14.6,0,29.6-0.3,44.2,0c5.1,0.1,11.2,0,16.3,0.6c1.9,0.2,2.6,0.6,3.5,2
		c2.1,3.4-1.6,5.2-4.4,5.7c-2.9,0.6-7.3,0.3-10.7,0.3l-33.2-0.1c-3.6,0-7.4,0.2-10.8,0.1c-3.5,0-7.1,0.3-7.7,3.5
		c-0.7,3.7,2.4,5.4,5.5,5.7c5.2,0.4,15.9,0,21.8,0l22-0.3c3.4-0.1,7.6-0.1,7.4,3.8c-0.1,2-0.5,2-3,2.6c-4.2,1.1-11.3,0.7-15.5,0.3
		c-3.5-0.3-7.2-0.5-10.8-0.5c-3.2,0-7.5,0.1-9.3,1.9c-2.4,2.2-2,5.5,1.1,6.9c2.7,1.2,6.5,1,9.9,0.9l10.8-0.2c2.8-0.3,8.1-0.4,10.8,0
		c4.8,0.8,3.8,4.7,3.8,6.8c-2.8,0.8-1.3,0.9-5.8,1.6c-5.6,0.8-14.8,0.1-20.8,0.1c-9.6,0-19.4-0.1-28.8-0.1c-2.8,0-5.7,0-7.7,1.4
		c-1.1,0.8-1.3,2.5-1.2,4c0.3,4.1,6.3,4.3,10.5,3.8c2-0.2,5.1-0.1,7.2-0.1l7.2-0.1c4.7,0.2,9.5,0.1,14.3,0.1
		c0.8,0.1,1.2,4.2,4.7,6.1c2.5,1.3,6.1,1.4,9.5,1.4c3.9,0,18.1-0.5,20.9,0.4c0.5,2.1-0.3,5.4,1,9.8c0.8,3,2.2,4.7,4.7,5.9
		c4.4,2,14.4,1.2,20,1.2c11.8,0,31.3,0.9,42.2,0c3.8-0.3,5.7-0.7,8.4-2.5c6.7-4.5,6.9-16.5,7.9-24.3c1.6-12.5,3.5-25.1,5.1-37.6
		c1.6-12.5,3.3-25.4,5.2-37.8c0.5-3.1,1.1-6.2,1.6-9.2C1091,583.2,1092.3,575.8,1089.6,570.4z M1085.4,588.7
		c-3.3,23.5-6.8,47.5-9.8,71c-1,7.9-1.9,16-3,23.9c-0.5,3.9-1.6,7.6-3.7,9.7c-2.7,2.7-6.1,2.6-10.8,2.7c-13.4,0.2-26.9,0.2-40.4,0.1
		c-4,0-9.2,0.2-13-0.4c-4.4-0.7-6.2-2.5-6.3-7.4c-0.1-3.7,0.9-8.4,1.4-12c1.1-7.9,2.2-15.7,3.3-23.6c2.1-15.8,4.2-31.7,6.4-47.5
		c1.1-7.9,2.1-15.8,3.3-23.7c1.6-10.4,3.3-12.2,14.3-12.6c4.3-0.2,8.8,0,13.2,0.1c6.8,0,35.8-0.3,40.1,0.3c4.5,0.6,6.3,2.4,6.4,7.2
		C1086.7,580.5,1085.9,585,1085.4,588.7z"/>
	<path class="st0" d="M1005.1,680.2c4.7,0.3,10.5,0,15.3,0c14.7,0,30.1-0.1,44.8,0c0.5,0,1.5,0.1,1.8-0.2
		c0.3-0.4,10.5-76.7,12.5-91.1c0.2-1.7,0.8-4.5,0.8-6.2l-61.5-0.1c-0.4,0.2-0.2,0-0.4,0.4l-10,72.8c-0.6,4-1.1,8.1-1.7,12.2
		L1005.1,680.2z M1005.1,680.2"/>
	<path class="st0" d="M1060.2,575.7c-3.6-1.3-11.5-0.8-15.7-0.7c-1.5,0-4.7-0.5-4.2,1.5c0.3,1.2,3.8,0.9,4.8,0.9l11.4,0
		C1058.5,577.5,1059.8,577.8,1060.2,575.7L1060.2,575.7z M1060.2,575.7"/>
	<path class="st0" d="M1043.3,625.4c2.2,0,4-1.9,4.1-4.2C1045.3,621.4,1043.7,623.3,1043.3,625.4L1043.3,625.4z M1043.3,625.4"/>
	<path class="st1" d="M1044.9,619.6c2-2.1,4.4-1.8,4.4-1.8s0.1,2.2-1.9,4.1c-2.1,2-4.2,1.4-4.2,1.4S1043.1,621.5,1044.9,619.6z
		 M1045.8,644.2c-1.5-0.2-2.6-1.4-4.2-1.6c-1.7-0.2-3.4,0.7-4.5,0.5c-3.1-0.4-6.1-7.5-5.5-12.8c0.6-5.3,4.3-7.6,7.3-7.2
		c2,0.2,3.4,1.6,4.4,1.7c0.9,0.1,2.7-0.9,4.9-0.6c3.7,0.5,4.8,3.3,4.8,3.3s-3,1.1-3.5,4.7c-0.5,4,2.9,5.8,2.9,5.8
		S1049.1,644.6,1045.8,644.2z"/>
	<path class="st0" d="M17.1,957.9c2.9,0,9,0.4,11.4-0.9c2.4-1.2,2.9-4,1.5-6.4c-0.4-0.7-0.7-0.9-1.4-1.3c-2.2-1.3-7-1-9.7-1
		c-3.6,0-7.7,1-8.4,4.1C9.7,956.1,13.5,957.9,17.1,957.9L17.1,957.9z M17.1,957.9"/>
	<path class="st0" d="M30.8,882.4c-2.6,0.5-7.8,1.9-6.8,5.6c0.9,3.1,7.9,5.9,13.1,2.6C42.4,887.3,36.1,881.4,30.8,882.4L30.8,882.4z
		 M30.8,882.4"/>
	<path class="st0" d="M186.7,870.2c-3.1-6.2-9.6-5.2-16.1-5.4c-14.1-0.4-28.2-0.4-42.4-0.4c-6.5,0-13.2-0.5-17.5,3.7
		c-1.3,1.3-3.5,4.5-4.3,6.3c-5.4,0.8-10.6-0.4-15.8,1.2c-6.4,1.9-7.2,5.8-10.2,6.9c-6.6,2.4-26.8-3.9-28.9,3.4
		c-1.8,6.1,6.2,6,10.7,6c2.9,0,5.5-0.2,8.3-0.3c2.9-0.1,5.3,0,8.1,0c3.7,0,12.5,1.6,9.3,6.2c-2.5,3.6-9.7,2.5-14.2,2.5l-51.2,0
		c-2.6,0-5.4,0.2-6.6,1.9c-1.4,1.9-0.2,4.8,1.1,5.9c4.5,4.1,55.6-1.6,60,2.3c0.8,0.7,1,2.2,0.8,3.1c-0.3,0.5-1.1,0.9-1.9,1.3
		c-4.4,2-14.6,0.8-19.3,0.7l-59.6,0c-2.3,0-5.9-0.4-7.3,1.7c-0.6,0.8-0.4,1.6-0.8,2.1v2.3c0.6,1.1-0.3,0.7,1.3,1.6
		c2,1.1,4.3,1.4,6.5,1.7c2.7,0.3,28.2-0.3,32.7-0.3c14.6,0,29.6-0.3,44.2,0c5.1,0.1,11.2,0,16.3,0.6c1.9,0.2,2.6,0.6,3.5,2
		c2.1,3.4-1.6,5.2-4.4,5.7c-2.9,0.6-7.3,0.3-10.7,0.3l-33.2-0.1c-3.6,0-7.4,0.2-10.8,0.1c-3.5,0-7.1,0.3-7.7,3.5
		c-0.7,3.7,2.4,5.4,5.5,5.7c5.2,0.4,15.9,0,21.8,0l22-0.3c3.4-0.1,7.6-0.1,7.4,3.8c-0.1,2-0.5,2-3,2.6c-4.2,1.1-11.3,0.7-15.5,0.3
		c-3.5-0.3-7.2-0.5-10.8-0.5c-3.2,0-7.5,0.1-9.3,1.9c-2.4,2.2-2,5.5,1.1,6.9c2.7,1.2,6.5,1,9.9,0.9l10.8-0.2c2.8-0.3,8.1-0.4,10.8,0
		c4.8,0.8,3.8,4.7,3.8,6.8c-2.8,0.8-1.3,0.9-5.8,1.6c-5.6,0.8-14.8,0.1-20.8,0.1c-9.6,0-19.4-0.1-28.8-0.1c-2.8,0-5.7,0-7.7,1.4
		c-1.1,0.8-1.3,2.5-1.2,4c0.3,4.1,6.3,4.3,10.5,3.8c2-0.2,5.1-0.1,7.2-0.1l7.2-0.1c4.7,0.2,9.5,0.1,14.3,0.1
		c0.8,0.1,1.2,4.2,4.7,6.1c2.5,1.3,6.1,1.4,9.5,1.4c3.9,0,18.1-0.5,20.9,0.4c0.5,2.1-0.3,5.4,1,9.8c0.8,3,2.2,4.7,4.7,5.9
		c4.4,2,14.4,1.2,20,1.2c11.8,0,31.3,0.9,42.2,0c3.8-0.3,5.7-0.7,8.4-2.5c6.7-4.5,6.9-16.5,7.9-24.3c1.6-12.5,3.5-25.1,5.1-37.6
		c1.6-12.5,3.3-25.4,5.2-37.8c0.5-3.1,1.1-6.2,1.6-9.2C188.2,882.9,189.4,875.6,186.7,870.2z M182.6,888.5
		c-3.3,23.5-6.8,47.5-9.8,71c-1,7.9-1.9,16-3,23.9c-0.5,3.9-1.6,7.6-3.7,9.7c-2.7,2.7-6.1,2.6-10.8,2.7c-13.4,0.2-26.9,0.2-40.4,0.1
		c-4,0-9.2,0.2-13-0.4c-4.4-0.7-6.2-2.5-6.3-7.4c-0.1-3.7,0.9-8.4,1.4-12c1.1-7.9,2.2-15.7,3.3-23.6c2.1-15.8,4.2-31.7,6.4-47.5
		c1.1-7.9,2.1-15.8,3.3-23.7c1.6-10.4,3.3-12.2,14.3-12.6c4.3-0.2,8.8,0,13.2,0.1c6.8,0,35.8-0.3,40.1,0.3c4.5,0.6,6.3,2.4,6.4,7.2
		C183.9,880.2,183.1,884.7,182.6,888.5z"/>
	<path class="st0" d="M102.3,980c4.7,0.3,10.5,0,15.3,0c14.7,0,30.1-0.1,44.8,0c0.5,0,1.5,0.1,1.8-0.2c0.3-0.4,10.5-76.7,12.5-91.1
		c0.2-1.7,0.8-4.5,0.8-6.2l-61.5-0.1c-0.4,0.2-0.2,0-0.4,0.4l-10,72.8c-0.6,4-1.1,8.1-1.7,12.2L102.3,980z M102.3,980"/>
	<path class="st0" d="M157.3,875.5c-3.6-1.3-11.5-0.8-15.7-0.7c-1.5,0-4.7-0.5-4.2,1.5c0.3,1.2,3.8,0.9,4.8,0.9l11.4,0
		C155.7,877.3,157,877.6,157.3,875.5L157.3,875.5z M157.3,875.5"/>
	<path class="st0" d="M140.4,925.2c2.2,0,4-1.9,4.1-4.2C142.5,921.1,140.9,923.1,140.4,925.2L140.4,925.2z M140.4,925.2"/>
	<path class="st1" d="M142.1,919.4c2-2.1,4.4-1.8,4.4-1.8s0.1,2.2-1.9,4.1c-2.1,2-4.2,1.4-4.2,1.4S140.3,921.2,142.1,919.4z
		 M142.9,943.9c-1.5-0.2-2.6-1.4-4.2-1.6c-1.7-0.2-3.4,0.7-4.5,0.5c-3.1-0.4-6.1-7.5-5.5-12.8c0.6-5.3,4.3-7.6,7.3-7.2
		c2,0.2,3.4,1.6,4.4,1.7c0.9,0.1,2.7-0.9,4.9-0.6c3.7,0.5,4.8,3.3,4.8,3.3s-3,1.1-3.5,4.7c-0.5,4,2.9,5.8,2.9,5.8
		S146.3,944.3,142.9,943.9z"/>
	<path class="st0" d="M318,957.9c2.9,0,9,0.4,11.4-0.9c2.4-1.2,2.9-4,1.5-6.4c-0.4-0.7-0.7-0.9-1.4-1.3c-2.2-1.3-7-1-9.7-1
		c-3.6,0-7.7,1-8.4,4.1C310.6,956.1,314.5,957.9,318,957.9L318,957.9z M318,957.9"/>
	<path class="st0" d="M331.8,882.4c-2.6,0.5-7.8,1.9-6.8,5.6c0.9,3.1,7.9,5.9,13.1,2.6C343.3,887.3,337.1,881.4,331.8,882.4
		L331.8,882.4z M331.8,882.4"/>
	<path class="st0" d="M487.7,870.2c-3.1-6.2-9.6-5.2-16.1-5.4c-14.1-0.4-28.2-0.4-42.4-0.4c-6.5,0-13.2-0.5-17.5,3.7
		c-1.3,1.3-3.5,4.5-4.3,6.3c-5.4,0.8-10.6-0.4-15.8,1.2c-6.4,1.9-7.2,5.8-10.2,6.9c-6.6,2.4-26.8-3.9-28.9,3.4
		c-1.8,6.1,6.2,6,10.7,6c2.9,0,5.5-0.2,8.3-0.3c2.9-0.1,5.3,0,8.1,0c3.7,0,12.5,1.6,9.3,6.2c-2.5,3.6-9.7,2.5-14.2,2.5l-51.2,0
		c-2.6,0-5.4,0.2-6.6,1.9c-1.4,1.9-0.2,4.8,1.1,5.9c4.5,4.1,55.6-1.6,60,2.3c0.8,0.7,1,2.2,0.8,3.1c-0.3,0.5-1.1,0.9-1.9,1.3
		c-4.4,2-14.6,0.8-19.3,0.7l-59.6,0c-2.3,0-5.9-0.4-7.3,1.7c-0.6,0.8-0.4,1.6-0.8,2.1v2.3c0.6,1.1-0.3,0.7,1.3,1.6
		c2,1.1,4.3,1.4,6.5,1.7c2.7,0.3,28.2-0.3,32.7-0.3c14.6,0,29.6-0.3,44.2,0c5.1,0.1,11.2,0,16.3,0.6c1.9,0.2,2.6,0.6,3.5,2
		c2.1,3.4-1.6,5.2-4.4,5.7c-2.9,0.6-7.3,0.3-10.7,0.3l-33.2-0.1c-3.6,0-7.4,0.2-10.8,0.1c-3.5,0-7.1,0.3-7.7,3.5
		c-0.7,3.7,2.4,5.4,5.5,5.7c5.2,0.4,15.9,0,21.8,0l22-0.3c3.4-0.1,7.6-0.1,7.4,3.8c-0.1,2-0.5,2-3,2.6c-4.2,1.1-11.3,0.7-15.5,0.3
		c-3.5-0.3-7.2-0.5-10.8-0.5c-3.2,0-7.5,0.1-9.3,1.9c-2.4,2.2-2,5.5,1.1,6.9c2.7,1.2,6.5,1,9.9,0.9l10.8-0.2c2.8-0.3,8.1-0.4,10.8,0
		c4.8,0.8,3.8,4.7,3.8,6.8c-2.8,0.8-1.3,0.9-5.8,1.6c-5.6,0.8-14.8,0.1-20.8,0.1c-9.6,0-19.4-0.1-28.8-0.1c-2.8,0-5.7,0-7.7,1.4
		c-1.1,0.8-1.3,2.5-1.2,4c0.3,4.1,6.3,4.3,10.5,3.8c2-0.2,5.1-0.1,7.2-0.1l7.2-0.1c4.7,0.2,9.5,0.1,14.3,0.1
		c0.8,0.1,1.2,4.2,4.7,6.1c2.5,1.3,6.1,1.4,9.5,1.4c3.9,0,18.1-0.5,20.9,0.4c0.5,2.1-0.3,5.4,1,9.8c0.8,3,2.2,4.7,4.7,5.9
		c4.4,2,14.4,1.2,20,1.2c11.8,0,31.3,0.9,42.2,0c3.8-0.3,5.7-0.7,8.4-2.5c6.7-4.5,6.9-16.5,7.9-24.3c1.6-12.5,3.5-25.1,5.1-37.6
		c1.6-12.5,3.3-25.4,5.2-37.8c0.5-3.1,1.1-6.2,1.6-9.2C489.2,882.9,490.4,875.6,487.7,870.2z M483.5,888.5
		c-3.3,23.5-6.8,47.5-9.8,71c-1,7.9-1.9,16-3,23.9c-0.5,3.9-1.6,7.6-3.7,9.7c-2.7,2.7-6.1,2.6-10.8,2.7c-13.4,0.2-26.9,0.2-40.4,0.1
		c-4,0-9.2,0.2-13-0.4c-4.4-0.7-6.2-2.5-6.3-7.4c-0.1-3.7,0.9-8.4,1.4-12c1.1-7.9,2.2-15.7,3.3-23.6c2.1-15.8,4.2-31.7,6.4-47.5
		c1.1-7.9,2.1-15.8,3.3-23.7c1.6-10.4,3.3-12.2,14.3-12.6c4.3-0.2,8.8,0,13.2,0.1c6.8,0,35.8-0.3,40.1,0.3c4.5,0.6,6.3,2.4,6.4,7.2
		C484.9,880.2,484,884.7,483.5,888.5z"/>
	<path class="st0" d="M403.2,980c4.7,0.3,10.5,0,15.3,0c14.7,0,30.1-0.1,44.8,0c0.5,0,1.5,0.1,1.8-0.2c0.3-0.4,10.5-76.7,12.5-91.1
		c0.2-1.7,0.8-4.5,0.8-6.2l-61.5-0.1c-0.4,0.2-0.2,0-0.4,0.4l-10,72.8c-0.6,4-1.1,8.1-1.7,12.2L403.2,980z M403.2,980"/>
	<path class="st0" d="M458.3,875.5c-3.6-1.3-11.5-0.8-15.7-0.7c-1.5,0-4.7-0.5-4.2,1.5c0.3,1.2,3.8,0.9,4.8,0.9l11.4,0
		C456.6,877.3,457.9,877.6,458.3,875.5L458.3,875.5z M458.3,875.5"/>
	<path class="st0" d="M441.4,925.2c2.2,0,4-1.9,4.1-4.2C443.5,921.1,441.8,923.1,441.4,925.2L441.4,925.2z M441.4,925.2"/>
	<path class="st1" d="M443,919.4c2-2.1,4.4-1.8,4.4-1.8s0.1,2.2-1.9,4.1c-2.1,2-4.2,1.4-4.2,1.4S441.2,921.2,443,919.4z
		 M443.9,943.9c-1.5-0.2-2.6-1.4-4.2-1.6c-1.7-0.2-3.4,0.7-4.5,0.5c-3.1-0.4-6.1-7.5-5.5-12.8c0.6-5.3,4.3-7.6,7.3-7.2
		c2,0.2,3.4,1.6,4.4,1.7c0.9,0.1,2.7-0.9,4.9-0.6c3.7,0.5,4.8,3.3,4.8,3.3s-3,1.1-3.5,4.7c-0.5,4,2.9,5.8,2.9,5.8
		S447.2,944.3,443.9,943.9z"/>
	<path class="st0" d="M618.9,957.9c2.9,0,9,0.4,11.4-0.9c2.4-1.2,2.9-4,1.5-6.4c-0.4-0.7-0.7-0.9-1.4-1.3c-2.2-1.3-7-1-9.7-1
		c-3.6,0-7.7,1-8.4,4.1C611.6,956.1,615.4,957.9,618.9,957.9L618.9,957.9z M618.9,957.9"/>
	<path class="st0" d="M632.7,882.4c-2.6,0.5-7.8,1.9-6.8,5.6c0.9,3.1,7.9,5.9,13.1,2.6C644.3,887.3,638,881.4,632.7,882.4
		L632.7,882.4z M632.7,882.4"/>
	<path class="st0" d="M788.6,870.2c-3.1-6.2-9.6-5.2-16.1-5.4c-14.1-0.4-28.2-0.4-42.4-0.4c-6.5,0-13.2-0.5-17.5,3.7
		c-1.3,1.3-3.5,4.5-4.3,6.3c-5.4,0.8-10.6-0.4-15.8,1.2c-6.4,1.9-7.2,5.8-10.2,6.9c-6.6,2.4-26.8-3.9-28.9,3.4
		c-1.8,6.1,6.2,6,10.7,6c2.9,0,5.5-0.2,8.3-0.3c2.9-0.1,5.3,0,8.1,0c3.7,0,12.5,1.6,9.3,6.2c-2.5,3.6-9.7,2.5-14.2,2.5l-51.2,0
		c-2.6,0-5.4,0.2-6.6,1.9c-1.4,1.9-0.2,4.8,1.1,5.9c4.5,4.1,55.6-1.6,60,2.3c0.8,0.7,1,2.2,0.8,3.1c-0.3,0.5-1.1,0.9-1.9,1.3
		c-4.4,2-14.6,0.8-19.3,0.7l-59.6,0c-2.3,0-5.9-0.4-7.3,1.7c-0.6,0.8-0.4,1.6-0.8,2.1v2.3c0.6,1.1-0.3,0.7,1.3,1.6
		c2,1.1,4.3,1.4,6.5,1.7c2.7,0.3,28.2-0.3,32.7-0.3c14.6,0,29.6-0.3,44.2,0c5.1,0.1,11.2,0,16.3,0.6c1.9,0.2,2.6,0.6,3.5,2
		c2.1,3.4-1.6,5.2-4.4,5.7c-2.9,0.6-7.3,0.3-10.7,0.3l-33.2-0.1c-3.6,0-7.4,0.2-10.8,0.1c-3.5,0-7.1,0.3-7.7,3.5
		c-0.7,3.7,2.4,5.4,5.5,5.7c5.2,0.4,15.9,0,21.8,0l22-0.3c3.4-0.1,7.6-0.1,7.4,3.8c-0.1,2-0.5,2-3,2.6c-4.2,1.1-11.3,0.7-15.5,0.3
		c-3.5-0.3-7.2-0.5-10.8-0.5c-3.2,0-7.5,0.1-9.3,1.9c-2.4,2.2-2,5.5,1.1,6.9c2.7,1.2,6.5,1,9.9,0.9l10.8-0.2c2.8-0.3,8.1-0.4,10.8,0
		c4.8,0.8,3.8,4.7,3.8,6.8c-2.8,0.8-1.3,0.9-5.8,1.6c-5.6,0.8-14.8,0.1-20.8,0.1c-9.6,0-19.4-0.1-28.8-0.1c-2.8,0-5.7,0-7.7,1.4
		c-1.1,0.8-1.3,2.5-1.2,4c0.3,4.1,6.3,4.3,10.5,3.8c2-0.2,5.1-0.1,7.2-0.1l7.2-0.1c4.7,0.2,9.5,0.1,14.3,0.1
		c0.8,0.1,1.2,4.2,4.7,6.1c2.5,1.3,6.1,1.4,9.5,1.4c3.9,0,18.1-0.5,20.9,0.4c0.5,2.1-0.3,5.4,1,9.8c0.8,3,2.2,4.7,4.7,5.9
		c4.4,2,14.4,1.2,20,1.2c11.8,0,31.3,0.9,42.2,0c3.8-0.3,5.7-0.7,8.4-2.5c6.7-4.5,6.9-16.5,7.9-24.3c1.6-12.5,3.5-25.1,5.1-37.6
		c1.6-12.5,3.3-25.4,5.2-37.8c0.5-3.1,1.1-6.2,1.6-9.2C790.1,882.9,791.3,875.6,788.6,870.2z M784.5,888.5
		c-3.3,23.5-6.8,47.5-9.8,71c-1,7.9-1.9,16-3,23.9c-0.5,3.9-1.6,7.6-3.7,9.7c-2.7,2.7-6.1,2.6-10.8,2.7c-13.4,0.2-26.9,0.2-40.4,0.1
		c-4,0-9.2,0.2-13-0.4c-4.4-0.7-6.2-2.5-6.3-7.4c-0.1-3.7,0.9-8.4,1.4-12c1.1-7.9,2.2-15.7,3.3-23.6c2.1-15.8,4.2-31.7,6.4-47.5
		c1.1-7.9,2.1-15.8,3.3-23.7c1.6-10.4,3.3-12.2,14.3-12.6c4.3-0.2,8.8,0,13.2,0.1c6.8,0,35.8-0.3,40.1,0.3c4.5,0.6,6.3,2.4,6.4,7.2
		C785.8,880.2,785,884.7,784.5,888.5z"/>
	<path class="st0" d="M704.2,980c4.7,0.3,10.5,0,15.3,0c14.7,0,30.1-0.1,44.8,0c0.5,0,1.5,0.1,1.8-0.2c0.3-0.4,10.5-76.7,12.5-91.1
		c0.2-1.7,0.8-4.5,0.8-6.2l-61.5-0.1c-0.4,0.2-0.2,0-0.4,0.4l-10,72.8c-0.6,4-1.1,8.1-1.7,12.2L704.2,980z M704.2,980"/>
	<path class="st0" d="M759.2,875.5c-3.6-1.3-11.5-0.8-15.7-0.7c-1.5,0-4.7-0.5-4.2,1.5c0.3,1.2,3.8,0.9,4.8,0.9l11.4,0
		C757.6,877.3,758.9,877.6,759.2,875.5L759.2,875.5z M759.2,875.5"/>
	<path class="st0" d="M742.3,925.2c2.2,0,4-1.9,4.1-4.2C744.4,921.1,742.8,923.1,742.3,925.2L742.3,925.2z M742.3,925.2"/>
	<path class="st1" d="M744,919.4c2-2.1,4.4-1.8,4.4-1.8s0.1,2.2-1.9,4.1c-2.1,2-4.2,1.4-4.2,1.4S742.2,921.2,744,919.4z
		 M744.8,943.9c-1.5-0.2-2.6-1.4-4.2-1.6c-1.7-0.2-3.4,0.7-4.5,0.5c-3.1-0.4-6.1-7.5-5.5-12.8c0.6-5.3,4.3-7.6,7.3-7.2
		c2,0.2,3.4,1.6,4.4,1.7c0.9,0.1,2.7-0.9,4.9-0.6c3.7,0.5,4.8,3.3,4.8,3.3s-3,1.1-3.5,4.7c-0.5,4,2.9,5.8,2.9,5.8
		S748.2,944.3,744.8,943.9z"/>
	<path class="st0" d="M919.9,957.9c2.9,0,9,0.4,11.4-0.9c2.4-1.2,2.9-4,1.5-6.4c-0.4-0.7-0.7-0.9-1.4-1.3c-2.2-1.3-7-1-9.7-1
		c-3.6,0-7.7,1-8.4,4.1C912.5,956.1,916.4,957.9,919.9,957.9L919.9,957.9z M919.9,957.9"/>
	<path class="st0" d="M933.7,882.4c-2.6,0.5-7.8,1.9-6.8,5.6c0.9,3.1,7.9,5.9,13.1,2.6C945.2,887.3,939,881.4,933.7,882.4
		L933.7,882.4z M933.7,882.4"/>
	<path class="st0" d="M1089.6,870.2c-3.1-6.2-9.6-5.2-16.1-5.4c-14.1-0.4-28.2-0.4-42.4-0.4c-6.5,0-13.2-0.5-17.5,3.7
		c-1.3,1.3-3.5,4.5-4.3,6.3c-5.4,0.8-10.6-0.4-15.8,1.2c-6.4,1.9-7.2,5.8-10.2,6.9c-6.6,2.4-26.8-3.9-28.9,3.4
		c-1.8,6.1,6.2,6,10.7,6c2.9,0,5.5-0.2,8.3-0.3c2.9-0.1,5.3,0,8.1,0c3.7,0,12.5,1.6,9.3,6.2c-2.5,3.6-9.7,2.5-14.2,2.5l-51.2,0
		c-2.6,0-5.4,0.2-6.6,1.9c-1.4,1.9-0.2,4.8,1.1,5.9c4.5,4.1,55.6-1.6,60,2.3c0.8,0.7,1,2.2,0.8,3.1c-0.3,0.5-1.1,0.9-1.9,1.3
		c-4.4,2-14.6,0.8-19.3,0.7l-59.6,0c-2.3,0-5.9-0.4-7.3,1.7c-0.6,0.8-0.4,1.6-0.8,2.1v2.3c0.6,1.1-0.3,0.7,1.3,1.6
		c2,1.1,4.3,1.4,6.5,1.7c2.7,0.3,28.2-0.3,32.7-0.3c14.6,0,29.6-0.3,44.2,0c5.1,0.1,11.2,0,16.3,0.6c1.9,0.2,2.6,0.6,3.5,2
		c2.1,3.4-1.6,5.2-4.4,5.7c-2.9,0.6-7.3,0.3-10.7,0.3l-33.2-0.1c-3.6,0-7.4,0.2-10.8,0.1c-3.5,0-7.1,0.3-7.7,3.5
		c-0.7,3.7,2.4,5.4,5.5,5.7c5.2,0.4,15.9,0,21.8,0l22-0.3c3.4-0.1,7.6-0.1,7.4,3.8c-0.1,2-0.5,2-3,2.6c-4.2,1.1-11.3,0.7-15.5,0.3
		c-3.5-0.3-7.2-0.5-10.8-0.5c-3.2,0-7.5,0.1-9.3,1.9c-2.4,2.2-2,5.5,1.1,6.9c2.7,1.2,6.5,1,9.9,0.9l10.8-0.2c2.8-0.3,8.1-0.4,10.8,0
		c4.8,0.8,3.8,4.7,3.8,6.8c-2.8,0.8-1.3,0.9-5.8,1.6c-5.6,0.8-14.8,0.1-20.8,0.1c-9.6,0-19.4-0.1-28.8-0.1c-2.8,0-5.7,0-7.7,1.4
		c-1.1,0.8-1.3,2.5-1.2,4c0.3,4.1,6.3,4.3,10.5,3.8c2-0.2,5.1-0.1,7.2-0.1l7.2-0.1c4.7,0.2,9.5,0.1,14.3,0.1
		c0.8,0.1,1.2,4.2,4.7,6.1c2.5,1.3,6.1,1.4,9.5,1.4c3.9,0,18.1-0.5,20.9,0.4c0.5,2.1-0.3,5.4,1,9.8c0.8,3,2.2,4.7,4.7,5.9
		c4.4,2,14.4,1.2,20,1.2c11.8,0,31.3,0.9,42.2,0c3.8-0.3,5.7-0.7,8.4-2.5c6.7-4.5,6.9-16.5,7.9-24.3c1.6-12.5,3.5-25.1,5.1-37.6
		c1.6-12.5,3.3-25.4,5.2-37.8c0.5-3.1,1.1-6.2,1.6-9.2C1091,882.9,1092.3,875.6,1089.6,870.2z M1085.4,888.5
		c-3.3,23.5-6.8,47.5-9.8,71c-1,7.9-1.9,16-3,23.9c-0.5,3.9-1.6,7.6-3.7,9.7c-2.7,2.7-6.1,2.6-10.8,2.7c-13.4,0.2-26.9,0.2-40.4,0.1
		c-4,0-9.2,0.2-13-0.4c-4.4-0.7-6.2-2.5-6.3-7.4c-0.1-3.7,0.9-8.4,1.4-12c1.1-7.9,2.2-15.7,3.3-23.6c2.1-15.8,4.2-31.7,6.4-47.5
		c1.1-7.9,2.1-15.8,3.3-23.7c1.6-10.4,3.3-12.2,14.3-12.6c4.3-0.2,8.8,0,13.2,0.1c6.8,0,35.8-0.3,40.1,0.3c4.5,0.6,6.3,2.4,6.4,7.2
		C1086.7,880.2,1085.9,884.7,1085.4,888.5z"/>
	<path class="st0" d="M1005.1,980c4.7,0.3,10.5,0,15.3,0c14.7,0,30.1-0.1,44.8,0c0.5,0,1.5,0.1,1.8-0.2c0.3-0.4,10.5-76.7,12.5-91.1
		c0.2-1.7,0.8-4.5,0.8-6.2l-61.5-0.1c-0.4,0.2-0.2,0-0.4,0.4l-10,72.8c-0.6,4-1.1,8.1-1.7,12.2L1005.1,980z M1005.1,980"/>
	<path class="st0" d="M1060.2,875.5c-3.6-1.3-11.5-0.8-15.7-0.7c-1.5,0-4.7-0.5-4.2,1.5c0.3,1.2,3.8,0.9,4.8,0.9l11.4,0
		C1058.5,877.3,1059.8,877.6,1060.2,875.5L1060.2,875.5z M1060.2,875.5"/>
	<path class="st0" d="M1043.3,925.2c2.2,0,4-1.9,4.1-4.2C1045.3,921.1,1043.7,923.1,1043.3,925.2L1043.3,925.2z M1043.3,925.2"/>
	<path class="st1" d="M1044.9,919.4c2-2.1,4.4-1.8,4.4-1.8s0.1,2.2-1.9,4.1c-2.1,2-4.2,1.4-4.2,1.4S1043.1,921.2,1044.9,919.4z
		 M1045.8,943.9c-1.5-0.2-2.6-1.4-4.2-1.6c-1.7-0.2-3.4,0.7-4.5,0.5c-3.1-0.4-6.1-7.5-5.5-12.8c0.6-5.3,4.3-7.6,7.3-7.2
		c2,0.2,3.4,1.6,4.4,1.7c0.9,0.1,2.7-0.9,4.9-0.6c3.7,0.5,4.8,3.3,4.8,3.3s-3,1.1-3.5,4.7c-0.5,4,2.9,5.8,2.9,5.8
		S1049.1,944.3,1045.8,943.9z"/>
	<path class="st0" d="M17.1,1257.6c2.9,0,9,0.4,11.4-0.9c2.4-1.2,2.9-4,1.5-6.4c-0.4-0.7-0.7-0.9-1.4-1.3c-2.2-1.3-7-1-9.7-1
		c-3.6,0-7.7,1-8.4,4.1C9.7,1255.9,13.5,1257.6,17.1,1257.6L17.1,1257.6z M17.1,1257.6"/>
	<path class="st0" d="M30.8,1182.1c-2.6,0.5-7.8,1.9-6.8,5.6c0.9,3.1,7.9,5.9,13.1,2.6C42.4,1187,36.1,1181.2,30.8,1182.1
		L30.8,1182.1z M30.8,1182.1"/>
	<path class="st0" d="M186.7,1169.9c-3.1-6.2-9.6-5.2-16.1-5.4c-14.1-0.4-28.2-0.4-42.4-0.4c-6.5,0-13.2-0.5-17.5,3.7
		c-1.3,1.3-3.5,4.5-4.3,6.3c-5.4,0.8-10.6-0.4-15.8,1.2c-6.4,1.9-7.2,5.8-10.2,6.9c-6.6,2.4-26.8-3.9-28.9,3.4
		c-1.8,6.1,6.2,6,10.7,6c2.9,0,5.5-0.2,8.3-0.3c2.9-0.1,5.3,0,8.1,0c3.7,0,12.5,1.6,9.3,6.2c-2.5,3.6-9.7,2.5-14.2,2.5l-51.2,0
		c-2.6,0-5.4,0.2-6.6,1.9c-1.4,1.9-0.2,4.8,1.1,5.9c4.5,4.1,55.6-1.6,60,2.3c0.8,0.7,1,2.2,0.8,3.1c-0.3,0.5-1.1,0.9-1.9,1.3
		c-4.4,2-14.6,0.8-19.3,0.7l-59.6,0c-2.3,0-5.9-0.4-7.3,1.7c-0.6,0.8-0.4,1.6-0.8,2.1v2.3c0.6,1.1-0.3,0.7,1.3,1.6
		c2,1.1,4.3,1.4,6.5,1.7c2.7,0.3,28.2-0.3,32.7-0.3c14.6,0,29.6-0.3,44.2,0c5.1,0.1,11.2,0,16.3,0.6c1.9,0.2,2.6,0.6,3.5,2
		c2.1,3.4-1.6,5.2-4.4,5.7c-2.9,0.6-7.3,0.3-10.7,0.3l-33.2-0.1c-3.6,0-7.4,0.2-10.8,0.1c-3.5,0-7.1,0.3-7.7,3.5
		c-0.7,3.7,2.4,5.4,5.5,5.7c5.2,0.4,15.9,0,21.8,0l22-0.3c3.4-0.1,7.6-0.1,7.4,3.8c-0.1,2-0.5,2-3,2.6c-4.2,1.1-11.3,0.7-15.5,0.3
		c-3.5-0.3-7.2-0.5-10.8-0.5c-3.2,0-7.5,0.1-9.3,1.9c-2.4,2.2-2,5.5,1.1,6.9c2.7,1.2,6.5,1,9.9,0.9l10.8-0.2c2.8-0.3,8.1-0.4,10.8,0
		c4.8,0.8,3.8,4.7,3.8,6.8c-2.8,0.8-1.3,0.9-5.8,1.6c-5.6,0.8-14.8,0.1-20.8,0.1c-9.6,0-19.4-0.1-28.8-0.1c-2.8,0-5.7,0-7.7,1.4
		c-1.1,0.8-1.3,2.5-1.2,4c0.3,4.1,6.3,4.3,10.5,3.8c2-0.2,5.1-0.1,7.2-0.1l7.2-0.1c4.7,0.2,9.5,0.1,14.3,0.1
		c0.8,0.1,1.2,4.2,4.7,6.1c2.5,1.3,6.1,1.4,9.5,1.4c3.9,0,18.1-0.5,20.9,0.4c0.5,2.1-0.3,5.4,1,9.8c0.8,3,2.2,4.7,4.7,5.9
		c4.4,2,14.4,1.2,20,1.2c11.8,0,31.3,0.9,42.2,0c3.8-0.3,5.7-0.7,8.4-2.5c6.7-4.5,6.9-16.5,7.9-24.3c1.6-12.5,3.5-25.1,5.1-37.6
		c1.6-12.5,3.3-25.4,5.2-37.8c0.5-3.1,1.1-6.2,1.6-9.2C188.2,1182.7,189.4,1175.3,186.7,1169.9z M182.6,1188.2
		c-3.3,23.5-6.8,47.5-9.8,71c-1,7.9-1.9,16-3,23.9c-0.5,3.9-1.6,7.6-3.7,9.7c-2.7,2.7-6.1,2.6-10.8,2.7c-13.4,0.2-26.9,0.2-40.4,0.1
		c-4,0-9.2,0.2-13-0.4c-4.4-0.7-6.2-2.5-6.3-7.4c-0.1-3.7,0.9-8.4,1.4-12c1.1-7.9,2.2-15.7,3.3-23.6c2.1-15.8,4.2-31.7,6.4-47.5
		c1.1-7.9,2.1-15.8,3.3-23.7c1.6-10.4,3.3-12.2,14.3-12.6c4.3-0.2,8.8,0,13.2,0.1c6.8,0,35.8-0.3,40.1,0.3c4.5,0.6,6.3,2.4,6.4,7.2
		C183.9,1180,183.1,1184.5,182.6,1188.2z"/>
	<path class="st0" d="M102.3,1279.7c4.7,0.3,10.5,0,15.3,0c14.7,0,30.1-0.1,44.8,0c0.5,0,1.5,0.1,1.8-0.2
		c0.3-0.4,10.5-76.7,12.5-91.1c0.2-1.7,0.8-4.5,0.8-6.2l-61.5-0.1c-0.4,0.2-0.2,0-0.4,0.4l-10,72.8c-0.6,4-1.1,8.1-1.7,12.2
		L102.3,1279.7z M102.3,1279.7"/>
	<path class="st0" d="M157.3,1175.3c-3.6-1.3-11.5-0.8-15.7-0.7c-1.5,0-4.7-0.5-4.2,1.5c0.3,1.2,3.8,0.9,4.8,0.9l11.4,0
		C155.7,1177,157,1177.4,157.3,1175.3L157.3,1175.3z M157.3,1175.3"/>
	<path class="st0" d="M140.4,1224.9c2.2,0,4-1.9,4.1-4.2C142.5,1220.9,140.9,1222.8,140.4,1224.9L140.4,1224.9z M140.4,1224.9"/>
	<path class="st1" d="M142.1,1219.2c2-2.1,4.4-1.8,4.4-1.8s0.1,2.2-1.9,4.1c-2.1,2-4.2,1.4-4.2,1.4S140.3,1221,142.1,1219.2z
		 M142.9,1243.7c-1.5-0.2-2.6-1.4-4.2-1.6c-1.7-0.2-3.4,0.7-4.5,0.5c-3.1-0.4-6.1-7.5-5.5-12.8c0.6-5.3,4.3-7.6,7.3-7.2
		c2,0.2,3.4,1.6,4.4,1.7c0.9,0.1,2.7-0.9,4.9-0.6c3.7,0.5,4.8,3.3,4.8,3.3s-3,1.1-3.5,4.7c-0.5,4,2.9,5.8,2.9,5.8
		S146.3,1244.1,142.9,1243.7z"/>
	<path class="st0" d="M318,1257.6c2.9,0,9,0.4,11.4-0.9c2.4-1.2,2.9-4,1.5-6.4c-0.4-0.7-0.7-0.9-1.4-1.3c-2.2-1.3-7-1-9.7-1
		c-3.6,0-7.7,1-8.4,4.1C310.6,1255.9,314.5,1257.6,318,1257.6L318,1257.6z M318,1257.6"/>
	<path class="st0" d="M331.8,1182.1c-2.6,0.5-7.8,1.9-6.8,5.6c0.9,3.1,7.9,5.9,13.1,2.6C343.3,1187,337.1,1181.2,331.8,1182.1
		L331.8,1182.1z M331.8,1182.1"/>
	<path class="st0" d="M487.7,1169.9c-3.1-6.2-9.6-5.2-16.1-5.4c-14.1-0.4-28.2-0.4-42.4-0.4c-6.5,0-13.2-0.5-17.5,3.7
		c-1.3,1.3-3.5,4.5-4.3,6.3c-5.4,0.8-10.6-0.4-15.8,1.2c-6.4,1.9-7.2,5.8-10.2,6.9c-6.6,2.4-26.8-3.9-28.9,3.4
		c-1.8,6.1,6.2,6,10.7,6c2.9,0,5.5-0.2,8.3-0.3c2.9-0.1,5.3,0,8.1,0c3.7,0,12.5,1.6,9.3,6.2c-2.5,3.6-9.7,2.5-14.2,2.5l-51.2,0
		c-2.6,0-5.4,0.2-6.6,1.9c-1.4,1.9-0.2,4.8,1.1,5.9c4.5,4.1,55.6-1.6,60,2.3c0.8,0.7,1,2.2,0.8,3.1c-0.3,0.5-1.1,0.9-1.9,1.3
		c-4.4,2-14.6,0.8-19.3,0.7l-59.6,0c-2.3,0-5.9-0.4-7.3,1.7c-0.6,0.8-0.4,1.6-0.8,2.1v2.3c0.6,1.1-0.3,0.7,1.3,1.6
		c2,1.1,4.3,1.4,6.5,1.7c2.7,0.3,28.2-0.3,32.7-0.3c14.6,0,29.6-0.3,44.2,0c5.1,0.1,11.2,0,16.3,0.6c1.9,0.2,2.6,0.6,3.5,2
		c2.1,3.4-1.6,5.2-4.4,5.7c-2.9,0.6-7.3,0.3-10.7,0.3l-33.2-0.1c-3.6,0-7.4,0.2-10.8,0.1c-3.5,0-7.1,0.3-7.7,3.5
		c-0.7,3.7,2.4,5.4,5.5,5.7c5.2,0.4,15.9,0,21.8,0l22-0.3c3.4-0.1,7.6-0.1,7.4,3.8c-0.1,2-0.5,2-3,2.6c-4.2,1.1-11.3,0.7-15.5,0.3
		c-3.5-0.3-7.2-0.5-10.8-0.5c-3.2,0-7.5,0.1-9.3,1.9c-2.4,2.2-2,5.5,1.1,6.9c2.7,1.2,6.5,1,9.9,0.9l10.8-0.2c2.8-0.3,8.1-0.4,10.8,0
		c4.8,0.8,3.8,4.7,3.8,6.8c-2.8,0.8-1.3,0.9-5.8,1.6c-5.6,0.8-14.8,0.1-20.8,0.1c-9.6,0-19.4-0.1-28.8-0.1c-2.8,0-5.7,0-7.7,1.4
		c-1.1,0.8-1.3,2.5-1.2,4c0.3,4.1,6.3,4.3,10.5,3.8c2-0.2,5.1-0.1,7.2-0.1l7.2-0.1c4.7,0.2,9.5,0.1,14.3,0.1
		c0.8,0.1,1.2,4.2,4.7,6.1c2.5,1.3,6.1,1.4,9.5,1.4c3.9,0,18.1-0.5,20.9,0.4c0.5,2.1-0.3,5.4,1,9.8c0.8,3,2.2,4.7,4.7,5.9
		c4.4,2,14.4,1.2,20,1.2c11.8,0,31.3,0.9,42.2,0c3.8-0.3,5.7-0.7,8.4-2.5c6.7-4.5,6.9-16.5,7.9-24.3c1.6-12.5,3.5-25.1,5.1-37.6
		c1.6-12.5,3.3-25.4,5.2-37.8c0.5-3.1,1.1-6.2,1.6-9.2C489.2,1182.7,490.4,1175.3,487.7,1169.9z M483.5,1188.2
		c-3.3,23.5-6.8,47.5-9.8,71c-1,7.9-1.9,16-3,23.9c-0.5,3.9-1.6,7.6-3.7,9.7c-2.7,2.7-6.1,2.6-10.8,2.7c-13.4,0.2-26.9,0.2-40.4,0.1
		c-4,0-9.2,0.2-13-0.4c-4.4-0.7-6.2-2.5-6.3-7.4c-0.1-3.7,0.9-8.4,1.4-12c1.1-7.9,2.2-15.7,3.3-23.6c2.1-15.8,4.2-31.7,6.4-47.5
		c1.1-7.9,2.1-15.8,3.3-23.7c1.6-10.4,3.3-12.2,14.3-12.6c4.3-0.2,8.8,0,13.2,0.1c6.8,0,35.8-0.3,40.1,0.3c4.5,0.6,6.3,2.4,6.4,7.2
		C484.9,1180,484,1184.5,483.5,1188.2z"/>
	<path class="st0" d="M403.2,1279.7c4.7,0.3,10.5,0,15.3,0c14.7,0,30.1-0.1,44.8,0c0.5,0,1.5,0.1,1.8-0.2
		c0.3-0.4,10.5-76.7,12.5-91.1c0.2-1.7,0.8-4.5,0.8-6.2l-61.5-0.1c-0.4,0.2-0.2,0-0.4,0.4l-10,72.8c-0.6,4-1.1,8.1-1.7,12.2
		L403.2,1279.7z M403.2,1279.7"/>
	<path class="st0" d="M458.3,1175.3c-3.6-1.3-11.5-0.8-15.7-0.7c-1.5,0-4.7-0.5-4.2,1.5c0.3,1.2,3.8,0.9,4.8,0.9l11.4,0
		C456.6,1177,457.9,1177.4,458.3,1175.3L458.3,1175.3z M458.3,1175.3"/>
	<path class="st0" d="M441.4,1224.9c2.2,0,4-1.9,4.1-4.2C443.5,1220.9,441.8,1222.8,441.4,1224.9L441.4,1224.9z M441.4,1224.9"/>
	<path class="st1" d="M443,1219.2c2-2.1,4.4-1.8,4.4-1.8s0.1,2.2-1.9,4.1c-2.1,2-4.2,1.4-4.2,1.4S441.2,1221,443,1219.2z
		 M443.9,1243.7c-1.5-0.2-2.6-1.4-4.2-1.6c-1.7-0.2-3.4,0.7-4.5,0.5c-3.1-0.4-6.1-7.5-5.5-12.8c0.6-5.3,4.3-7.6,7.3-7.2
		c2,0.2,3.4,1.6,4.4,1.7c0.9,0.1,2.7-0.9,4.9-0.6c3.7,0.5,4.8,3.3,4.8,3.3s-3,1.1-3.5,4.7c-0.5,4,2.9,5.8,2.9,5.8
		S447.2,1244.1,443.9,1243.7z"/>
	<path class="st0" d="M618.9,1257.6c2.9,0,9,0.4,11.4-0.9c2.4-1.2,2.9-4,1.5-6.4c-0.4-0.7-0.7-0.9-1.4-1.3c-2.2-1.3-7-1-9.7-1
		c-3.6,0-7.7,1-8.4,4.1C611.6,1255.9,615.4,1257.6,618.9,1257.6L618.9,1257.6z M618.9,1257.6"/>
	<path class="st0" d="M632.7,1182.1c-2.6,0.5-7.8,1.9-6.8,5.6c0.9,3.1,7.9,5.9,13.1,2.6C644.3,1187,638,1181.2,632.7,1182.1
		L632.7,1182.1z M632.7,1182.1"/>
	<path class="st0" d="M788.6,1169.9c-3.1-6.2-9.6-5.2-16.1-5.4c-14.1-0.4-28.2-0.4-42.4-0.4c-6.5,0-13.2-0.5-17.5,3.7
		c-1.3,1.3-3.5,4.5-4.3,6.3c-5.4,0.8-10.6-0.4-15.8,1.2c-6.4,1.9-7.2,5.8-10.2,6.9c-6.6,2.4-26.8-3.9-28.9,3.4
		c-1.8,6.1,6.2,6,10.7,6c2.9,0,5.5-0.2,8.3-0.3c2.9-0.1,5.3,0,8.1,0c3.7,0,12.5,1.6,9.3,6.2c-2.5,3.6-9.7,2.5-14.2,2.5l-51.2,0
		c-2.6,0-5.4,0.2-6.6,1.9c-1.4,1.9-0.2,4.8,1.1,5.9c4.5,4.1,55.6-1.6,60,2.3c0.8,0.7,1,2.2,0.8,3.1c-0.3,0.5-1.1,0.9-1.9,1.3
		c-4.4,2-14.6,0.8-19.3,0.7l-59.6,0c-2.3,0-5.9-0.4-7.3,1.7c-0.6,0.8-0.4,1.6-0.8,2.1v2.3c0.6,1.1-0.3,0.7,1.3,1.6
		c2,1.1,4.3,1.4,6.5,1.7c2.7,0.3,28.2-0.3,32.7-0.3c14.6,0,29.6-0.3,44.2,0c5.1,0.1,11.2,0,16.3,0.6c1.9,0.2,2.6,0.6,3.5,2
		c2.1,3.4-1.6,5.2-4.4,5.7c-2.9,0.6-7.3,0.3-10.7,0.3l-33.2-0.1c-3.6,0-7.4,0.2-10.8,0.1c-3.5,0-7.1,0.3-7.7,3.5
		c-0.7,3.7,2.4,5.4,5.5,5.7c5.2,0.4,15.9,0,21.8,0l22-0.3c3.4-0.1,7.6-0.1,7.4,3.8c-0.1,2-0.5,2-3,2.6c-4.2,1.1-11.3,0.7-15.5,0.3
		c-3.5-0.3-7.2-0.5-10.8-0.5c-3.2,0-7.5,0.1-9.3,1.9c-2.4,2.2-2,5.5,1.1,6.9c2.7,1.2,6.5,1,9.9,0.9l10.8-0.2c2.8-0.3,8.1-0.4,10.8,0
		c4.8,0.8,3.8,4.7,3.8,6.8c-2.8,0.8-1.3,0.9-5.8,1.6c-5.6,0.8-14.8,0.1-20.8,0.1c-9.6,0-19.4-0.1-28.8-0.1c-2.8,0-5.7,0-7.7,1.4
		c-1.1,0.8-1.3,2.5-1.2,4c0.3,4.1,6.3,4.3,10.5,3.8c2-0.2,5.1-0.1,7.2-0.1l7.2-0.1c4.7,0.2,9.5,0.1,14.3,0.1
		c0.8,0.1,1.2,4.2,4.7,6.1c2.5,1.3,6.1,1.4,9.5,1.4c3.9,0,18.1-0.5,20.9,0.4c0.5,2.1-0.3,5.4,1,9.8c0.8,3,2.2,4.7,4.7,5.9
		c4.4,2,14.4,1.2,20,1.2c11.8,0,31.3,0.9,42.2,0c3.8-0.3,5.7-0.7,8.4-2.5c6.7-4.5,6.9-16.5,7.9-24.3c1.6-12.5,3.5-25.1,5.1-37.6
		c1.6-12.5,3.3-25.4,5.2-37.8c0.5-3.1,1.1-6.2,1.6-9.2C790.1,1182.7,791.3,1175.3,788.6,1169.9z M784.5,1188.2
		c-3.3,23.5-6.8,47.5-9.8,71c-1,7.9-1.9,16-3,23.9c-0.5,3.9-1.6,7.6-3.7,9.7c-2.7,2.7-6.1,2.6-10.8,2.7c-13.4,0.2-26.9,0.2-40.4,0.1
		c-4,0-9.2,0.2-13-0.4c-4.4-0.7-6.2-2.5-6.3-7.4c-0.1-3.7,0.9-8.4,1.4-12c1.1-7.9,2.2-15.7,3.3-23.6c2.1-15.8,4.2-31.7,6.4-47.5
		c1.1-7.9,2.1-15.8,3.3-23.7c1.6-10.4,3.3-12.2,14.3-12.6c4.3-0.2,8.8,0,13.2,0.1c6.8,0,35.8-0.3,40.1,0.3c4.5,0.6,6.3,2.4,6.4,7.2
		C785.8,1180,785,1184.5,784.5,1188.2z"/>
	<path class="st0" d="M704.2,1279.7c4.7,0.3,10.5,0,15.3,0c14.7,0,30.1-0.1,44.8,0c0.5,0,1.5,0.1,1.8-0.2
		c0.3-0.4,10.5-76.7,12.5-91.1c0.2-1.7,0.8-4.5,0.8-6.2l-61.5-0.1c-0.4,0.2-0.2,0-0.4,0.4l-10,72.8c-0.6,4-1.1,8.1-1.7,12.2
		L704.2,1279.7z M704.2,1279.7"/>
	<path class="st0" d="M759.2,1175.3c-3.6-1.3-11.5-0.8-15.7-0.7c-1.5,0-4.7-0.5-4.2,1.5c0.3,1.2,3.8,0.9,4.8,0.9l11.4,0
		C757.6,1177,758.9,1177.4,759.2,1175.3L759.2,1175.3z M759.2,1175.3"/>
	<path class="st0" d="M742.3,1224.9c2.2,0,4-1.9,4.1-4.2C744.4,1220.9,742.8,1222.8,742.3,1224.9L742.3,1224.9z M742.3,1224.9"/>
	<path class="st1" d="M744,1219.2c2-2.1,4.4-1.8,4.4-1.8s0.1,2.2-1.9,4.1c-2.1,2-4.2,1.4-4.2,1.4S742.2,1221,744,1219.2z
		 M744.8,1243.7c-1.5-0.2-2.6-1.4-4.2-1.6c-1.7-0.2-3.4,0.7-4.5,0.5c-3.1-0.4-6.1-7.5-5.5-12.8c0.6-5.3,4.3-7.6,7.3-7.2
		c2,0.2,3.4,1.6,4.4,1.7c0.9,0.1,2.7-0.9,4.9-0.6c3.7,0.5,4.8,3.3,4.8,3.3s-3,1.1-3.5,4.7c-0.5,4,2.9,5.8,2.9,5.8
		S748.2,1244.1,744.8,1243.7z"/>
	<path class="st0" d="M919.9,1257.6c2.9,0,9,0.4,11.4-0.9c2.4-1.2,2.9-4,1.5-6.4c-0.4-0.7-0.7-0.9-1.4-1.3c-2.2-1.3-7-1-9.7-1
		c-3.6,0-7.7,1-8.4,4.1C912.5,1255.9,916.4,1257.6,919.9,1257.6L919.9,1257.6z M919.9,1257.6"/>
	<path class="st0" d="M933.7,1182.1c-2.6,0.5-7.8,1.9-6.8,5.6c0.9,3.1,7.9,5.9,13.1,2.6C945.2,1187,939,1181.2,933.7,1182.1
		L933.7,1182.1z M933.7,1182.1"/>
	<path class="st0" d="M1089.6,1169.9c-3.1-6.2-9.6-5.2-16.1-5.4c-14.1-0.4-28.2-0.4-42.4-0.4c-6.5,0-13.2-0.5-17.5,3.7
		c-1.3,1.3-3.5,4.5-4.3,6.3c-5.4,0.8-10.6-0.4-15.8,1.2c-6.4,1.9-7.2,5.8-10.2,6.9c-6.6,2.4-26.8-3.9-28.9,3.4
		c-1.8,6.1,6.2,6,10.7,6c2.9,0,5.5-0.2,8.3-0.3c2.9-0.1,5.3,0,8.1,0c3.7,0,12.5,1.6,9.3,6.2c-2.5,3.6-9.7,2.5-14.2,2.5l-51.2,0
		c-2.6,0-5.4,0.2-6.6,1.9c-1.4,1.9-0.2,4.8,1.1,5.9c4.5,4.1,55.6-1.6,60,2.3c0.8,0.7,1,2.2,0.8,3.1c-0.3,0.5-1.1,0.9-1.9,1.3
		c-4.4,2-14.6,0.8-19.3,0.7l-59.6,0c-2.3,0-5.9-0.4-7.3,1.7c-0.6,0.8-0.4,1.6-0.8,2.1v2.3c0.6,1.1-0.3,0.7,1.3,1.6
		c2,1.1,4.3,1.4,6.5,1.7c2.7,0.3,28.2-0.3,32.7-0.3c14.6,0,29.6-0.3,44.2,0c5.1,0.1,11.2,0,16.3,0.6c1.9,0.2,2.6,0.6,3.5,2
		c2.1,3.4-1.6,5.2-4.4,5.7c-2.9,0.6-7.3,0.3-10.7,0.3l-33.2-0.1c-3.6,0-7.4,0.2-10.8,0.1c-3.5,0-7.1,0.3-7.7,3.5
		c-0.7,3.7,2.4,5.4,5.5,5.7c5.2,0.4,15.9,0,21.8,0l22-0.3c3.4-0.1,7.6-0.1,7.4,3.8c-0.1,2-0.5,2-3,2.6c-4.2,1.1-11.3,0.7-15.5,0.3
		c-3.5-0.3-7.2-0.5-10.8-0.5c-3.2,0-7.5,0.1-9.3,1.9c-2.4,2.2-2,5.5,1.1,6.9c2.7,1.2,6.5,1,9.9,0.9l10.8-0.2c2.8-0.3,8.1-0.4,10.8,0
		c4.8,0.8,3.8,4.7,3.8,6.8c-2.8,0.8-1.3,0.9-5.8,1.6c-5.6,0.8-14.8,0.1-20.8,0.1c-9.6,0-19.4-0.1-28.8-0.1c-2.8,0-5.7,0-7.7,1.4
		c-1.1,0.8-1.3,2.5-1.2,4c0.3,4.1,6.3,4.3,10.5,3.8c2-0.2,5.1-0.1,7.2-0.1l7.2-0.1c4.7,0.2,9.5,0.1,14.3,0.1
		c0.8,0.1,1.2,4.2,4.7,6.1c2.5,1.3,6.1,1.4,9.5,1.4c3.9,0,18.1-0.5,20.9,0.4c0.5,2.1-0.3,5.4,1,9.8c0.8,3,2.2,4.7,4.7,5.9
		c4.4,2,14.4,1.2,20,1.2c11.8,0,31.3,0.9,42.2,0c3.8-0.3,5.7-0.7,8.4-2.5c6.7-4.5,6.9-16.5,7.9-24.3c1.6-12.5,3.5-25.1,5.1-37.6
		c1.6-12.5,3.3-25.4,5.2-37.8c0.5-3.1,1.1-6.2,1.6-9.2C1091,1182.7,1092.3,1175.3,1089.6,1169.9z M1085.4,1188.2
		c-3.3,23.5-6.8,47.5-9.8,71c-1,7.9-1.9,16-3,23.9c-0.5,3.9-1.6,7.6-3.7,9.7c-2.7,2.7-6.1,2.6-10.8,2.7c-13.4,0.2-26.9,0.2-40.4,0.1
		c-4,0-9.2,0.2-13-0.4c-4.4-0.7-6.2-2.5-6.3-7.4c-0.1-3.7,0.9-8.4,1.4-12c1.1-7.9,2.2-15.7,3.3-23.6c2.1-15.8,4.2-31.7,6.4-47.5
		c1.1-7.9,2.1-15.8,3.3-23.7c1.6-10.4,3.3-12.2,14.3-12.6c4.3-0.2,8.8,0,13.2,0.1c6.8,0,35.8-0.3,40.1,0.3c4.5,0.6,6.3,2.4,6.4,7.2
		C1086.7,1180,1085.9,1184.5,1085.4,1188.2z"/>
	<path class="st0" d="M1005.1,1279.7c4.7,0.3,10.5,0,15.3,0c14.7,0,30.1-0.1,44.8,0c0.5,0,1.5,0.1,1.8-0.2
		c0.3-0.4,10.5-76.7,12.5-91.1c0.2-1.7,0.8-4.5,0.8-6.2l-61.5-0.1c-0.4,0.2-0.2,0-0.4,0.4l-10,72.8c-0.6,4-1.1,8.1-1.7,12.2
		L1005.1,1279.7z M1005.1,1279.7"/>
	<path class="st0" d="M1060.2,1175.3c-3.6-1.3-11.5-0.8-15.7-0.7c-1.5,0-4.7-0.5-4.2,1.5c0.3,1.2,3.8,0.9,4.8,0.9l11.4,0
		C1058.5,1177,1059.8,1177.4,1060.2,1175.3L1060.2,1175.3z M1060.2,1175.3"/>
	<path class="st0" d="M1043.3,1224.9c2.2,0,4-1.9,4.1-4.2C1045.3,1220.9,1043.7,1222.8,1043.3,1224.9L1043.3,1224.9z M1043.3,1224.9
		"/>
	<path class="st1" d="M1044.9,1219.2c2-2.1,4.4-1.8,4.4-1.8s0.1,2.2-1.9,4.1c-2.1,2-4.2,1.4-4.2,1.4S1043.1,1221,1044.9,1219.2z
		 M1045.8,1243.7c-1.5-0.2-2.6-1.4-4.2-1.6c-1.7-0.2-3.4,0.7-4.5,0.5c-3.1-0.4-6.1-7.5-5.5-12.8c0.6-5.3,4.3-7.6,7.3-7.2
		c2,0.2,3.4,1.6,4.4,1.7c0.9,0.1,2.7-0.9,4.9-0.6c3.7,0.5,4.8,3.3,4.8,3.3s-3,1.1-3.5,4.7c-0.5,4,2.9,5.8,2.9,5.8
		S1049.1,1244.1,1045.8,1243.7z"/>
	<path class="st0" d="M17.1,1557.4c2.9,0,9,0.4,11.4-0.9c2.4-1.2,2.9-4,1.5-6.4c-0.4-0.7-0.7-0.9-1.4-1.3c-2.2-1.3-7-1-9.7-1
		c-3.6,0-7.7,1-8.4,4.1C9.7,1555.6,13.5,1557.4,17.1,1557.4L17.1,1557.4z M17.1,1557.4"/>
	<path class="st0" d="M30.8,1481.9c-2.6,0.5-7.8,1.9-6.8,5.6c0.9,3.1,7.9,5.9,13.1,2.6C42.4,1486.8,36.1,1481,30.8,1481.9
		L30.8,1481.9z M30.8,1481.9"/>
	<path class="st0" d="M186.7,1469.7c-3.1-6.2-9.6-5.2-16.1-5.4c-14.1-0.4-28.2-0.4-42.4-0.4c-6.5,0-13.2-0.5-17.5,3.7
		c-1.3,1.3-3.5,4.5-4.3,6.3c-5.4,0.8-10.6-0.4-15.8,1.2c-6.4,1.9-7.2,5.8-10.2,6.9c-6.6,2.4-26.8-3.9-28.9,3.4
		c-1.8,6.1,6.2,6,10.7,6c2.9,0,5.5-0.2,8.3-0.3c2.9-0.1,5.3,0,8.1,0c3.7,0,12.5,1.6,9.3,6.2c-2.5,3.6-9.7,2.5-14.2,2.5l-51.2,0
		c-2.6,0-5.4,0.2-6.6,1.9c-1.4,1.9-0.2,4.8,1.1,5.9c4.5,4.1,55.6-1.6,60,2.3c0.8,0.7,1,2.2,0.8,3.1c-0.3,0.5-1.1,0.9-1.9,1.3
		c-4.4,2-14.6,0.8-19.3,0.7l-59.6,0c-2.3,0-5.9-0.4-7.3,1.7c-0.6,0.8-0.4,1.6-0.8,2.1v2.3c0.6,1.1-0.3,0.7,1.3,1.6
		c2,1.1,4.3,1.4,6.5,1.7c2.7,0.3,28.2-0.3,32.7-0.3c14.6,0,29.6-0.3,44.2,0c5.1,0.1,11.2,0,16.3,0.6c1.9,0.2,2.6,0.6,3.5,2
		c2.1,3.4-1.6,5.2-4.4,5.7c-2.9,0.6-7.3,0.3-10.7,0.3l-33.2-0.1c-3.6,0-7.4,0.2-10.8,0.1c-3.5,0-7.1,0.3-7.7,3.5
		c-0.7,3.7,2.4,5.4,5.5,5.7c5.2,0.4,15.9,0,21.8,0l22-0.3c3.4-0.1,7.6-0.1,7.4,3.8c-0.1,2-0.5,2-3,2.6c-4.2,1.1-11.3,0.7-15.5,0.3
		c-3.5-0.3-7.2-0.5-10.8-0.5c-3.2,0-7.5,0.1-9.3,1.9c-2.4,2.2-2,5.5,1.1,6.9c2.7,1.2,6.5,1,9.9,0.9l10.8-0.2c2.8-0.3,8.1-0.4,10.8,0
		c4.8,0.8,3.8,4.7,3.8,6.8c-2.8,0.8-1.3,0.9-5.8,1.6c-5.6,0.8-14.8,0.1-20.8,0.1c-9.6,0-19.4-0.1-28.8-0.1c-2.8,0-5.7,0-7.7,1.4
		c-1.1,0.8-1.3,2.5-1.2,4c0.3,4.1,6.3,4.3,10.5,3.8c2-0.2,5.1-0.1,7.2-0.1l7.2-0.1c4.7,0.2,9.5,0.1,14.3,0.1
		c0.8,0.1,1.2,4.2,4.7,6.1c2.5,1.3,6.1,1.4,9.5,1.4c3.9,0,18.1-0.5,20.9,0.4c0.5,2.1-0.3,5.4,1,9.8c0.8,3,2.2,4.7,4.7,5.9
		c4.4,2,14.4,1.2,20,1.2c11.8,0,31.3,0.9,42.2,0c3.8-0.3,5.7-0.7,8.4-2.5c6.7-4.5,6.9-16.5,7.9-24.3c1.6-12.5,3.5-25.1,5.1-37.6
		c1.6-12.5,3.3-25.4,5.2-37.8c0.5-3.1,1.1-6.2,1.6-9.2C188.2,1482.5,189.4,1475.1,186.7,1469.7z M182.6,1488
		c-3.3,23.5-6.8,47.5-9.8,71c-1,7.9-1.9,16-3,23.9c-0.5,3.9-1.6,7.6-3.7,9.7c-2.7,2.7-6.1,2.6-10.8,2.7c-13.4,0.2-26.9,0.2-40.4,0.1
		c-4,0-9.2,0.2-13-0.4c-4.4-0.7-6.2-2.5-6.3-7.4c-0.1-3.7,0.9-8.4,1.4-12c1.1-7.9,2.2-15.7,3.3-23.6c2.1-15.8,4.2-31.7,6.4-47.5
		c1.1-7.9,2.1-15.8,3.3-23.7c1.6-10.4,3.3-12.2,14.3-12.6c4.3-0.2,8.8,0,13.2,0.1c6.8,0,35.8-0.3,40.1,0.3c4.5,0.6,6.3,2.4,6.4,7.2
		C183.9,1479.8,183.1,1484.2,182.6,1488z"/>
	<path class="st0" d="M102.3,1579.5c4.7,0.3,10.5,0,15.3,0c14.7,0,30.1-0.1,44.8,0c0.5,0,1.5,0.1,1.8-0.2
		c0.3-0.4,10.5-76.7,12.5-91.1c0.2-1.7,0.8-4.5,0.8-6.2l-61.5-0.1c-0.4,0.2-0.2,0-0.4,0.4l-10,72.8c-0.6,4-1.1,8.1-1.7,12.2
		L102.3,1579.5z M102.3,1579.5"/>
	<path class="st0" d="M157.3,1475c-3.6-1.3-11.5-0.8-15.7-0.7c-1.5,0-4.7-0.5-4.2,1.5c0.3,1.2,3.8,0.9,4.8,0.9l11.4,0
		C155.7,1476.8,157,1477.1,157.3,1475L157.3,1475z M157.3,1475"/>
	<path class="st0" d="M140.4,1524.7c2.2,0,4-1.9,4.1-4.2C142.5,1520.6,140.9,1522.6,140.4,1524.7L140.4,1524.7z M140.4,1524.7"/>
	<path class="st1" d="M142.1,1518.9c2-2.1,4.4-1.8,4.4-1.8s0.1,2.2-1.9,4.1c-2.1,2-4.2,1.4-4.2,1.4S140.3,1520.8,142.1,1518.9z
		 M142.9,1543.4c-1.5-0.2-2.6-1.4-4.2-1.6c-1.7-0.2-3.4,0.7-4.5,0.5c-3.1-0.4-6.1-7.5-5.5-12.8c0.6-5.3,4.3-7.6,7.3-7.2
		c2,0.2,3.4,1.6,4.4,1.7c0.9,0.1,2.7-0.9,4.9-0.6c3.7,0.5,4.8,3.3,4.8,3.3s-3,1.1-3.5,4.7c-0.5,4,2.9,5.8,2.9,5.8
		S146.3,1543.9,142.9,1543.4z"/>
	<path class="st0" d="M318,1557.4c2.9,0,9,0.4,11.4-0.9c2.4-1.2,2.9-4,1.5-6.4c-0.4-0.7-0.7-0.9-1.4-1.3c-2.2-1.3-7-1-9.7-1
		c-3.6,0-7.7,1-8.4,4.1C310.6,1555.6,314.5,1557.4,318,1557.4L318,1557.4z M318,1557.4"/>
	<path class="st0" d="M331.8,1481.9c-2.6,0.5-7.8,1.9-6.8,5.6c0.9,3.1,7.9,5.9,13.1,2.6C343.3,1486.8,337.1,1481,331.8,1481.9
		L331.8,1481.9z M331.8,1481.9"/>
	<path class="st0" d="M487.7,1469.7c-3.1-6.2-9.6-5.2-16.1-5.4c-14.1-0.4-28.2-0.4-42.4-0.4c-6.5,0-13.2-0.5-17.5,3.7
		c-1.3,1.3-3.5,4.5-4.3,6.3c-5.4,0.8-10.6-0.4-15.8,1.2c-6.4,1.9-7.2,5.8-10.2,6.9c-6.6,2.4-26.8-3.9-28.9,3.4
		c-1.8,6.1,6.2,6,10.7,6c2.9,0,5.5-0.2,8.3-0.3c2.9-0.1,5.3,0,8.1,0c3.7,0,12.5,1.6,9.3,6.2c-2.5,3.6-9.7,2.5-14.2,2.5l-51.2,0
		c-2.6,0-5.4,0.2-6.6,1.9c-1.4,1.9-0.2,4.8,1.1,5.9c4.5,4.1,55.6-1.6,60,2.3c0.8,0.7,1,2.2,0.8,3.1c-0.3,0.5-1.1,0.9-1.9,1.3
		c-4.4,2-14.6,0.8-19.3,0.7l-59.6,0c-2.3,0-5.9-0.4-7.3,1.7c-0.6,0.8-0.4,1.6-0.8,2.1v2.3c0.6,1.1-0.3,0.7,1.3,1.6
		c2,1.1,4.3,1.4,6.5,1.7c2.7,0.3,28.2-0.3,32.7-0.3c14.6,0,29.6-0.3,44.2,0c5.1,0.1,11.2,0,16.3,0.6c1.9,0.2,2.6,0.6,3.5,2
		c2.1,3.4-1.6,5.2-4.4,5.7c-2.9,0.6-7.3,0.3-10.7,0.3l-33.2-0.1c-3.6,0-7.4,0.2-10.8,0.1c-3.5,0-7.1,0.3-7.7,3.5
		c-0.7,3.7,2.4,5.4,5.5,5.7c5.2,0.4,15.9,0,21.8,0l22-0.3c3.4-0.1,7.6-0.1,7.4,3.8c-0.1,2-0.5,2-3,2.6c-4.2,1.1-11.3,0.7-15.5,0.3
		c-3.5-0.3-7.2-0.5-10.8-0.5c-3.2,0-7.5,0.1-9.3,1.9c-2.4,2.2-2,5.5,1.1,6.9c2.7,1.2,6.5,1,9.9,0.9l10.8-0.2c2.8-0.3,8.1-0.4,10.8,0
		c4.8,0.8,3.8,4.7,3.8,6.8c-2.8,0.8-1.3,0.9-5.8,1.6c-5.6,0.8-14.8,0.1-20.8,0.1c-9.6,0-19.4-0.1-28.8-0.1c-2.8,0-5.7,0-7.7,1.4
		c-1.1,0.8-1.3,2.5-1.2,4c0.3,4.1,6.3,4.3,10.5,3.8c2-0.2,5.1-0.1,7.2-0.1l7.2-0.1c4.7,0.2,9.5,0.1,14.3,0.1
		c0.8,0.1,1.2,4.2,4.7,6.1c2.5,1.3,6.1,1.4,9.5,1.4c3.9,0,18.1-0.5,20.9,0.4c0.5,2.1-0.3,5.4,1,9.8c0.8,3,2.2,4.7,4.7,5.9
		c4.4,2,14.4,1.2,20,1.2c11.8,0,31.3,0.9,42.2,0c3.8-0.3,5.7-0.7,8.4-2.5c6.7-4.5,6.9-16.5,7.9-24.3c1.6-12.5,3.5-25.1,5.1-37.6
		c1.6-12.5,3.3-25.4,5.2-37.8c0.5-3.1,1.1-6.2,1.6-9.2C489.2,1482.5,490.4,1475.1,487.7,1469.7z M483.5,1488
		c-3.3,23.5-6.8,47.5-9.8,71c-1,7.9-1.9,16-3,23.9c-0.5,3.9-1.6,7.6-3.7,9.7c-2.7,2.7-6.1,2.6-10.8,2.7c-13.4,0.2-26.9,0.2-40.4,0.1
		c-4,0-9.2,0.2-13-0.4c-4.4-0.7-6.2-2.5-6.3-7.4c-0.1-3.7,0.9-8.4,1.4-12c1.1-7.9,2.2-15.7,3.3-23.6c2.1-15.8,4.2-31.7,6.4-47.5
		c1.1-7.9,2.1-15.8,3.3-23.7c1.6-10.4,3.3-12.2,14.3-12.6c4.3-0.2,8.8,0,13.2,0.1c6.8,0,35.8-0.3,40.1,0.3c4.5,0.6,6.3,2.4,6.4,7.2
		C484.9,1479.8,484,1484.2,483.5,1488z"/>
	<path class="st0" d="M403.2,1579.5c4.7,0.3,10.5,0,15.3,0c14.7,0,30.1-0.1,44.8,0c0.5,0,1.5,0.1,1.8-0.2
		c0.3-0.4,10.5-76.7,12.5-91.1c0.2-1.7,0.8-4.5,0.8-6.2l-61.5-0.1c-0.4,0.2-0.2,0-0.4,0.4l-10,72.8c-0.6,4-1.1,8.1-1.7,12.2
		L403.2,1579.5z M403.2,1579.5"/>
	<path class="st0" d="M458.3,1475c-3.6-1.3-11.5-0.8-15.7-0.7c-1.5,0-4.7-0.5-4.2,1.5c0.3,1.2,3.8,0.9,4.8,0.9l11.4,0
		C456.6,1476.8,457.9,1477.1,458.3,1475L458.3,1475z M458.3,1475"/>
	<path class="st0" d="M441.4,1524.7c2.2,0,4-1.9,4.1-4.2C443.5,1520.6,441.8,1522.6,441.4,1524.7L441.4,1524.7z M441.4,1524.7"/>
	<path class="st1" d="M443,1518.9c2-2.1,4.4-1.8,4.4-1.8s0.1,2.2-1.9,4.1c-2.1,2-4.2,1.4-4.2,1.4S441.2,1520.8,443,1518.9z
		 M443.9,1543.4c-1.5-0.2-2.6-1.4-4.2-1.6c-1.7-0.2-3.4,0.7-4.5,0.5c-3.1-0.4-6.1-7.5-5.5-12.8c0.6-5.3,4.3-7.6,7.3-7.2
		c2,0.2,3.4,1.6,4.4,1.7c0.9,0.1,2.7-0.9,4.9-0.6c3.7,0.5,4.8,3.3,4.8,3.3s-3,1.1-3.5,4.7c-0.5,4,2.9,5.8,2.9,5.8
		S447.2,1543.9,443.9,1543.4z"/>
	<path class="st0" d="M618.9,1557.4c2.9,0,9,0.4,11.4-0.9c2.4-1.2,2.9-4,1.5-6.4c-0.4-0.7-0.7-0.9-1.4-1.3c-2.2-1.3-7-1-9.7-1
		c-3.6,0-7.7,1-8.4,4.1C611.6,1555.6,615.4,1557.4,618.9,1557.4L618.9,1557.4z M618.9,1557.4"/>
	<path class="st0" d="M632.7,1481.9c-2.6,0.5-7.8,1.9-6.8,5.6c0.9,3.1,7.9,5.9,13.1,2.6C644.3,1486.8,638,1481,632.7,1481.9
		L632.7,1481.9z M632.7,1481.9"/>
	<path class="st0" d="M788.6,1469.7c-3.1-6.2-9.6-5.2-16.1-5.4c-14.1-0.4-28.2-0.4-42.4-0.4c-6.5,0-13.2-0.5-17.5,3.7
		c-1.3,1.3-3.5,4.5-4.3,6.3c-5.4,0.8-10.6-0.4-15.8,1.2c-6.4,1.9-7.2,5.8-10.2,6.9c-6.6,2.4-26.8-3.9-28.9,3.4
		c-1.8,6.1,6.2,6,10.7,6c2.9,0,5.5-0.2,8.3-0.3c2.9-0.1,5.3,0,8.1,0c3.7,0,12.5,1.6,9.3,6.2c-2.5,3.6-9.7,2.5-14.2,2.5l-51.2,0
		c-2.6,0-5.4,0.2-6.6,1.9c-1.4,1.9-0.2,4.8,1.1,5.9c4.5,4.1,55.6-1.6,60,2.3c0.8,0.7,1,2.2,0.8,3.1c-0.3,0.5-1.1,0.9-1.9,1.3
		c-4.4,2-14.6,0.8-19.3,0.7l-59.6,0c-2.3,0-5.9-0.4-7.3,1.7c-0.6,0.8-0.4,1.6-0.8,2.1v2.3c0.6,1.1-0.3,0.7,1.3,1.6
		c2,1.1,4.3,1.4,6.5,1.7c2.7,0.3,28.2-0.3,32.7-0.3c14.6,0,29.6-0.3,44.2,0c5.1,0.1,11.2,0,16.3,0.6c1.9,0.2,2.6,0.6,3.5,2
		c2.1,3.4-1.6,5.2-4.4,5.7c-2.9,0.6-7.3,0.3-10.7,0.3l-33.2-0.1c-3.6,0-7.4,0.2-10.8,0.1c-3.5,0-7.1,0.3-7.7,3.5
		c-0.7,3.7,2.4,5.4,5.5,5.7c5.2,0.4,15.9,0,21.8,0l22-0.3c3.4-0.1,7.6-0.1,7.4,3.8c-0.1,2-0.5,2-3,2.6c-4.2,1.1-11.3,0.7-15.5,0.3
		c-3.5-0.3-7.2-0.5-10.8-0.5c-3.2,0-7.5,0.1-9.3,1.9c-2.4,2.2-2,5.5,1.1,6.9c2.7,1.2,6.5,1,9.9,0.9l10.8-0.2c2.8-0.3,8.1-0.4,10.8,0
		c4.8,0.8,3.8,4.7,3.8,6.8c-2.8,0.8-1.3,0.9-5.8,1.6c-5.6,0.8-14.8,0.1-20.8,0.1c-9.6,0-19.4-0.1-28.8-0.1c-2.8,0-5.7,0-7.7,1.4
		c-1.1,0.8-1.3,2.5-1.2,4c0.3,4.1,6.3,4.3,10.5,3.8c2-0.2,5.1-0.1,7.2-0.1l7.2-0.1c4.7,0.2,9.5,0.1,14.3,0.1
		c0.8,0.1,1.2,4.2,4.7,6.1c2.5,1.3,6.1,1.4,9.5,1.4c3.9,0,18.1-0.5,20.9,0.4c0.5,2.1-0.3,5.4,1,9.8c0.8,3,2.2,4.7,4.7,5.9
		c4.4,2,14.4,1.2,20,1.2c11.8,0,31.3,0.9,42.2,0c3.8-0.3,5.7-0.7,8.4-2.5c6.7-4.5,6.9-16.5,7.9-24.3c1.6-12.5,3.5-25.1,5.1-37.6
		c1.6-12.5,3.3-25.4,5.2-37.8c0.5-3.1,1.1-6.2,1.6-9.2C790.1,1482.5,791.3,1475.1,788.6,1469.7z M784.5,1488
		c-3.3,23.5-6.8,47.5-9.8,71c-1,7.9-1.9,16-3,23.9c-0.5,3.9-1.6,7.6-3.7,9.7c-2.7,2.7-6.1,2.6-10.8,2.7c-13.4,0.2-26.9,0.2-40.4,0.1
		c-4,0-9.2,0.2-13-0.4c-4.4-0.7-6.2-2.5-6.3-7.4c-0.1-3.7,0.9-8.4,1.4-12c1.1-7.9,2.2-15.7,3.3-23.6c2.1-15.8,4.2-31.7,6.4-47.5
		c1.1-7.9,2.1-15.8,3.3-23.7c1.6-10.4,3.3-12.2,14.3-12.6c4.3-0.2,8.8,0,13.2,0.1c6.8,0,35.8-0.3,40.1,0.3c4.5,0.6,6.3,2.4,6.4,7.2
		C785.8,1479.8,785,1484.2,784.5,1488z"/>
	<path class="st0" d="M704.2,1579.5c4.7,0.3,10.5,0,15.3,0c14.7,0,30.1-0.1,44.8,0c0.5,0,1.5,0.1,1.8-0.2
		c0.3-0.4,10.5-76.7,12.5-91.1c0.2-1.7,0.8-4.5,0.8-6.2l-61.5-0.1c-0.4,0.2-0.2,0-0.4,0.4l-10,72.8c-0.6,4-1.1,8.1-1.7,12.2
		L704.2,1579.5z M704.2,1579.5"/>
	<path class="st0" d="M759.2,1475c-3.6-1.3-11.5-0.8-15.7-0.7c-1.5,0-4.7-0.5-4.2,1.5c0.3,1.2,3.8,0.9,4.8,0.9l11.4,0
		C757.6,1476.8,758.9,1477.1,759.2,1475L759.2,1475z M759.2,1475"/>
	<path class="st0" d="M742.3,1524.7c2.2,0,4-1.9,4.1-4.2C744.4,1520.6,742.8,1522.6,742.3,1524.7L742.3,1524.7z M742.3,1524.7"/>
	<path class="st1" d="M744,1518.9c2-2.1,4.4-1.8,4.4-1.8s0.1,2.2-1.9,4.1c-2.1,2-4.2,1.4-4.2,1.4S742.2,1520.8,744,1518.9z
		 M744.8,1543.4c-1.5-0.2-2.6-1.4-4.2-1.6c-1.7-0.2-3.4,0.7-4.5,0.5c-3.1-0.4-6.1-7.5-5.5-12.8c0.6-5.3,4.3-7.6,7.3-7.2
		c2,0.2,3.4,1.6,4.4,1.7c0.9,0.1,2.7-0.9,4.9-0.6c3.7,0.5,4.8,3.3,4.8,3.3s-3,1.1-3.5,4.7c-0.5,4,2.9,5.8,2.9,5.8
		S748.2,1543.9,744.8,1543.4z"/>
	<path class="st0" d="M919.9,1557.4c2.9,0,9,0.4,11.4-0.9c2.4-1.2,2.9-4,1.5-6.4c-0.4-0.7-0.7-0.9-1.4-1.3c-2.2-1.3-7-1-9.7-1
		c-3.6,0-7.7,1-8.4,4.1C912.5,1555.6,916.4,1557.4,919.9,1557.4L919.9,1557.4z M919.9,1557.4"/>
	<path class="st0" d="M933.7,1481.9c-2.6,0.5-7.8,1.9-6.8,5.6c0.9,3.1,7.9,5.9,13.1,2.6C945.2,1486.8,939,1481,933.7,1481.9
		L933.7,1481.9z M933.7,1481.9"/>
	<path class="st0" d="M1089.6,1469.7c-3.1-6.2-9.6-5.2-16.1-5.4c-14.1-0.4-28.2-0.4-42.4-0.4c-6.5,0-13.2-0.5-17.5,3.7
		c-1.3,1.3-3.5,4.5-4.3,6.3c-5.4,0.8-10.6-0.4-15.8,1.2c-6.4,1.9-7.2,5.8-10.2,6.9c-6.6,2.4-26.8-3.9-28.9,3.4
		c-1.8,6.1,6.2,6,10.7,6c2.9,0,5.5-0.2,8.3-0.3c2.9-0.1,5.3,0,8.1,0c3.7,0,12.5,1.6,9.3,6.2c-2.5,3.6-9.7,2.5-14.2,2.5l-51.2,0
		c-2.6,0-5.4,0.2-6.6,1.9c-1.4,1.9-0.2,4.8,1.1,5.9c4.5,4.1,55.6-1.6,60,2.3c0.8,0.7,1,2.2,0.8,3.1c-0.3,0.5-1.1,0.9-1.9,1.3
		c-4.4,2-14.6,0.8-19.3,0.7l-59.6,0c-2.3,0-5.9-0.4-7.3,1.7c-0.6,0.8-0.4,1.6-0.8,2.1v2.3c0.6,1.1-0.3,0.7,1.3,1.6
		c2,1.1,4.3,1.4,6.5,1.7c2.7,0.3,28.2-0.3,32.7-0.3c14.6,0,29.6-0.3,44.2,0c5.1,0.1,11.2,0,16.3,0.6c1.9,0.2,2.6,0.6,3.5,2
		c2.1,3.4-1.6,5.2-4.4,5.7c-2.9,0.6-7.3,0.3-10.7,0.3l-33.2-0.1c-3.6,0-7.4,0.2-10.8,0.1c-3.5,0-7.1,0.3-7.7,3.5
		c-0.7,3.7,2.4,5.4,5.5,5.7c5.2,0.4,15.9,0,21.8,0l22-0.3c3.4-0.1,7.6-0.1,7.4,3.8c-0.1,2-0.5,2-3,2.6c-4.2,1.1-11.3,0.7-15.5,0.3
		c-3.5-0.3-7.2-0.5-10.8-0.5c-3.2,0-7.5,0.1-9.3,1.9c-2.4,2.2-2,5.5,1.1,6.9c2.7,1.2,6.5,1,9.9,0.9l10.8-0.2c2.8-0.3,8.1-0.4,10.8,0
		c4.8,0.8,3.8,4.7,3.8,6.8c-2.8,0.8-1.3,0.9-5.8,1.6c-5.6,0.8-14.8,0.1-20.8,0.1c-9.6,0-19.4-0.1-28.8-0.1c-2.8,0-5.7,0-7.7,1.4
		c-1.1,0.8-1.3,2.5-1.2,4c0.3,4.1,6.3,4.3,10.5,3.8c2-0.2,5.1-0.1,7.2-0.1l7.2-0.1c4.7,0.2,9.5,0.1,14.3,0.1
		c0.8,0.1,1.2,4.2,4.7,6.1c2.5,1.3,6.1,1.4,9.5,1.4c3.9,0,18.1-0.5,20.9,0.4c0.5,2.1-0.3,5.4,1,9.8c0.8,3,2.2,4.7,4.7,5.9
		c4.4,2,14.4,1.2,20,1.2c11.8,0,31.3,0.9,42.2,0c3.8-0.3,5.7-0.7,8.4-2.5c6.7-4.5,6.9-16.5,7.9-24.3c1.6-12.5,3.5-25.1,5.1-37.6
		c1.6-12.5,3.3-25.4,5.2-37.8c0.5-3.1,1.1-6.2,1.6-9.2C1091,1482.5,1092.3,1475.1,1089.6,1469.7z M1085.4,1488
		c-3.3,23.5-6.8,47.5-9.8,71c-1,7.9-1.9,16-3,23.9c-0.5,3.9-1.6,7.6-3.7,9.7c-2.7,2.7-6.1,2.6-10.8,2.7c-13.4,0.2-26.9,0.2-40.4,0.1
		c-4,0-9.2,0.2-13-0.4c-4.4-0.7-6.2-2.5-6.3-7.4c-0.1-3.7,0.9-8.4,1.4-12c1.1-7.9,2.2-15.7,3.3-23.6c2.1-15.8,4.2-31.7,6.4-47.5
		c1.1-7.9,2.1-15.8,3.3-23.7c1.6-10.4,3.3-12.2,14.3-12.6c4.3-0.2,8.8,0,13.2,0.1c6.8,0,35.8-0.3,40.1,0.3c4.5,0.6,6.3,2.4,6.4,7.2
		C1086.7,1479.8,1085.9,1484.2,1085.4,1488z"/>
	<path class="st0" d="M1005.1,1579.5c4.7,0.3,10.5,0,15.3,0c14.7,0,30.1-0.1,44.8,0c0.5,0,1.5,0.1,1.8-0.2
		c0.3-0.4,10.5-76.7,12.5-91.1c0.2-1.7,0.8-4.5,0.8-6.2l-61.5-0.1c-0.4,0.2-0.2,0-0.4,0.4l-10,72.8c-0.6,4-1.1,8.1-1.7,12.2
		L1005.1,1579.5z M1005.1,1579.5"/>
	<path class="st0" d="M1060.2,1475c-3.6-1.3-11.5-0.8-15.7-0.7c-1.5,0-4.7-0.5-4.2,1.5c0.3,1.2,3.8,0.9,4.8,0.9l11.4,0
		C1058.5,1476.8,1059.8,1477.1,1060.2,1475L1060.2,1475z M1060.2,1475"/>
	<path class="st0" d="M1043.3,1524.7c2.2,0,4-1.9,4.1-4.2C1045.3,1520.6,1043.7,1522.6,1043.3,1524.7L1043.3,1524.7z M1043.3,1524.7
		"/>
	<path class="st1" d="M1044.9,1518.9c2-2.1,4.4-1.8,4.4-1.8s0.1,2.2-1.9,4.1c-2.1,2-4.2,1.4-4.2,1.4S1043.1,1520.8,1044.9,1518.9z
		 M1045.8,1543.4c-1.5-0.2-2.6-1.4-4.2-1.6c-1.7-0.2-3.4,0.7-4.5,0.5c-3.1-0.4-6.1-7.5-5.5-12.8c0.6-5.3,4.3-7.6,7.3-7.2
		c2,0.2,3.4,1.6,4.4,1.7c0.9,0.1,2.7-0.9,4.9-0.6c3.7,0.5,4.8,3.3,4.8,3.3s-3,1.1-3.5,4.7c-0.5,4,2.9,5.8,2.9,5.8
		S1049.1,1543.9,1045.8,1543.4z"/>
</g>
<g>
	<path class="st2" d="M672,1792.4v-2.8c-0.1-0.1-0.4-2.1-0.5-2.5c-0.2-0.7-0.5-1.5-0.8-2.1c-0.4-0.7-0.7-1.2-1.2-1.7
		c-4.6-4.8-14.6-4.2-19.2,0.5c-3.3,3.3-5,8.5-4.1,13c0.7,3.8,3.5,6.2,7.2,7.4c4.1,1.2,8.7,0.3,11.9-1.5l1.7-1.2
		c1.2-0.9,3.5-3.6,3.6-5.1c-0.6,0-1.3,0-1.9,0c-0.8,0-1-0.1-1.5,0.4c-0.6,0.5-0.9,1.5-1.5,2.1c-4,4.1-12.5,3.7-15.3-0.7
		c-0.5-0.7-0.8-1.7-0.9-2.7c0-0.4-0.1-1.4,0-1.8c0-0.4,0-0.4,0.4-0.5c1.7-0.3,12.5,0.1,15.1,0.1c3.5,0,3.5,0.2,6.8-0.4L672,1792.4z
		 M650.2,1790.6c1.3,0.1,16.1,0.1,18.5,0c0-2.5-0.7-4.1-2.1-5.4c-1.1-1.1-3.5-2.1-5.5-2.1c-3.2,0-5,0.4-7.7,2.2
		C652,1786.2,650.2,1788.4,650.2,1790.6L650.2,1790.6z M650.2,1790.6"/>
	<path class="st2" d="M645.9,1772h-1.8c-0.3,0.2-1,0.1-1.5,0.1l-0.1,0.1l-3.8,31.9l3.3-0.1L645.9,1772z M645.9,1772"/>
	<path class="st3" d="M636.3,1772h-0.8c0,0.8-0.2,1.7-0.3,2.5c-0.1,0.6-0.3,1.9-0.2,2.5l3.3,0l0.7-4.9L636.3,1772z M636.3,1772"/>
	<path class="st2" d="M424.4,1826.5c1.7,0,5.2,0.2,6.6-0.5c1.4-0.7,1.7-2.4,0.9-3.7c-0.3-0.4-0.4-0.5-0.8-0.8
		c-1.3-0.7-4.1-0.6-5.6-0.6c-2.1,0-4.5,0.6-4.9,2.4C420.1,1825.5,422.4,1826.5,424.4,1826.5L424.4,1826.5z M424.4,1826.5"/>
	<path class="st2" d="M432.4,1782.5c-1.5,0.3-4.6,1.1-3.9,3.3c0.5,1.8,4.6,3.4,7.6,1.5C439.2,1785.4,435.5,1782,432.4,1782.5
		L432.4,1782.5z M432.4,1782.5"/>
	<path class="st2" d="M523.2,1775.4c-1.8-3.6-5.6-3-9.4-3.2c-8.2-0.3-16.4-0.2-24.7-0.2c-3.8,0-7.7-0.3-10.2,2.2
		c-0.8,0.8-2,2.6-2.5,3.7c-3.2,0.5-6.2-0.2-9.2,0.7c-3.7,1.1-4.2,3.4-5.9,4c-3.8,1.4-15.6-2.3-16.8,2c-1,3.6,3.6,3.5,6.2,3.5
		c1.7,0,3.2-0.1,4.8-0.2c1.7-0.1,3.1,0,4.7,0c2.2,0,7.3,0.9,5.4,3.6c-1.5,2.1-5.6,1.5-8.3,1.5l-29.8,0c-1.5,0-3.1,0.1-3.8,1.1
		c-0.8,1.1-0.1,2.8,0.6,3.4c2.6,2.4,32.4-0.9,35,1.4c0.5,0.4,0.6,1.3,0.5,1.8c-0.2,0.3-0.7,0.5-1.1,0.7c-2.6,1.2-8.5,0.4-11.2,0.4
		l-34.7,0c-1.3,0-3.4-0.2-4.3,1c-0.3,0.5-0.3,0.9-0.4,1.2v1.4c0.4,0.7-0.2,0.4,0.8,0.9c1.2,0.6,2.5,0.8,3.8,1
		c1.6,0.2,16.4-0.2,19-0.2c8.5,0,17.2-0.1,25.7,0c3,0.1,6.5,0,9.5,0.3c1.1,0.1,1.5,0.3,2.1,1.1c1.3,2-0.9,3-2.6,3.3
		c-1.7,0.3-4.3,0.2-6.2,0.2l-19.3-0.1c-2.1,0-4.3,0.1-6.3,0.1c-2.1,0-4.1,0.2-4.5,2c-0.4,2.1,1.4,3.1,3.2,3.3c3,0.3,9.3,0,12.7,0
		l12.8-0.2c2-0.1,4.4,0,4.3,2.2c-0.1,1.2-0.3,1.1-1.7,1.5c-2.5,0.6-6.6,0.4-9,0.2c-2.1-0.2-4.2-0.3-6.3-0.3c-1.8,0-4.4,0.1-5.4,1.1
		c-1.4,1.3-1.2,3.2,0.7,4c1.6,0.7,3.8,0.6,5.7,0.5l6.3-0.1c1.7-0.2,4.7-0.2,6.3,0c2.8,0.5,2.2,2.7,2.2,3.9c-1.6,0.5-0.7,0.5-3.4,0.9
		c-3.3,0.5-8.6,0.1-12.1,0.1c-5.6,0-11.3-0.1-16.8-0.1c-1.6,0-3.3,0-4.5,0.8c-0.7,0.5-0.8,1.5-0.7,2.3c0.2,2.4,3.6,2.5,6.1,2.2
		c1.2-0.1,3,0,4.2,0l4.2-0.1c2.7,0.1,5.6,0.1,8.3,0.1c0.5,0.1,0.7,2.5,2.7,3.6c1.4,0.8,3.6,0.8,5.5,0.8c2.3,0,10.5-0.3,12.2,0.2
		c0.3,1.2-0.1,3.1,0.6,5.7c0.5,1.7,1.3,2.7,2.8,3.4c2.6,1.2,8.4,0.7,11.6,0.7c6.9,0,18.2,0.5,24.6,0c2.2-0.2,3.3-0.4,4.9-1.4
		c3.9-2.6,4-9.6,4.6-14.1c0.9-7.3,2-14.6,3-21.9c1-7.3,1.9-14.8,3-22c0.3-1.8,0.6-3.6,0.9-5.4
		C524.1,1782.9,524.8,1778.6,523.2,1775.4z M520.8,1786.1c-1.9,13.7-4,27.6-5.7,41.3c-0.6,4.6-1.1,9.3-1.7,13.9
		c-0.3,2.3-0.9,4.4-2.2,5.6c-1.6,1.5-3.6,1.5-6.3,1.6c-7.8,0.1-15.7,0.1-23.5,0.1c-2.3,0-5.4,0.1-7.6-0.2c-2.6-0.4-3.6-1.5-3.7-4.3
		c0-2.1,0.5-4.9,0.8-7c0.7-4.6,1.3-9.1,1.9-13.7c1.2-9.2,2.4-18.5,3.7-27.7c0.6-4.6,1.2-9.2,1.9-13.8c0.9-6.1,1.9-7.1,8.3-7.3
		c2.5-0.1,5.1,0,7.7,0c4,0,20.8-0.2,23.3,0.2c2.6,0.4,3.7,1.4,3.7,4.2C521.6,1781.3,521.1,1783.9,520.8,1786.1z"/>
	<path class="st2" d="M609.8,1772h-2.5c-0.3,0.4-0.3,1-0.4,2c-0.4,3.6-3.9,29.4-3.8,30l3.3,0l0.6-4c0.4,0.1,0.1,0,0.4,0.3
		c1.6,1.8,2.2,3.1,5.1,4c2.7,0.8,5.9,0.5,8.4-0.3c2.7-0.9,4.4-2.2,5.8-3.9c1.5-1.7,2.7-4.4,3-6.7c2.4-14.7-13.6-15.8-19.6-9.8
		c-0.2,0.2-0.4,0.4-0.6,0.6c-0.2,0.3-0.3,0.5-0.6,0.7l1.5-12.7L609.8,1772z M615.6,1801.9c1.7,0,3.2-0.2,4.7-0.9
		c1.5-0.7,3-1.8,3.9-3.1c1.1-1.6,1.7-2.6,2.1-4.8c0.3-1.3,0.4-2.9,0.1-4.2c-0.3-1.5-0.8-2.2-1.5-3.1c-0.6-0.7-0.2-0.4-1.2-1.1
		c-0.3-0.3-1-0.6-1.5-0.9c-5.4-2.4-12.7,0.7-14.3,7.5c-0.8,3.4,0,6.1,1.9,8.2c0.1,0.1,0,0,0.1,0.1c0,0,0.1,0.1,0.2,0.1
		c0.7,0.5,0.5,0.6,1.7,1.2C612.7,1801.4,614.4,1801.9,615.6,1801.9L615.6,1801.9z M615.6,1801.9"/>
	<path class="st2" d="M575,1793.6c0,2.1,0.1,3.5,1.1,5.4c0.4,0.8,1.3,2.1,2,2.7c1.3,1,1.7,1.5,3.8,2.3c3.6,1.2,8.3,1.2,11.8-0.5
		c3.1-1.5,5-3.5,6.6-6.6c1.8-3.5,2-8.4,0-11.9c-1.5-2.8-4.7-4.3-7.7-4.7c-2.4-0.4-3.5-0.2-5.7,0.2c-5.1,0.7-8.6,4-10.5,8.2
		C575.7,1789.7,575,1792.1,575,1793.6L575,1793.6z M578.5,1793.8c0,3.7,1.9,6.3,5,7.5c6.9,2.6,15.2-2.8,14.6-11.1
		c-0.6-8.7-13-9.8-17.9-2.3C579.2,1789.3,578.5,1791.8,578.5,1793.8L578.5,1793.8z M578.5,1793.8"/>
	<path class="st2" d="M532.7,1804l3.3,0l0.8-6.8c0.6-5.2,1.3-11.9,2.1-16.9c0.1-0.8,0.3-2.4,0.6-3.1c0.7,1.3,2.2,5.2,2.8,6.8l5.2,14
		c0.6,1.7,1,3.5,2,5.2c0.7,1.1,0.9,1,2.1,1c1.3,0,2.5-1.7,3-2.6c0.7-1.2,1.8-3.2,2.6-4.3l2.7-4.2c0.2-0.2,0.4-0.6,0.6-0.8
		c0.2-0.3,0.4-0.6,0.6-0.9c0.2-0.3,0.3-0.5,0.6-0.8l8.3-12.7l-3.2,26.3l3.4,0l4-31.7c-0.8-0.1-2.3,0-3.1,0c-1.6,0-1.3-0.1-2.1,0.9
		c-2,2.7-5,7.3-6.7,10.2c-0.2,0.4-0.4,0.6-0.6,1c-0.7,1.2-1.7,2.6-2.4,3.7c-1.6,2.5-3.3,5.1-4.7,7.6c-0.3,0.5-2,3.1-2.5,3.6
		c-1-0.6-7.5-18.9-8.2-20.5c-0.8-2.1-1.5-4-2.4-6c-0.2-0.4-0.1-0.5-0.7-0.5H537c-0.4,0-0.4,0.7-0.6,1.6c-0.8,4.7-1.3,9.3-1.9,13.9
		C534.2,1789.6,532.5,1803.1,532.7,1804L532.7,1804z M532.7,1804"/>
	<path class="st4" d="M578.2,1825.3c-3.1,0.2-6.7,2.1-7,5l14,0.1C585.2,1826.6,582.1,1825,578.2,1825.3z"/>
	<path class="st4" d="M670.1,1808.7c-0.6-1.1-0.4-1-1.8-1.1c-2.2-0.3-6.3-0.5-8.5-0.5c-9.9,0-19.6,0.2-29.4,0.2
		c-15.8,0-31.7-0.1-47.4-0.1c-7.9,0-15.8,0-23.7,0c-7.9,0-15.7,0.1-23.5,0.1c-1,0-2,0.1-2.9,0.1c-4.9,0-4.5,6.5-4.9,10l-3.3,26.4
		c-0.2,1.6-0.6,3.9-0.2,5.5c0.5,1.8,2,2.1,3.9,2.1c3.8,0,7.8-0.1,11.7-0.1c17,0,117.9-0.2,118.5,0.1h1.8c0.3-0.1,1.6-0.1,2.6-0.4
		c3.1-0.8,3-2.9,3.3-5.6l4-31.7C670.5,1811.5,671,1810.1,670.1,1808.7z M554.9,1820.3c-0.2,0.2-2.1,16.3-2.4,18.8
		c-0.1,1-0.6,5.6-0.8,6.2l-10.7,0.1l3-25.1l-11.8,0l0.8-7.4c11.6-0.1,23,0,34.6,0.1c0.1,0.8-0.7,7-0.9,7.4c-1.9,0.1-4-0.1-6-0.1
		c-1,0-2,0-3,0C557.1,1820.2,555.3,1820.1,554.9,1820.3z M594.7,1835.2l-24,0.2c-0.4,1,0.3,2.5,0.8,3.1c2.3,3.1,7.7,3,10.3,1.2
		c0.4-0.3,0.7-0.6,1-0.9c1.7-1.3,8.7-0.9,10.8-0.7c0.3,1.5-2.3,3.7-3,4.3c-1.3,1-3,1.9-4.8,2.6c-6.2,2.2-18.2,2.7-23.2-3.4
		c-2.5-3.1-2.5-7.6-1.1-11.8c2.4-7.2,10-10.4,19.5-10.1c6.6,0.2,12,2.5,13.5,8.7C594.8,1829.9,595.1,1833.8,594.7,1835.2z
		 M630.5,1830.2c-2.5,0.1-5,0.1-7.5,0.1c-1.7,0-2.1,0.3-2.6-1.2c-0.4-1.2-0.7-1.6-1.7-2.2c-2.9-1.8-8.7-1.1-11,2.5
		c-1,1.6-1.6,4-1.1,6.3c1,4.8,7,4.9,10.2,3.5c2.5-1.1,2.5-2.3,3.6-3.9l9.9,0c-0.1,1.8-1.5,3.9-2.4,5c-1.1,1.3-2.2,2.4-3.9,3.5
		c-2.8,1.7-7.9,2.6-11.9,2.7c-9.2,0.2-16.9-3.5-15.8-13.2c1-8.4,7.1-12.6,15.8-13.4c4.4-0.4,9.2-0.2,12.8,1.4
		c1.8,0.8,3.2,1.8,4.1,3.2C629.8,1825.6,631,1828.4,630.5,1830.2z M663.1,1834.2c-0.3,1.9-0.5,3.8-0.7,5.7c-0.1,1-0.2,1.9-0.4,2.8
		c-0.1,0.5-0.1,0.9-0.2,1.4c-0.1,0.5-0.1,1.2-0.4,1.3l-9.4,0c-0.1-3.8,0.9-7.6,1.4-11.2c0.6-4.7-0.1-7.3-5.3-6.7
		c-3.8,0.4-5.3,2.9-5.8,6.6c-0.5,3.7-0.9,7.4-1.4,11c-0.5,0.1-9.1,0.3-9.6,0.2c0.2-2.7,0.7-5.6,1-8.3c0.3-2.7,0.7-5.5,1-8.3
		c0.1-1,1.9-16.1,2.1-16.6l9.5,0l-1.3,11.6c1-0.4,2.6-1.7,4-2.4c1.5-0.7,3.2-1.1,5.1-1.2c4.2-0.3,7.8,0.4,9.5,3
		C664.4,1826,663.6,1830.6,663.1,1834.2z"/>
	<path class="st2" d="M634.3,1781.1l-2.8,22.9l3.3,0c0.3-1.1,0.3-1.6,0.4-2.8l1.8-14.3c0.1-0.9,0.2-1.9,0.4-2.8l0.4-3.4
		C637.1,1780.8,634.6,1780.9,634.3,1781.1L634.3,1781.1z M634.3,1781.1"/>
	<path class="st2" d="M488.9,1844.3c0.3,2.7,5.9,2.1,5.1-1.5C493.4,1839.9,488.5,1841,488.9,1844.3L488.9,1844.3z M488.9,1844.3"/>
	<path class="st3" d="M506.1,1778.5c-2.1-0.8-6.7-0.5-9.2-0.4c-0.9,0-2.7-0.3-2.5,0.9c0.2,0.7,2.2,0.5,2.8,0.5l6.6,0
		C505.1,1779.6,505.9,1779.8,506.1,1778.5L506.1,1778.5z M506.1,1778.5"/>
	<path class="st2" d="M482,1782.5c-0.2,0.1-0.1,0-0.2,0.2l-5.8,42.4c-0.3,2.3-0.7,4.7-1,7.1l-0.9,7.1c2.8,0.2,6.1,0,8.9,0
		c8.6,0,17.5-0.1,26.1,0c0.3,0,0.9,0.1,1-0.1c0.2-0.2,6.1-44.7,7.3-53.1c0.1-1,0.5-2.6,0.4-3.6L482,1782.5z M497.2,1804.1
		c1.2-1.2,2.6-1,2.6-1s0.1,1.3-1.1,2.4c-1.2,1.2-2.4,0.8-2.4,0.8S496.2,1805.2,497.2,1804.1z M501.6,1814.7c0,0-1.9,3.9-3.9,3.7
		c-0.9-0.1-1.5-0.8-2.5-0.9c-1-0.1-2,0.4-2.6,0.3c-1.8-0.2-3.6-4.4-3.2-7.5c0.4-3.1,2.5-4.4,4.3-4.2c1.2,0.1,2,0.9,2.6,1
		c0.5,0.1,1.6-0.5,2.8-0.4c2.2,0.3,2.8,1.9,2.8,1.9s-1.8,0.6-2,2.7C499.7,1813.7,501.6,1814.7,501.6,1814.7z"/>
</g>
</svg>
