<?xml version="1.0" encoding="utf-8"?>
<!-- Generator: Adobe Illustrator 24.0.1, SVG Export Plug-In . SVG Version: 6.00 Build 0)  -->
<svg version="1.1" id="Camada_1" xmlns="http://www.w3.org/2000/svg" xmlns:xlink="http://www.w3.org/1999/xlink" x="0px" y="0px"
	 viewBox="0 0 530.4 159.3" style="enable-background:new 0 0 530.4 159.3;" xml:space="preserve">
<style type="text/css">
	.st0{fill-rule:evenodd;clip-rule:evenodd;}
	.st1{fill-rule:evenodd;clip-rule:evenodd;fill:#050505;}
	.st2{fill-rule:evenodd;clip-rule:evenodd;fill:#1D1D1B;}
	.st3{fill-rule:evenodd;clip-rule:evenodd;fill:#CF141A;}
	.st4{fill-rule:evenodd;clip-rule:evenodd;fill:#D01E1D;}
	.st5{fill-rule:evenodd;clip-rule:evenodd;fill:#CE1417;}
	.st6{fill-rule:evenodd;clip-rule:evenodd;fill:#060606;}
</style>
<g>
	<path class="st0" d="M530.4,41v-5.5c-0.1-0.2-0.7-4.3-0.9-5c-0.4-1.4-0.9-3-1.6-4.2c-0.8-1.3-1.4-2.4-2.4-3.4
		c-9.3-9.7-29.3-8.4-38.5,0.9c-6.6,6.6-10,17.1-8.2,26.2c1.5,7.5,7,12.5,14.4,14.8c8.2,2.5,17.4,0.6,24-3l3.5-2.3
		c2.4-1.9,7.1-7.2,7.2-10.2c-1.3,0-2.5,0-3.8,0c-1.7,0-2-0.2-3,0.8c-1.2,1.1-1.8,3-3,4.3c-8.1,8.3-25.1,7.5-30.8-1.4
		c-0.9-1.5-1.7-3.4-1.9-5.4c-0.1-0.8-0.1-2.9,0-3.6c0.1-0.8,0-0.8,0.9-1c3.4-0.5,25.1,0.2,30.3,0.2c7.1,0,7,0.3,13.7-0.9L530.4,41z
		 M486.5,37.4c2.6,0.2,32.3,0.1,37.1,0.1c0-5.1-1.4-8.1-4.2-10.8c-2.2-2.2-7-4.2-11-4.2c-6.4,0-10.1,0.9-15.5,4.4
		C490.2,28.5,486.5,32.9,486.5,37.4L486.5,37.4z M486.5,37.4"/>
	<path class="st0" d="M477.9,0h-3.6c-0.6,0.3-2.1,0.1-3,0.1l-0.2,0.1l-7.7,64l6.6-0.2L477.9,0z M477.9,0"/>
	<path class="st6" d="M458.6,0H457c-0.1,1.7-0.4,3.4-0.6,5c-0.2,1.3-0.6,3.8-0.5,5l6.6,0l1.3-9.8L458.6,0z M458.6,0"/>
	<path class="st0" d="M33,109.5c3.4,0,10.5,0.4,13.3-1.1c2.8-1.5,3.4-4.7,1.8-7.5c-0.5-0.9-0.8-1-1.7-1.5c-2.5-1.5-8.2-1.1-11.3-1.1
		c-4.2,0-9,1.2-9.8,4.8C24.4,107.4,29,109.5,33,109.5L33,109.5z M33,109.5"/>
	<path class="st0" d="M49.2,21.2c-3,0.5-9.2,2.2-7.9,6.6c1,3.6,9.2,6.9,15.3,3C62.7,26.9,55.4,20.1,49.2,21.2L49.2,21.2z M49.2,21.2
		"/>
	<path class="st0" d="M231.5,6.9c-3.6-7.3-11.2-6.1-18.8-6.4C196.2,0,179.7,0,163.1,0c-7.6,0-15.5-0.6-20.5,4.4
		c-1.6,1.6-4.1,5.3-5.1,7.4c-6.4,0.9-12.4-0.4-18.5,1.4c-7.4,2.3-8.5,6.8-11.9,8.1c-7.7,2.8-31.4-4.5-33.8,3.9
		c-2.1,7.2,7.2,7.1,12.5,7.1c3.4,0,6.5-0.2,9.7-0.3c3.4-0.1,6.2,0,9.5,0c4.3,0,14.7,1.9,10.9,7.2c-3,4.2-11.3,3-16.7,3l-59.9,0
		c-3.1,0-6.3,0.3-7.7,2.3c-1.6,2.3-0.2,5.6,1.2,6.9c5.2,4.8,65-1.8,70.2,2.7c1,0.8,1.2,2.6,0.9,3.7c-0.4,0.6-1.3,1.1-2.2,1.5
		c-5.1,2.4-17.1,0.9-22.5,0.9l-69.8,0c-2.7,0-6.9-0.4-8.6,1.9C0.2,63,0.4,63.9,0,64.5v2.7c0.7,1.3-0.3,0.8,1.5,1.8
		c2.3,1.3,5,1.7,7.6,2c3.2,0.4,32.9-0.4,38.2-0.4c17.1,0,34.6-0.3,51.7,0c6,0.1,13.1,0,19.1,0.7c2.2,0.2,3.1,0.7,4.1,2.3
		c2.5,3.9-1.9,6-5.1,6.7c-3.4,0.7-8.6,0.4-12.5,0.4l-38.8-0.2c-4.2,0-8.6,0.2-12.7,0.2c-4.1,0-8.3,0.4-9,4.1
		c-0.8,4.3,2.8,6.3,6.5,6.6c6.1,0.5,18.6,0,25.5,0l25.8-0.3c3.9-0.1,8.9-0.1,8.7,4.4c-0.1,2.4-0.6,2.3-3.5,3
		c-4.9,1.2-13.2,0.8-18.1,0.3c-4.2-0.4-8.4-0.5-12.6-0.5c-3.7,0-8.7,0.2-10.9,2.2c-2.8,2.6-2.3,6.5,1.3,8.1
		c3.2,1.4,7.7,1.2,11.5,1.1l12.7-0.2c3.3-0.3,9.5-0.5,12.7,0c5.6,0.9,4.5,5.5,4.5,7.9c-3.2,1-1.5,1.1-6.8,1.8
		c-6.5,1-17.3,0.1-24.3,0.1c-11.2,0-22.6-0.2-33.7-0.2c-3.3,0-6.6-0.1-9,1.6c-1.3,1-1.6,3-1.4,4.7c0.4,4.8,7.3,5,12.3,4.5
		c2.4-0.3,5.9-0.1,8.5-0.1l8.4-0.2c5.5,0.3,11.2,0.2,16.7,0.2c1,0.2,1.4,5,5.5,7.1c2.9,1.6,7.1,1.6,11.1,1.6
		c4.6,0,21.2-0.6,24.4,0.4c0.6,2.4-0.3,6.3,1.2,11.5c1,3.5,2.5,5.5,5.5,6.9c5.1,2.4,16.9,1.4,23.4,1.4c13.9,0,36.6,1,49.4,0
		c4.5-0.3,6.7-0.8,9.8-2.9c7.8-5.2,8.1-19.3,9.2-28.4c1.8-14.7,4.1-29.4,6-44c1.9-14.7,3.9-29.7,6-44.2c0.5-3.6,1.2-7.3,1.8-10.8
		C233.2,21.8,234.7,13.2,231.5,6.9z M226.7,28.3c-3.8,27.5-8,55.5-11.5,83c-1.2,9.2-2.2,18.7-3.5,28c-0.6,4.5-1.9,8.9-4.4,11.3
		c-3.2,3.1-7.1,3-12.6,3.1c-15.7,0.3-31.5,0.3-47.2,0.1c-4.7,0-10.8,0.3-15.2-0.4c-5.2-0.8-7.3-2.9-7.4-8.6c-0.1-4.3,1-9.8,1.7-14.1
		c1.3-9.2,2.6-18.3,3.8-27.6c2.4-18.5,4.9-37.1,7.5-55.6c1.3-9.2,2.4-18.5,3.9-27.7c1.9-12.2,3.9-14.2,16.7-14.7
		c5.1-0.2,10.3,0,15.5,0.1c8,0,41.8-0.3,46.9,0.4c5.2,0.8,7.4,2.9,7.5,8.4C228.2,18.7,227.3,23.9,226.7,28.3z"/>
	<path class="st0" d="M405.4,0h-5.1c-0.7,0.8-0.6,2-0.8,3.9c-0.8,7.2-7.8,59.1-7.5,60.3l6.6,0l1.2-8c0.8,0.2,0.3,0,0.7,0.5
		c3.2,3.6,4.5,6.3,10.3,8c5.3,1.6,11.9,1.1,16.9-0.6c5.4-1.9,8.8-4.5,11.7-7.9c3.1-3.5,5.4-8.9,6.1-13.5
		c4.7-29.5-27.3-31.7-39.4-19.6c-0.4,0.4-0.8,0.8-1.2,1.2c-0.5,0.5-0.7,0.9-1.3,1.3l3-25.5L405.4,0z M417.1,60.1
		c3.4,0,6.4-0.3,9.4-1.8c3-1.5,6-3.6,7.8-6.2c2.2-3.2,3.4-5.3,4.3-9.7c0.5-2.7,0.7-5.8,0.1-8.5c-0.7-2.9-1.5-4.3-3.1-6.2
		c-1.2-1.5-0.5-0.7-2.4-2.3c-0.7-0.5-1.9-1.3-3-1.7c-10.8-4.9-25.5,1.3-28.6,15.1c-1.5,6.7,0,12.2,3.7,16.4c0.2,0.2,0.1,0.1,0.3,0.3
		c0.1,0.1,0.2,0.1,0.3,0.2c1.3,1,1,1.2,3.5,2.5C411.3,59,414.7,60.1,417.1,60.1L417.1,60.1z M417.1,60.1"/>
	<path class="st0" d="M335.5,43.4c0,4.2,0.3,7,2.2,10.8c0.8,1.6,2.6,4.3,4,5.4c2.6,2.1,3.4,3.1,7.6,4.6c7.3,2.5,16.8,2.5,23.6-1
		c6.1-3.1,10-7.1,13.2-13.2c3.7-7.1,3.9-16.8,0-23.9c-3.1-5.6-9.4-8.5-15.5-9.5c-4.7-0.7-7-0.3-11.4,0.3c-10.2,1.5-17.2,8-21.2,16.4
		C336.9,35.6,335.5,40.3,335.5,43.4L335.5,43.4z M342.6,43.8c0,7.5,3.8,12.6,10,15c13.9,5.3,30.6-5.5,29.4-22.3
		c-1.3-17.4-26.1-19.6-36-4.6C344,34.8,342.6,39.8,342.6,43.8L342.6,43.8z M342.6,43.8"/>
	<path class="st0" d="M250.6,64.2l6.6-0.1l1.7-13.6c1.3-10.4,2.5-23.9,4.2-34c0.3-1.6,0.6-4.9,1.2-6.2c1.4,2.7,4.4,10.5,5.6,13.6
		l10.4,28.1c1.3,3.3,2.1,7.1,4.1,10.3c1.4,2.3,1.9,2,4.3,2c2.6,0,5-3.5,6-5.2c1.4-2.4,3.7-6.4,5.3-8.7l5.5-8.5
		c0.3-0.5,0.7-1.2,1.1-1.7c0.5-0.7,0.7-1.2,1.2-1.8c0.4-0.6,0.7-1,1.1-1.7l16.7-25.5l-6.5,52.8l6.8,0l8.1-63.7
		c-1.5-0.2-4.5-0.1-6.2-0.1c-3.3,0-2.7-0.3-4.3,1.8c-4.1,5.4-10.1,14.7-13.4,20.4c-0.4,0.7-0.8,1.3-1.2,2c-1.3,2.3-3.4,5.2-4.8,7.5
		c-3.1,4.9-6.5,10.2-9.5,15.2c-0.6,1-4.1,6.3-5.1,7.2c-2-1.2-15.2-38.1-16.4-41.2c-1.6-4.1-3-8-4.9-12c-0.4-0.9-0.2-1-1.4-1h-7.9
		c-0.9,0-0.9,1.4-1.2,3.3c-1.6,9.4-2.5,18.7-3.9,27.9C253.5,35.4,250.2,62.4,250.6,64.2L250.6,64.2z M250.6,64.2"/>
	<path class="st5" d="M342,107c-6.3,0.5-13.4,4.3-14,10l28.1,0.2C356,109.6,349.8,106.4,342,107z"/>
	<path class="st5" d="M526.5,73.7c-1.2-2.1-0.8-1.9-3.7-2.3c-4.4-0.6-12.6-1-17.1-1c-19.8,0-39.4,0.4-59.1,0.4
		c-31.6,0-63.6-0.3-95.2-0.3c-15.9,0-31.8,0-47.7,0c-15.8,0-31.6,0.3-47.3,0.3c-2,0-3.9,0.2-5.8,0.1c-9.8-0.1-9,13.1-9.9,20.1
		l-6.7,53c-0.4,3.2-1.1,7.9-0.3,11c1,3.6,4,4.2,7.9,4.2c7.7,0,15.6-0.1,23.6-0.1c34.2,0,236.7-0.4,238,0.3h3.6
		c0.6-0.2,3.2-0.2,5.2-0.8c6.2-1.7,6.1-5.8,6.7-11.2l8-63.6C527.3,79.4,528.2,76.6,526.5,73.7z M295,97.1
		c-0.3,0.3-4.2,32.8-4.8,37.8c-0.3,2-1.1,11.2-1.7,12.4l-21.5,0.1l6.1-50.5l-23.6,0l1.7-14.9c23.2-0.1,46.3,0,69.5,0.2
		c0.2,1.5-1.4,14-1.9,14.9c-3.8,0.2-8.1-0.1-12-0.2c-2,0-4-0.1-6-0.1C299.5,96.8,296,96.5,295,97.1z M375,126.9l-48.2,0.4
		c-0.7,2,0.6,4.9,1.5,6.2c4.6,6.2,15.5,6.1,20.8,2.5c0.9-0.6,1.3-1.2,2.1-1.8c3.3-2.7,17.5-1.8,21.7-1.5c0.5,3.1-4.6,7.5-6.1,8.6
		c-2.5,2-6,3.9-9.6,5.2c-12.5,4.5-36.5,5.5-46.6-6.8c-5.1-6.1-5-15.3-2.2-23.6c4.8-14.4,20-20.9,39.1-20.2
		c13.2,0.5,24.1,5.1,27.1,17.5C375.3,116.3,376,124.2,375,126.9z M447,117c-5,0.1-10.1,0.1-15.1,0.2c-3.5,0.1-4.2,0.7-5.2-2.4
		c-0.8-2.4-1.5-3.2-3.3-4.3c-5.8-3.6-17.4-2.3-22,5c-2,3.1-3.2,8.1-2.3,12.6c1.9,9.7,14.1,9.9,20.4,7c4.9-2.3,5-4.6,7.2-7.9l19.8,0
		c-0.1,3.7-3,7.9-4.8,10c-2.2,2.6-4.5,4.9-7.8,7c-5.7,3.5-15.9,5.3-23.9,5.5c-18.4,0.4-34-6.9-31.7-26.5c2-16.9,14.3-25.4,31.7-27
		c8.8-0.8,18.5-0.4,25.8,2.9c3.7,1.7,6.4,3.7,8.3,6.4C445.6,107.6,448,113.4,447,117z M512.5,125c-0.5,3.9-0.9,7.6-1.4,11.5
		c-0.2,1.9-0.5,3.8-0.7,5.7c-0.1,0.9-0.3,1.8-0.4,2.8c-0.2,1.1-0.1,2.4-0.7,2.5l-18.8,0c-0.1-7.6,1.8-15.2,2.8-22.5
		c1.2-9.4-0.2-14.7-10.6-13.5c-7.7,0.9-10.7,5.8-11.7,13.4c-1,7.3-1.8,14.8-2.7,22.2c-1,0.2-18.2,0.6-19.3,0.4
		c0.4-5.4,1.4-11.3,2-16.8c0.7-5.5,1.4-11.1,2-16.6c0.2-2,3.8-32.3,4.2-33.4l19.2,0l-2.7,23.4c2-0.9,5.3-3.4,8.1-4.8
		c3-1.5,6.4-2.2,10.3-2.5c8.4-0.5,15.7,0.8,19.2,6.1C515.1,108.5,513.5,117.8,512.5,125z"/>
	<path class="st0" d="M454.6,18.3L449,64.2l6.6,0c0.6-2.3,0.6-3.2,0.9-5.6l3.5-28.7c0.2-1.9,0.5-3.8,0.7-5.6l0.8-6.8
		C460.3,17.7,455.3,17.9,454.6,18.3L454.6,18.3z M454.6,18.3"/>
	<path class="st0" d="M162.6,145.3c0.6,5.5,11.8,4.2,10.3-2.9C171.6,136.3,161.8,138.6,162.6,145.3L162.6,145.3z M162.6,145.3"/>
	<path class="st6" d="M197.1,13.1c-4.2-1.5-13.5-0.9-18.4-0.8c-1.7,0-5.5-0.6-4.9,1.8c0.3,1.4,4.4,1,5.6,1l13.3,0
		C195.2,15.2,196.7,15.6,197.1,13.1L197.1,13.1z M197.1,13.1"/>
	<path class="st0" d="M148.7,21.2c-0.5,0.3-0.2-0.1-0.4,0.5l-11.7,85.2c-0.6,4.7-1.3,9.5-2,14.3l-1.9,14.2c5.5,0.4,12.2,0,17.9,0
		c17.2,0,35.2-0.2,52.4,0c0.6,0,1.7,0.1,2.1-0.3c0.4-0.5,12.3-89.8,14.6-106.6c0.3-2,0.9-5.3,0.9-7.2L148.7,21.2z M179.3,64.5
		c2.4-2.4,5.2-2.1,5.2-2.1s0.1,2.6-2.2,4.7c-2.5,2.3-4.9,1.6-4.9,1.6S177.2,66.6,179.3,64.5z M188.1,85.8c0,0-3.9,7.8-7.8,7.3
		c-1.8-0.2-3.1-1.6-5-1.8c-1.9-0.2-4,0.8-5.3,0.6c-3.6-0.4-7.2-8.8-6.4-15c0.8-6.1,5-8.9,8.6-8.4c2.3,0.3,4,1.9,5.2,2
		c1,0.1,3.2-1.1,5.7-0.8c4.3,0.5,5.7,3.8,5.7,3.8s-3.5,1.3-4.1,5.4C184.2,83.7,188.1,85.8,188.1,85.8z"/>
</g>
</svg>
