<svg enable-background="new 0 0 530.4 159.3" viewBox="0 0 530.4 159.3" xmlns="http://www.w3.org/2000/svg"><g clip-rule="evenodd" fill-rule="evenodd"><path d="m530.4 41v-5.5c-.1-.2-.7-4.3-.9-5-.4-1.4-.9-3-1.6-4.2-.8-1.3-1.4-2.4-2.4-3.4-9.3-9.7-29.3-8.4-38.5.9-6.6 6.6-10 17.1-8.2 26.2 1.5 7.5 7 12.5 14.4 14.8 8.2 2.5 17.4.6 24-3l3.5-2.3c2.4-1.9 7.1-7.2 7.2-10.2-1.3 0-2.5 0-3.8 0-1.7 0-2-.2-3 .8-1.2 1.1-1.8 3-3 4.3-8.1 8.3-25.1 7.5-30.8-1.4-.9-1.5-1.7-3.4-1.9-5.4-.1-.8-.1-2.9 0-3.6.1-.8 0-.8.9-1 3.4-.5 25.1.2 30.3.2 7.1 0 7 .3 13.7-.9zm-43.9-3.6c2.6.2 32.3.1 37.1.1 0-5.1-1.4-8.1-4.2-10.8-2.2-2.2-7-4.2-11-4.2-6.4 0-10.1.9-15.5 4.4-2.7 1.6-6.4 6-6.4 10.5zm0 0"/><path d="m477.9 0h-3.6c-.6.3-2.1.1-3 .1l-.2.1-7.7 64 6.6-.2zm0 0"/><path d="m458.6 0h-1.6c-.1 1.7-.4 3.4-.6 5-.2 1.3-.6 3.8-.5 5h6.6l1.3-9.8zm0 0" fill="#060606"/><path d="m33 109.5c3.4 0 10.5.4 13.3-1.1s3.4-4.7 1.8-7.5c-.5-.9-.8-1-1.7-1.5-2.5-1.5-8.2-1.1-11.3-1.1-4.2 0-9 1.2-9.8 4.8-.9 4.3 3.7 6.4 7.7 6.4zm0 0"/><path d="m49.2 21.2c-3 .5-9.2 2.2-7.9 6.6 1 3.6 9.2 6.9 15.3 3s-1.2-10.7-7.4-9.6zm0 0"/><path d="m231.5 6.9c-3.6-7.3-11.2-6.1-18.8-6.4-16.5-.5-33-.5-49.6-.5-7.6 0-15.5-.6-20.5 4.4-1.6 1.6-4.1 5.3-5.1 7.4-6.4.9-12.4-.4-18.5 1.4-7.4 2.3-8.5 6.8-11.9 8.1-7.7 2.8-31.4-4.5-33.8 3.9-2.1 7.2 7.2 7.1 12.5 7.1 3.4 0 6.5-.2 9.7-.3 3.4-.1 6.2 0 9.5 0 4.3 0 14.7 1.9 10.9 7.2-3 4.2-11.3 3-16.7 3h-59.9c-3.1 0-6.3.3-7.7 2.3-1.6 2.3-.2 5.6 1.2 6.9 5.2 4.8 65-1.8 70.2 2.7 1 .8 1.2 2.6.9 3.7-.4.6-1.3 1.1-2.2 1.5-5.1 2.4-17.1.9-22.5.9h-69.8c-2.7 0-6.9-.4-8.6 1.9-.6.9-.4 1.8-.8 2.4v2.7c.7 1.3-.3.8 1.5 1.8 2.3 1.3 5 1.7 7.6 2 3.2.4 32.9-.4 38.2-.4 17.1 0 34.6-.3 51.7 0 6 .1 13.1 0 19.1.7 2.2.2 3.1.7 4.1 2.3 2.5 3.9-1.9 6-5.1 6.7-3.4.7-8.6.4-12.5.4l-38.8-.2c-4.2 0-8.6.2-12.7.2s-8.3.4-9 4.1c-.8 4.3 2.8 6.3 6.5 6.6 6.1.5 18.6 0 25.5 0l25.8-.3c3.9-.1 8.9-.1 8.7 4.4-.1 2.4-.6 2.3-3.5 3-4.9 1.2-13.2.8-18.1.3-4.2-.4-8.4-.5-12.6-.5-3.7 0-8.7.2-10.9 2.2-2.8 2.6-2.3 6.5 1.3 8.1 3.2 1.4 7.7 1.2 11.5 1.1l12.7-.2c3.3-.3 9.5-.5 12.7 0 5.6.9 4.5 5.5 4.5 7.9-3.2 1-1.5 1.1-6.8 1.8-6.5 1-17.3.1-24.3.1-11.2 0-22.6-.2-33.7-.2-3.3 0-6.6-.1-9 1.6-1.3 1-1.6 3-1.4 4.7.4 4.8 7.3 5 12.3 4.5 2.4-.3 5.9-.1 8.5-.1l8.4-.2c5.5.3 11.2.2 16.7.2 1 .2 1.4 5 5.5 7.1 2.9 1.6 7.1 1.6 11.1 1.6 4.6 0 21.2-.6 24.4.4.6 2.4-.3 6.3 1.2 11.5 1 3.5 2.5 5.5 5.5 6.9 5.1 2.4 16.9 1.4 23.4 1.4 13.9 0 36.6 1 49.4 0 4.5-.3 6.7-.8 9.8-2.9 7.8-5.2 8.1-19.3 9.2-28.4 1.8-14.7 4.1-29.4 6-44 1.9-14.7 3.9-29.7 6-44.2.5-3.6 1.2-7.3 1.8-10.8 1-6.6 2.5-15.2-.7-21.5zm-4.8 21.4c-3.8 27.5-8 55.5-11.5 83-1.2 9.2-2.2 18.7-3.5 28-.6 4.5-1.9 8.9-4.4 11.3-3.2 3.1-7.1 3-12.6 3.1-15.7.3-31.5.3-47.2.1-4.7 0-10.8.3-15.2-.4-5.2-.8-7.3-2.9-7.4-8.6-.1-4.3 1-9.8 1.7-14.1 1.3-9.2 2.6-18.3 3.8-27.6 2.4-18.5 4.9-37.1 7.5-55.6 1.3-9.2 2.4-18.5 3.9-27.7 1.9-12.2 3.9-14.2 16.7-14.7 5.1-.2 10.3 0 15.5.1 8 0 41.8-.3 46.9.4 5.2.8 7.4 2.9 7.5 8.4-.2 4.7-1.1 9.9-1.7 14.3z"/><path d="m405.4 0h-5.1c-.7.8-.6 2-.8 3.9-.8 7.2-7.8 59.1-7.5 60.3h6.6l1.2-8c.8.2.3 0 .7.5 3.2 3.6 4.5 6.3 10.3 8 5.3 1.6 11.9 1.1 16.9-.6 5.4-1.9 8.8-4.5 11.7-7.9 3.1-3.5 5.4-8.9 6.1-13.5 4.7-29.5-27.3-31.7-39.4-19.6-.4.4-.8.8-1.2 1.2-.5.5-.7.9-1.3 1.3l3-25.5zm11.7 60.1c3.4 0 6.4-.3 9.4-1.8s6-3.6 7.8-6.2c2.2-3.2 3.4-5.3 4.3-9.7.5-2.7.7-5.8.1-8.5-.7-2.9-1.5-4.3-3.1-6.2-1.2-1.5-.5-.7-2.4-2.3-.7-.5-1.9-1.3-3-1.7-10.8-4.9-25.5 1.3-28.6 15.1-1.5 6.7 0 12.2 3.7 16.4.2.2.1.1.3.3.1.1.2.1.3.2 1.3 1 1 1.2 3.5 2.5 1.9.8 5.3 1.9 7.7 1.9zm0 0"/><path d="m335.5 43.4c0 4.2.3 7 2.2 10.8.8 1.6 2.6 4.3 4 5.4 2.6 2.1 3.4 3.1 7.6 4.6 7.3 2.5 16.8 2.5 23.6-1 6.1-3.1 10-7.1 13.2-13.2 3.7-7.1 3.9-16.8 0-23.9-3.1-5.6-9.4-8.5-15.5-9.5-4.7-.7-7-.3-11.4.3-10.2 1.5-17.2 8-21.2 16.4-1.1 2.3-2.5 7-2.5 10.1zm7.1.4c0 7.5 3.8 12.6 10 15 13.9 5.3 30.6-5.5 29.4-22.3-1.3-17.4-26.1-19.6-36-4.6-2 2.9-3.4 7.9-3.4 11.9zm0 0"/><path d="m250.6 64.2 6.6-.1 1.7-13.6c1.3-10.4 2.5-23.9 4.2-34 .3-1.6.6-4.9 1.2-6.2 1.4 2.7 4.4 10.5 5.6 13.6l10.4 28.1c1.3 3.3 2.1 7.1 4.1 10.3 1.4 2.3 1.9 2 4.3 2 2.6 0 5-3.5 6-5.2 1.4-2.4 3.7-6.4 5.3-8.7l5.5-8.5c.3-.5.7-1.2 1.1-1.7.5-.7.7-1.2 1.2-1.8.4-.6.7-1 1.1-1.7l16.7-25.5-6.5 52.8h6.8l8.1-63.7c-1.5-.2-4.5-.1-6.2-.1-3.3 0-2.7-.3-4.3 1.8-4.1 5.4-10.1 14.7-13.4 20.4-.4.7-.8 1.3-1.2 2-1.3 2.3-3.4 5.2-4.8 7.5-3.1 4.9-6.5 10.2-9.5 15.2-.6 1-4.1 6.3-5.1 7.2-2-1.2-15.2-38.1-16.4-41.2-1.6-4.1-3-8-4.9-12-.4-.9-.2-1-1.4-1h-7.9c-.9 0-.9 1.4-1.2 3.3-1.6 9.4-2.5 18.7-3.9 27.9-.3 4.1-3.6 31.1-3.2 32.9zm0 0"/><path d="m342 107c-6.3.5-13.4 4.3-14 10l28.1.2c-.1-7.6-6.3-10.8-14.1-10.2z" fill="#ce1417"/><path d="m526.5 73.7c-1.2-2.1-.8-1.9-3.7-2.3-4.4-.6-12.6-1-17.1-1-19.8 0-39.4.4-59.1.4-31.6 0-63.6-.3-95.2-.3-15.9 0-31.8 0-47.7 0-15.8 0-31.6.3-47.3.3-2 0-3.9.2-5.8.1-9.8-.1-9 13.1-9.9 20.1l-6.7 53c-.4 3.2-1.1 7.9-.3 11 1 3.6 4 4.2 7.9 4.2 7.7 0 15.6-.1 23.6-.1 34.2 0 236.7-.4 238 .3h3.6c.6-.2 3.2-.2 5.2-.8 6.2-1.7 6.1-5.8 6.7-11.2l8-63.6c.6-4.4 1.5-7.2-.2-10.1zm-231.5 23.4c-.3.3-4.2 32.8-4.8 37.8-.3 2-1.1 11.2-1.7 12.4l-21.5.1 6.1-50.5h-23.6l1.7-14.9c23.2-.1 46.3 0 69.5.2.2 1.5-1.4 14-1.9 14.9-3.8.2-8.1-.1-12-.2-2 0-4-.1-6-.1-1.3 0-4.8-.3-5.8.3zm80 29.8-48.2.4c-.7 2 .6 4.9 1.5 6.2 4.6 6.2 15.5 6.1 20.8 2.5.9-.6 1.3-1.2 2.1-1.8 3.3-2.7 17.5-1.8 21.7-1.5.5 3.1-4.6 7.5-6.1 8.6-2.5 2-6 3.9-9.6 5.2-12.5 4.5-36.5 5.5-46.6-6.8-5.1-6.1-5-15.3-2.2-23.6 4.8-14.4 20-20.9 39.1-20.2 13.2.5 24.1 5.1 27.1 17.5.7 2.9 1.4 10.8.4 13.5zm72-9.9c-5 .1-10.1.1-15.1.2-3.5.1-4.2.7-5.2-2.4-.8-2.4-1.5-3.2-3.3-4.3-5.8-3.6-17.4-2.3-22 5-2 3.1-3.2 8.1-2.3 12.6 1.9 9.7 14.1 9.9 20.4 7 4.9-2.3 5-4.6 7.2-7.9h19.8c-.1 3.7-3 7.9-4.8 10-2.2 2.6-4.5 4.9-7.8 7-5.7 3.5-15.9 5.3-23.9 5.5-18.4.4-34-6.9-31.7-26.5 2-16.9 14.3-25.4 31.7-27 8.8-.8 18.5-.4 25.8 2.9 3.7 1.7 6.4 3.7 8.3 6.4 1.5 2.1 3.9 7.9 2.9 11.5zm65.5 8c-.5 3.9-.9 7.6-1.4 11.5-.2 1.9-.5 3.8-.7 5.7-.1.9-.3 1.8-.4 2.8-.2 1.1-.1 2.4-.7 2.5h-18.8c-.1-7.6 1.8-15.2 2.8-22.5 1.2-9.4-.2-14.7-10.6-13.5-7.7.9-10.7 5.8-11.7 13.4-1 7.3-1.8 14.8-2.7 22.2-1 .2-18.2.6-19.3.4.4-5.4 1.4-11.3 2-16.8.7-5.5 1.4-11.1 2-16.6.2-2 3.8-32.3 4.2-33.4h19.2l-2.7 23.4c2-.9 5.3-3.4 8.1-4.8 3-1.5 6.4-2.2 10.3-2.5 8.4-.5 15.7.8 19.2 6.1 3.8 5.6 2.2 14.9 1.2 22.1z" fill="#ce1417"/><path d="m454.6 18.3-5.6 45.9h6.6c.6-2.3.6-3.2.9-5.6l3.5-28.7c.2-1.9.5-3.8.7-5.6l.8-6.8c-1.2.2-6.2.4-6.9.8zm0 0"/><path d="m162.6 145.3c.6 5.5 11.8 4.2 10.3-2.9-1.3-6.1-11.1-3.8-10.3 2.9zm0 0"/><path d="m197.1 13.1c-4.2-1.5-13.5-.9-18.4-.8-1.7 0-5.5-.6-4.9 1.8.3 1.4 4.4 1 5.6 1h13.3c2.5.1 4 .5 4.4-2zm0 0" fill="#060606"/><path d="m148.7 21.2c-.5.3-.2-.1-.4.5l-11.7 85.2c-.6 4.7-1.3 9.5-2 14.3l-1.9 14.2c5.5.4 12.2 0 17.9 0 17.2 0 35.2-.2 52.4 0 .6 0 1.7.1 2.1-.3.4-.5 12.3-89.8 14.6-106.6.3-2 .9-5.3.9-7.2zm30.6 43.3c2.4-2.4 5.2-2.1 5.2-2.1s.1 2.6-2.2 4.7c-2.5 2.3-4.9 1.6-4.9 1.6s-.2-2.1 1.9-4.2zm8.8 21.3s-3.9 7.8-7.8 7.3c-1.8-.2-3.1-1.6-5-1.8s-4 .8-5.3.6c-3.6-.4-7.2-8.8-6.4-15 .8-6.1 5-8.9 8.6-8.4 2.3.3 4 1.9 5.2 2 1 .1 3.2-1.1 5.7-.8 4.3.5 5.7 3.8 5.7 3.8s-3.5 1.3-4.1 5.4c-.5 4.8 3.4 6.9 3.4 6.9z"/></g></svg>